<svg viewBox="0 0 24 24" fill="none" stroke="currentColor" stroke-width="1.75" stroke-linecap="round" stroke-linejoin="round" xmlns="http://www.w3.org/2000/svg">
  <path d="M3 10a2 2 0 0 1 .709-1.528l7-5.999a2 2 0 0 1 2.582 0l7 5.999A2 2 0 0 1 21 10v9a2 2 0 0 1-2 2H5a2 2 0 0 1-2-2z" style="stroke: rgb(248, 250, 252); fill: rgb(248, 250, 252);" transform="matrix(1.0000000000000002, 0, 0, 1.0000000000000002, 7.105427357601002e-15, 7.105427357601002e-15)"/>
  <path d="M 15 21 L 15 13 C 15 12.447715250169207 14.552284749830793 12 14 12 L 10 12 C 9.447715250169207 12 9 12.447715250169207 9 13 L 9 21 Z" style="stroke: rgb(248, 250, 252); fill: rgb(30, 41, 59);" transform="matrix(1.0000000000000002, 0, 0, 1.0000000000000002, 7.105427357601002e-15, 7.105427357601002e-15)"/>
</svg>