<svg height="40px" width="40px" viewBox="0 0 24 24" fill="none" stroke="currentColor" stroke-width="1.75" stroke-linecap="round" stroke-linejoin="round" xmlns="http://www.w3.org/2000/svg">
  <circle cx="8" cy="21" r="1" style="stroke: rgb(248, 250, 252); fill: rgb(248, 250, 252);" transform="matrix(1, 0, 0, 1, 0, 1.734723475976807e-18)"/>
  <circle cx="19" cy="21" r="1" style="stroke: rgb(248, 250, 252); fill: rgb(248, 250, 252);" transform="matrix(1, 0, 0, 1, 0, 1.734723475976807e-18)"/>
  <path d="M2.05 2.05h2l2.66 12.42a2 2 0 0 0 2 1.58h9.78a2 2 0 0 0 1.95-1.57l1.65-7.43H5.12" style="stroke: rgb(248, 250, 252);" transform="matrix(1, 0, 0, 1, 0, 1.734723475976807e-18)"/>
  <rect x="6.109" y="6.863" width="15.026" height="6.043" style="stroke-width: 1px; fill: rgb(248, 250, 252); stroke: none;" transform="matrix(1, 0, 0, 1, 0, 1.734723475976807e-18)"/>
  <rect x="6.751" y="12.087" width="13.496" height="3.865" style="stroke-width: 1px; fill: rgb(248, 250, 252); stroke: none;" transform="matrix(1, 0, 0, 1, 0, 1.734723475976807e-18)"/>
</svg>