<svg width="200" height="278" viewBox="0 0 200 278" fill="none" xmlns="http://www.w3.org/2000/svg">
<rect x="2" y="2" width="196" height="274" rx="14" fill="#334155"/>
<rect x="2" y="2" width="196" height="274" rx="14" stroke="#475569" stroke-width="4"/>
<g clip-path="url(#clip0_139_7668)">
<g clip-path="url(#clip1_139_7668)">
<g clip-path="url(#clip2_139_7668)">
<g clip-path="url(#clip3_139_7668)">
<g clip-path="url(#clip4_139_7668)">
<g clip-path="url(#clip5_139_7668)">
<g clip-path="url(#clip6_139_7668)">
<g clip-path="url(#clip7_139_7668)">
<g clip-path="url(#clip8_139_7668)">
<g clip-path="url(#clip9_139_7668)">
<g clip-path="url(#clip10_139_7668)">
<path d="M29.783 148.318C28.433 148.318 27.1624 148.114 25.9712 147.706C24.78 147.301 23.7437 146.687 22.8622 145.862C21.9768 145.042 21.2819 144.013 20.7776 142.776C20.2694 141.535 20.0153 140.092 20.0153 138.447C20.0153 136.822 20.2734 135.379 20.7895 134.118C21.3057 132.861 22.0065 131.801 22.892 130.937C23.7735 130.076 24.7999 129.418 25.9712 128.962C27.1426 128.507 28.3735 128.279 29.6639 128.279C31.0934 128.279 32.3302 128.53 33.3745 129.034C34.4148 129.541 35.2824 130.142 35.9773 130.836L33.2971 134.106C32.8206 133.69 32.3203 133.347 31.7962 133.077C31.2681 132.812 30.6169 132.679 29.8426 132.679C29.1874 132.679 28.5819 132.808 28.026 133.065C27.4701 133.323 26.9837 133.69 26.5668 134.166C26.1499 134.641 25.8283 135.226 25.602 135.92C25.3717 136.614 25.2565 137.396 25.2565 138.269C25.2565 140.092 25.6635 141.49 26.4775 142.461C27.2915 143.432 28.572 143.918 30.3191 143.918C30.597 143.918 30.871 143.888 31.141 143.829C31.407 143.769 31.6294 143.68 31.8081 143.561V140.885H28.9492V136.723H36.3346V145.94C35.6397 146.594 34.7166 147.153 33.5651 147.616C32.4136 148.084 31.1529 148.318 29.783 148.318ZM44.7921 138.566L44.4645 139.904H48.0381L47.7105 138.566C47.4723 137.634 47.234 136.623 46.9958 135.533C46.7576 134.443 46.5193 133.412 46.2811 132.441H46.162C45.9436 133.432 45.7192 134.467 45.4889 135.545C45.2626 136.627 45.0303 137.634 44.7921 138.566ZM42.5884 147.961H37.3471L43.2435 128.635H49.4377L55.3341 147.961H49.9142L48.9613 143.858H43.5413L42.5884 147.961ZM61.7666 147.961H57.1745V128.635H62.66L65.5784 136.544C65.7571 137.079 65.9258 137.634 66.0847 138.209C66.2435 138.784 66.4122 139.359 66.5909 139.934H66.7041C66.8867 139.359 67.0575 138.784 67.2163 138.209C67.3712 137.634 67.5399 137.079 67.7226 136.544L70.5219 128.635H76.0014V147.961H71.3557V142.253C71.3557 141.757 71.3795 141.212 71.4272 140.617C71.4788 140.023 71.5344 139.412 71.5939 138.786C71.6535 138.164 71.723 137.555 71.8024 136.96C71.8778 136.366 71.9473 135.831 72.0109 135.355H71.8917L70.2777 139.993L67.8953 146.386H65.1615L62.7791 139.993L61.2306 135.355H61.1114C61.167 135.831 61.2365 136.366 61.3199 136.96C61.3993 137.555 61.4688 138.164 61.5284 138.786C61.5879 139.412 61.6415 140.023 61.6892 140.617C61.7408 141.212 61.7666 141.757 61.7666 142.253V147.961ZM93.089 147.961H80.2837V128.635H92.7912V132.917H85.4058V135.949H91.7191V140.231H85.4058V143.68H93.089V147.961ZM101.725 147.961H96.8413V128.635H102.083L106.371 137.258L108.217 141.599H108.336C108.277 141.083 108.207 140.518 108.128 139.904C108.048 139.289 107.979 138.659 107.919 138.013C107.86 137.371 107.806 136.726 107.759 136.08C107.707 135.438 107.681 134.82 107.681 134.225V128.635H112.565V147.961H107.324L103.035 139.309L101.189 134.998H101.07C101.189 136.108 101.328 137.317 101.487 138.625C101.646 139.934 101.725 141.182 101.725 142.372V147.961ZM121.975 147.961H116.853V128.635H121.975V147.961ZM135.198 148.318C133.848 148.318 132.577 148.114 131.386 147.706C130.195 147.301 129.156 146.687 128.271 145.862C127.389 145.042 126.695 144.013 126.186 142.776C125.682 141.535 125.43 140.092 125.43 138.447C125.43 136.822 125.688 135.379 126.204 134.118C126.72 132.861 127.419 131.801 128.301 130.937C129.186 130.076 130.215 129.418 131.386 128.962C132.557 128.507 133.788 128.279 135.079 128.279C136.508 128.279 137.743 128.53 138.783 129.034C139.827 129.541 140.697 130.142 141.392 130.836L138.712 134.106C138.235 133.69 137.733 133.347 137.205 133.077C136.681 132.812 136.032 132.679 135.257 132.679C134.602 132.679 133.997 132.808 133.441 133.065C132.885 133.323 132.398 133.69 131.981 134.166C131.565 134.641 131.241 135.226 131.011 135.92C130.784 136.614 130.671 137.396 130.671 138.269C130.671 140.092 131.078 141.49 131.892 142.461C132.706 143.432 133.987 143.918 135.734 143.918C136.012 143.918 136.284 143.888 136.55 143.829C136.82 143.769 137.044 143.68 137.223 143.561V140.885H134.364V136.723H141.749V145.94C141.054 146.594 140.131 147.153 138.98 147.616C137.828 148.084 136.568 148.318 135.198 148.318ZM150.618 147.961H145.496V128.635H150.618V135.831H156.395V128.635H161.517V147.961H156.395V140.29H150.618V147.961ZM174.62 147.961H169.498V132.917H164.376V128.635H179.742V132.917H174.62V147.961Z" fill="#475569"/>
</g>
</g>
</g>
</g>
</g>
</g>
</g>
<mask id="mask0_139_7668" style="mask-type:luminance" maskUnits="userSpaceOnUse" x="0" y="76" width="324" height="202">
<path d="M323.139 76H0.0418701V277.613H323.139V76Z" fill="white"/>
<path d="M187.735 123.548H12.0223V153.049H187.735V123.548Z" fill="black"/>
</mask>
<g mask="url(#mask0_139_7668)">
<g clip-path="url(#clip11_139_7668)">
<path d="M127.083 168.616C122.696 165.514 122.333 163.873 122.333 161.508C122.333 159.144 121.601 156.947 119.777 155.124C117.957 153.301 115.026 147.46 115.026 132.684C115.026 117.907 119.414 108.974 119.414 108.974H129.827C129.827 108.974 132.746 83.7982 135.303 76.8674H121.788C121.788 76.8674 120.876 83.4361 120.876 87.0845H115.394V76.504H103.154V86.904H96.4988V76.504H84.2539V87.0857H78.7775C78.7775 83.4374 77.8714 76.8686 77.8714 76.8686H64.344C66.9064 83.7995 69.8265 108.976 69.8265 108.976H80.2407C80.2407 108.976 84.6289 117.91 84.6289 132.685C84.6289 147.46 81.7039 153.302 79.878 155.125C78.0522 156.948 77.3156 159.144 77.3156 161.51C77.3156 163.874 76.9529 165.515 72.5647 168.617C68.1889 171.719 63.6137 174.64 63.6137 179.563C63.6137 184.487 68.3708 184.862 70.3774 184.862H129.277C131.284 184.862 136.041 184.487 136.041 179.563C136.041 174.64 131.465 171.718 127.083 168.616Z" fill="#475569"/>
<path d="M64.1633 200.093C63.0013 200.094 61.8864 199.635 61.0637 198.815C60.241 197.996 59.7779 196.884 59.7763 195.724C59.7763 194.562 60.2385 193.448 61.0612 192.626C61.8838 191.805 62.9997 191.343 64.1633 191.343H135.593C136.17 191.342 136.741 191.455 137.273 191.675C137.806 191.894 138.29 192.217 138.698 192.624C139.105 193.031 139.429 193.514 139.649 194.046C139.869 194.578 139.982 195.148 139.981 195.724C139.981 196.299 139.867 196.868 139.647 197.398C139.426 197.929 139.102 198.411 138.695 198.817C138.287 199.223 137.803 199.545 137.271 199.763C136.739 199.982 136.169 200.094 135.593 200.093H64.1633Z" fill="#475569"/>
</g>
</g>
</g>
</g>
</g>
</g>
<defs>
<clipPath id="clip0_139_7668">
<rect width="200" height="125" fill="white" transform="translate(0 76)"/>
</clipPath>
<clipPath id="clip1_139_7668">
<rect width="200" height="125" fill="white" transform="translate(-0.121216 75.7983)"/>
</clipPath>
<clipPath id="clip2_139_7668">
<rect width="199.674" height="124.597" fill="white" transform="translate(0.0418701 76)"/>
</clipPath>
<clipPath id="clip3_139_7668">
<rect width="199.674" height="124.597" fill="white" transform="translate(0.0418701 76)"/>
</clipPath>
<clipPath id="clip4_139_7668">
<rect width="159.739" height="20.0395" fill="white" transform="translate(20.0093 128.279)"/>
</clipPath>
<clipPath id="clip5_139_7668">
<rect width="159.739" height="20.0395" fill="white" transform="translate(20.0093 128.279)"/>
</clipPath>
<clipPath id="clip6_139_7668">
<rect width="159.739" height="20.0395" fill="white" transform="translate(20.0093 128.279)"/>
</clipPath>
<clipPath id="clip7_139_7668">
<rect width="159.739" height="20.0395" fill="white" transform="translate(20.0093 128.279)"/>
</clipPath>
<clipPath id="clip8_139_7668">
<rect width="159.739" height="20.0395" fill="white" transform="translate(20.0093 128.279)"/>
</clipPath>
<clipPath id="clip9_139_7668">
<rect width="159.739" height="20.0395" fill="white" transform="translate(20.0093 128.279)"/>
</clipPath>
<clipPath id="clip10_139_7668">
<rect width="159.739" height="20.0395" fill="white" transform="translate(20.0093 128.279)"/>
</clipPath>
<clipPath id="clip11_139_7668">
<rect width="80.205" height="123.589" fill="white" transform="translate(59.7763 76.504)"/>
</clipPath>
</defs>
</svg>
