<svg width="200" height="278" viewBox="0 0 200 278" fill="none" xmlns="http://www.w3.org/2000/svg">
<g clip-path="url(#clip0_139_8520)">
<rect width="200" height="278" rx="16" fill="#334155"/>
<path d="M96.786 35.904L95.59 40.064H104.274L103.078 35.904C102.523 34.1013 101.986 32.2467 101.466 30.34C100.981 28.4333 100.495 26.544 100.01 24.672H99.802C99.3513 26.5787 98.866 28.4853 98.346 30.392C97.8606 32.264 97.3406 34.1013 96.786 35.904ZM85.398 54L96.474 19.992H103.546L114.622 54H108.278L105.626 44.796H94.186L91.534 54H85.398Z" fill="#4ADE80"/>
<g clip-path="url(#clip1_139_8520)">
<path d="M23.3133 36.399C22.1041 39.7213 21.0358 43.3457 22.6558 46.8199C23.1645 47.9109 23.8832 48.891 24.7707 49.7043C25.6582 50.5175 26.6973 51.148 27.8284 51.5597C30.113 52.3912 32.6343 52.2812 34.8376 51.2537C37.5565 49.9859 39.017 48.3854 40.2262 45.063C43.5485 46.2723 45.7133 46.1823 48.4322 44.9144C49.5232 44.4057 50.5034 43.687 51.3166 42.7995C52.1299 41.912 52.7604 40.873 53.1721 39.7418C53.5838 38.6106 53.7687 37.4094 53.7162 36.2068C53.6637 35.0041 53.3748 33.8236 52.8661 32.7326C51.246 29.2584 47.7828 27.7471 44.4605 26.5379L28.9564 20.8948L23.3133 36.399Z" fill="#4ADE80"/>
<path d="M40.2262 45.063L43.0437 51.1051L40.2262 45.063Z" fill="#4ADE80"/>
<path d="M40.2262 45.063C39.017 48.3854 37.5565 49.9859 34.8376 51.2537C32.6343 52.2812 30.113 52.3912 27.8284 51.5597C26.6973 51.148 25.6582 50.5175 24.7707 49.7043C23.8832 48.891 23.1645 47.9109 22.6558 46.8199C21.0358 43.3457 22.1041 39.7213 23.3133 36.399L28.9564 20.8948L44.4605 26.5379C47.7828 27.7471 51.246 29.2584 52.8661 32.7326C53.3748 33.8236 53.6637 35.0041 53.7162 36.2068C53.7687 37.4094 53.5838 38.6106 53.1721 39.7418C52.7604 40.873 52.1299 41.912 51.3166 42.7995C50.5034 43.687 49.5232 44.4057 48.4322 44.9144C45.7133 46.1823 43.5485 46.2723 40.2262 45.063ZM40.2262 45.063L43.0437 51.1051" stroke="#4ADE80" stroke-width="4" stroke-linecap="round" stroke-linejoin="round"/>
</g>
<g clip-path="url(#clip2_139_8520)">
<path d="M155.539 26.5364C152.217 27.7457 148.754 29.257 147.134 32.7312C146.625 33.8222 146.336 35.0027 146.284 36.2053C146.231 37.408 146.416 38.6092 146.828 39.7404C147.659 42.0249 149.364 43.8855 151.568 44.913C154.287 46.1809 156.451 46.2708 159.774 45.0616C160.983 48.3839 162.443 49.9844 165.162 51.2523C166.253 51.761 167.434 52.0499 168.637 52.1024C169.839 52.1549 171.04 51.97 172.172 51.5583C173.303 51.1466 174.342 50.5161 175.229 49.7028C176.117 48.8896 176.835 47.9094 177.344 46.8184C178.964 43.3443 177.896 39.7199 176.687 36.3975L171.044 20.8934L155.539 26.5364Z" fill="#4ADE80"/>
<path d="M159.774 45.0616L156.956 51.1037L159.774 45.0616Z" fill="#4ADE80"/>
<path d="M159.774 45.0616C156.451 46.2708 154.287 46.1809 151.568 44.913C149.364 43.8855 147.659 42.0249 146.828 39.7404C146.416 38.6092 146.231 37.408 146.284 36.2053C146.336 35.0027 146.625 33.8222 147.134 32.7312C148.754 29.257 152.217 27.7457 155.539 26.5364L171.044 20.8934L176.687 36.3975C177.896 39.7199 178.964 43.3443 177.344 46.8184C176.835 47.9094 176.117 48.8896 175.229 49.7028C174.342 50.5161 173.303 51.1466 172.172 51.5583C171.04 51.97 169.839 52.1549 168.637 52.1024C167.434 52.0499 166.253 51.761 165.162 51.2523C162.443 49.9844 160.983 48.3839 159.774 45.0616ZM159.774 45.0616L156.956 51.1037" stroke="#4ADE80" stroke-width="4" stroke-linecap="round" stroke-linejoin="round"/>
</g>
<path d="M103.214 242.096L104.41 237.936H95.726L96.922 242.096C97.4767 243.899 98.014 245.753 98.534 247.66C99.0194 249.567 99.5047 251.456 99.99 253.328H100.198C100.649 251.421 101.134 249.515 101.654 247.608C102.139 245.736 102.659 243.899 103.214 242.096ZM114.602 224L103.526 258.008H96.454L85.378 224H91.722L94.374 233.204H105.814L108.466 224H114.602Z" fill="#4ADE80"/>
<g clip-path="url(#clip3_139_8520)">
<path d="M176.687 241.601C177.896 238.279 178.964 234.654 177.344 231.18C176.835 230.089 176.117 229.109 175.229 228.296C174.342 227.482 173.303 226.852 172.172 226.44C169.887 225.609 167.366 225.719 165.162 226.746C162.443 228.014 160.983 229.615 159.774 232.937C156.451 231.728 154.287 231.818 151.568 233.086C150.477 233.594 149.497 234.313 148.683 235.2C147.87 236.088 147.24 237.127 146.828 238.258C146.416 239.389 146.231 240.591 146.284 241.793C146.336 242.996 146.625 244.176 147.134 245.267C148.754 248.742 152.217 250.253 155.539 251.462L171.044 257.105L176.687 241.601Z" fill="#4ADE80"/>
<path d="M159.774 232.937L156.956 226.895L159.774 232.937Z" fill="#4ADE80"/>
<path d="M159.774 232.937C160.983 229.615 162.443 228.014 165.162 226.746C167.366 225.719 169.887 225.609 172.172 226.44C173.303 226.852 174.342 227.482 175.229 228.296C176.117 229.109 176.835 230.089 177.344 231.18C178.964 234.654 177.896 238.279 176.687 241.601L171.044 257.105L155.539 251.462C152.217 250.253 148.754 248.742 147.134 245.267C146.625 244.176 146.336 242.996 146.284 241.793C146.231 240.591 146.416 239.389 146.828 238.258C147.24 237.127 147.87 236.088 148.683 235.2C149.497 234.313 150.477 233.594 151.568 233.086C154.287 231.818 156.451 231.728 159.774 232.937ZM159.774 232.937L156.956 226.895" stroke="#4ADE80" stroke-width="4" stroke-linecap="round" stroke-linejoin="round"/>
</g>
<g clip-path="url(#clip4_139_8520)">
<path d="M44.4605 251.464C47.7828 250.254 51.246 248.743 52.8661 245.269C53.3748 244.178 53.6637 242.997 53.7162 241.795C53.7687 240.592 53.5838 239.391 53.1721 238.26C52.3406 235.975 50.6356 234.114 48.4323 233.087C45.7133 231.819 43.5485 231.729 40.2262 232.938C39.017 229.616 37.5566 228.016 34.8376 226.748C33.7466 226.239 32.5661 225.95 31.3635 225.898C30.1608 225.845 28.9596 226.03 27.8284 226.442C26.6973 226.853 25.6582 227.484 24.7707 228.297C23.8832 229.11 23.1646 230.091 22.6558 231.182C21.0358 234.656 22.1041 238.28 23.3133 241.602L28.9564 257.107L44.4605 251.464Z" fill="#4ADE80"/>
<path d="M40.2262 232.938L43.0437 226.896L40.2262 232.938Z" fill="#4ADE80"/>
<path d="M40.2262 232.938C43.5485 231.729 45.7133 231.819 48.4322 233.087C50.6356 234.114 52.3406 235.975 53.1721 238.26C53.5838 239.391 53.7687 240.592 53.7162 241.795C53.6637 242.997 53.3748 244.178 52.8661 245.269C51.246 248.743 47.7828 250.254 44.4605 251.464L28.9564 257.107L23.3133 241.602C22.1041 238.28 21.0358 234.656 22.6558 231.182C23.1646 230.091 23.8832 229.11 24.7707 228.297C25.6582 227.484 26.6973 226.853 27.8284 226.442C28.9596 226.03 30.1608 225.845 31.3635 225.898C32.5661 225.95 33.7466 226.239 34.8376 226.748C37.5566 228.016 39.017 229.616 40.2262 232.938ZM40.2262 232.938L43.0437 226.896" stroke="#4ADE80" stroke-width="4" stroke-linecap="round" stroke-linejoin="round"/>
</g>
<g clip-path="url(#clip5_139_8520)">
<g clip-path="url(#clip6_139_8520)">
<g clip-path="url(#clip7_139_8520)">
<g clip-path="url(#clip8_139_8520)">
<g clip-path="url(#clip9_139_8520)">
<g clip-path="url(#clip10_139_8520)">
<g clip-path="url(#clip11_139_8520)">
<g clip-path="url(#clip12_139_8520)">
<g clip-path="url(#clip13_139_8520)">
<g clip-path="url(#clip14_139_8520)">
<g clip-path="url(#clip15_139_8520)">
<path d="M64.8914 144.448C64.2164 144.448 63.5811 144.345 62.9855 144.14C62.3899 143.936 61.8717 143.626 61.431 143.211C60.9883 142.797 60.6408 142.279 60.3887 141.655C60.1346 141.03 60.0075 140.303 60.0075 139.473C60.0075 138.654 60.1366 137.927 60.3946 137.292C60.6527 136.658 61.0031 136.124 61.4459 135.688C61.8866 135.255 62.3998 134.923 62.9855 134.693C63.5712 134.463 64.1866 134.348 64.8318 134.348C65.5466 134.348 66.165 134.475 66.6871 134.729C67.2073 134.985 67.6411 135.288 67.9885 135.637L66.6484 137.286C66.4102 137.076 66.16 136.903 65.898 136.767C65.6339 136.633 65.3083 136.566 64.9212 136.566C64.5936 136.566 64.2908 136.631 64.0129 136.761C63.735 136.891 63.4917 137.076 63.2833 137.315C63.0748 137.555 62.914 137.85 62.8009 138.2C62.6857 138.549 62.6281 138.944 62.6281 139.383C62.6281 140.303 62.8316 141.007 63.2386 141.496C63.6456 141.986 64.2859 142.231 65.1594 142.231C65.2984 142.231 65.4354 142.216 65.5704 142.186C65.7034 142.156 65.8146 142.111 65.9039 142.051V140.702H64.4745V138.604H68.1672V143.25C67.8198 143.579 67.3582 143.861 66.7824 144.095C66.2067 144.33 65.5763 144.448 64.8914 144.448ZM72.3959 139.533L72.2321 140.208H74.0189L73.8551 139.533C73.736 139.064 73.6169 138.554 73.4978 138.005C73.3787 137.455 73.2595 136.936 73.1404 136.446H73.0809C72.9717 136.946 72.8595 137.467 72.7443 138.011C72.6312 138.556 72.515 139.064 72.3959 139.533ZM71.2941 144.269H68.6734L71.6216 134.528H74.7187L77.667 144.269H74.957L74.4805 142.201H71.7705L71.2941 144.269ZM80.8832 144.269H78.5871V134.528H81.3299L82.7891 138.514C82.8784 138.784 82.9628 139.064 83.0422 139.353C83.1216 139.643 83.206 139.933 83.2953 140.223H83.3519C83.4432 139.933 83.5286 139.643 83.608 139.353C83.6855 139.064 83.7698 138.784 83.8612 138.514L85.2608 134.528H88.0006V144.269H85.6777V141.391C85.6777 141.142 85.6896 140.867 85.7135 140.567C85.7393 140.268 85.7671 139.96 85.7968 139.644C85.8266 139.33 85.8614 139.024 85.9011 138.724C85.9388 138.424 85.9735 138.155 86.0053 137.915H85.9457L85.1387 140.253L83.9475 143.474H82.5806L81.3894 140.253L80.6152 137.915H80.5556C80.5834 138.155 80.6181 138.424 80.6598 138.724C80.6995 139.024 80.7343 139.33 80.7641 139.644C80.7938 139.96 80.8206 140.268 80.8445 140.567C80.8703 140.867 80.8832 141.142 80.8832 141.391V144.269ZM96.5444 144.269H90.1417V134.528H96.3955V136.686H92.7028V138.215H95.8595V140.372H92.7028V142.111H96.5444V144.269ZM100.862 144.269H98.4205V134.528H101.041L103.185 138.874L104.108 141.062H104.168C104.138 140.802 104.104 140.517 104.064 140.208C104.024 139.898 103.989 139.58 103.96 139.255C103.93 138.931 103.903 138.606 103.879 138.281C103.853 137.957 103.84 137.645 103.84 137.345V134.528H106.282V144.269H103.662L101.518 139.908L100.594 137.735H100.535C100.594 138.295 100.664 138.904 100.743 139.563C100.823 140.223 100.862 140.852 100.862 141.451V144.269ZM110.988 144.269H108.427V134.528H110.988V144.269ZM117.599 144.448C116.924 144.448 116.288 144.345 115.693 144.14C115.097 143.936 114.578 143.626 114.135 143.211C113.695 142.797 113.347 142.279 113.093 141.655C112.841 141.03 112.715 140.303 112.715 139.473C112.715 138.654 112.844 137.927 113.102 137.292C113.36 136.658 113.709 136.124 114.15 135.688C114.593 135.255 115.107 134.923 115.693 134.693C116.278 134.463 116.894 134.348 117.539 134.348C118.254 134.348 118.871 134.475 119.391 134.729C119.914 134.985 120.348 135.288 120.696 135.637L119.356 137.286C119.118 137.076 118.866 136.903 118.602 136.767C118.34 136.633 118.016 136.566 117.629 136.566C117.301 136.566 116.998 136.631 116.72 136.761C116.442 136.891 116.199 137.076 115.991 137.315C115.782 137.555 115.62 137.85 115.505 138.2C115.392 138.549 115.335 138.944 115.335 139.383C115.335 140.303 115.539 141.007 115.946 141.496C116.353 141.986 116.993 142.231 117.867 142.231C118.006 142.231 118.142 142.216 118.275 142.186C118.41 142.156 118.522 142.111 118.611 142.051V140.702H117.182V138.604H120.875V143.25C120.527 143.579 120.065 143.861 119.49 144.095C118.914 144.33 118.284 144.448 117.599 144.448ZM125.309 144.269H122.748V134.528H125.309V138.155H128.197V134.528H130.758V144.269H128.197V140.402H125.309V144.269ZM137.31 144.269H134.749V136.686H132.188V134.528H139.871V136.686H137.31V144.269Z" fill="#475569"/>
</g>
</g>
</g>
</g>
</g>
</g>
</g>
<mask id="mask0_139_8520" style="mask-type:luminance" maskUnits="userSpaceOnUse" x="50" y="101" width="103" height="80">
<path d="M153 101H49.9999V181H153V101Z" fill="white"/>
<path d="M143.868 131.964H56.0112V146.833H143.868V131.964Z" fill="black"/>
</mask>
<g mask="url(#mask0_139_8520)">
<g clip-path="url(#clip16_139_8520)">
<path d="M113.541 154.678C111.348 153.115 111.166 152.288 111.166 151.096C111.166 149.905 110.801 148.797 109.888 147.878C108.979 146.96 107.513 144.016 107.513 136.569C107.513 129.121 109.707 124.619 109.707 124.619H114.914C114.914 124.619 116.373 111.93 117.652 108.437H110.894C110.894 108.437 110.438 111.748 110.438 113.587H107.697V108.254H101.577V113.496H98.2494V108.254H92.1269V113.587H89.3887C89.3887 111.748 88.9357 108.438 88.9357 108.438H82.172C83.4532 111.931 84.9132 124.62 84.9132 124.62H90.1203C90.1203 124.62 92.3144 129.123 92.3144 136.569C92.3144 144.016 90.8519 146.96 89.939 147.879C89.026 148.798 88.6578 149.905 88.6578 151.097C88.6578 152.288 88.4764 153.116 86.2823 154.679C84.0944 156.242 81.8068 157.714 81.8068 160.196C81.8068 162.678 84.1854 162.866 85.1887 162.866H114.639C115.642 162.866 118.021 162.678 118.021 160.196C118.021 157.714 115.732 156.242 113.541 154.678Z" fill="#475569"/>
<path d="M82.0816 170.543C81.5006 170.543 80.9432 170.312 80.5318 169.899C80.1205 169.486 79.8889 168.926 79.8881 168.341C79.8881 167.755 80.1192 167.194 80.5305 166.78C80.9419 166.366 81.4998 166.133 82.0816 166.133H117.796C118.085 166.132 118.37 166.189 118.637 166.3C118.903 166.411 119.145 166.573 119.349 166.779C119.553 166.984 119.714 167.227 119.824 167.495C119.935 167.763 119.991 168.051 119.991 168.341C119.991 168.63 119.934 168.917 119.823 169.185C119.713 169.452 119.551 169.695 119.347 169.9C119.144 170.104 118.902 170.266 118.636 170.377C118.369 170.487 118.084 170.543 117.796 170.543H82.0816Z" fill="#475569"/>
</g>
</g>
</g>
</g>
</g>
</g>
</g>
<rect x="2" y="2" width="196" height="274" rx="14" stroke="#475569" stroke-width="4"/>
<defs>
<clipPath id="clip0_139_8520">
<rect width="200" height="278" rx="16" fill="white"/>
</clipPath>
<clipPath id="clip1_139_8520">
<rect width="40" height="40" fill="white" transform="translate(9.42151 26.3262) rotate(-25)"/>
</clipPath>
<clipPath id="clip2_139_8520">
<rect width="40" height="40" fill="white" transform="translate(154.326 9.42001) rotate(25)"/>
</clipPath>
<clipPath id="clip3_139_8520">
<rect width="40" height="40" fill="white" transform="translate(190.578 251.674) rotate(155)"/>
</clipPath>
<clipPath id="clip4_139_8520">
<rect width="40" height="40" fill="white" transform="translate(45.6738 268.58) rotate(-155)"/>
</clipPath>
<clipPath id="clip5_139_8520">
<rect width="100" height="63" fill="white" transform="translate(50 108)"/>
</clipPath>
<clipPath id="clip6_139_8520">
<rect width="100" height="63" fill="white" transform="translate(49.9394 107.898)"/>
</clipPath>
<clipPath id="clip7_139_8520">
<rect width="99.8369" height="62.7968" fill="white" transform="translate(50.0209 108)"/>
</clipPath>
<clipPath id="clip8_139_8520">
<rect width="99.8369" height="62.7968" fill="white" transform="translate(50.0209 108)"/>
</clipPath>
<clipPath id="clip9_139_8520">
<rect width="79.8695" height="10.0999" fill="white" transform="translate(60.0046 134.348)"/>
</clipPath>
<clipPath id="clip10_139_8520">
<rect width="79.8695" height="10.0999" fill="white" transform="translate(60.0046 134.348)"/>
</clipPath>
<clipPath id="clip11_139_8520">
<rect width="79.8695" height="10.0999" fill="white" transform="translate(60.0046 134.348)"/>
</clipPath>
<clipPath id="clip12_139_8520">
<rect width="79.8695" height="10.0999" fill="white" transform="translate(60.0046 134.348)"/>
</clipPath>
<clipPath id="clip13_139_8520">
<rect width="79.8695" height="10.0999" fill="white" transform="translate(60.0046 134.348)"/>
</clipPath>
<clipPath id="clip14_139_8520">
<rect width="79.8695" height="10.0999" fill="white" transform="translate(60.0046 134.348)"/>
</clipPath>
<clipPath id="clip15_139_8520">
<rect width="79.8695" height="10.0999" fill="white" transform="translate(60.0046 134.348)"/>
</clipPath>
<clipPath id="clip16_139_8520">
<rect width="40.1025" height="62.2887" fill="white" transform="translate(79.8881 108.254)"/>
</clipPath>
</defs>
</svg>
