<svg width="200" height="278" viewBox="0 0 200 278" fill="none" xmlns="http://www.w3.org/2000/svg">
<g clip-path="url(#clip0_139_7796)">
<rect width="200" height="278" rx="16" fill="#334155"/>
<path d="M156.802 54V19.992H162.834V35.436H162.99L175.106 19.992H181.814L171.362 33.252L183.582 54H176.926L167.722 37.984L162.834 44.068V54H156.802Z" fill="#FEF08A"/>
<path d="M27.2 31.0833C26.8015 29.7172 26.7266 28.277 26.9812 26.8769C27.2358 25.4767 27.8128 24.1551 28.6667 23.0166C29.5205 21.8782 30.6277 20.9541 31.9005 20.3177C33.1734 19.6813 34.5769 19.35 36 19.35C37.4231 19.35 38.8266 19.6813 40.0995 20.3177C41.3723 20.9541 42.4795 21.8782 43.3333 23.0166C44.1872 24.1551 44.7642 25.4767 45.0188 26.8769C45.2734 28.277 45.1985 29.7172 44.8 31.0833C46.3034 31.2994 47.7295 31.8857 48.9501 32.7894C50.1708 33.6932 51.1478 34.8861 51.7933 36.2609C52.4388 37.6357 52.7326 39.1494 52.6482 40.6658C52.5638 42.1823 52.104 43.654 51.31 44.9488C50.516 46.2435 49.4128 47.3207 48.0994 48.0835C46.786 48.8463 45.3037 49.2707 43.7856 49.3188C42.2676 49.3668 40.7614 49.0369 39.4024 48.3587C38.0434 47.6805 36.8743 46.6753 36 45.4333C35.1279 46.6786 33.9598 47.6875 32.6008 48.3691C31.2418 49.0507 29.7347 49.3836 28.215 49.3377C26.6954 49.2919 25.211 48.8688 23.8956 48.1066C22.5801 47.3444 21.4749 46.267 20.6795 44.9713C19.884 43.6757 19.4233 42.2026 19.3388 40.6846C19.2543 39.1666 19.5487 37.6515 20.1955 36.2756C20.8423 34.8997 21.8211 33.7063 23.0438 32.8028C24.2666 31.8993 25.6948 31.3141 27.2 31.1V31.0833Z" fill="#FEF08A"/>
<path d="M36 45.4333V52.6666V45.4333Z" fill="#FEF08A"/>
<path d="M36 45.4333C36.8743 46.6753 38.0434 47.6805 39.4024 48.3587C40.7614 49.0369 42.2676 49.3668 43.7856 49.3188C45.3037 49.2707 46.786 48.8463 48.0994 48.0835C49.4128 47.3207 50.516 46.2435 51.31 44.9488C52.104 43.654 52.5638 42.1823 52.6482 40.6658C52.7326 39.1494 52.4388 37.6357 51.7933 36.2609C51.1478 34.8861 50.1708 33.6932 48.9501 32.7894C47.7295 31.8857 46.3034 31.2994 44.8 31.0833C45.1985 29.7172 45.2734 28.277 45.0188 26.8769C44.7642 25.4767 44.1872 24.1551 43.3333 23.0166C42.4795 21.8782 41.3723 20.9541 40.0995 20.3177C38.8266 19.6813 37.4231 19.35 36 19.35C34.5769 19.35 33.1734 19.6813 31.9005 20.3177C30.6277 20.9541 29.5205 21.8782 28.6667 23.0166C27.8128 24.1551 27.2358 25.4767 26.9812 26.8769C26.7266 28.277 26.8015 29.7172 27.2 31.0833V31.1C25.6948 31.3141 24.2666 31.8993 23.0438 32.8028C21.8211 33.7063 20.8423 34.8997 20.1955 36.2756C19.5487 37.6515 19.2543 39.1666 19.3388 40.6846C19.4233 42.2026 19.884 43.6757 20.6795 44.9713C21.4749 46.267 22.5801 47.3444 23.8956 48.1066C25.211 48.8688 26.6954 49.2919 28.215 49.3377C29.7347 49.3836 31.2418 49.0507 32.6008 48.3691C33.9598 47.6875 35.1279 46.6787 36 45.4333ZM36 45.4333V52.6666" stroke="#FEF08A" stroke-width="4" stroke-linecap="round" stroke-linejoin="round"/>
<path d="M36.73 65.4434C36.658 65.3127 36.5524 65.2038 36.424 65.1279C36.2956 65.052 36.1491 65.012 36 65.012C35.8508 65.012 35.7044 65.052 35.576 65.1279C35.4476 65.2038 35.3419 65.3127 35.27 65.4434L30.35 74.7834C30.2327 74.9996 30.0689 75.1873 29.8705 75.3327C29.672 75.4782 29.4439 75.578 29.2023 75.6248C28.9608 75.6716 28.7118 75.6644 28.4734 75.6037C28.235 75.5429 28.013 75.4301 27.8233 75.2734L20.695 69.1667C20.5581 69.0554 20.3895 68.9904 20.2134 68.981C20.0372 68.9717 19.8627 69.0184 19.7148 69.1146C19.567 69.2108 19.4534 69.3514 19.3906 69.5162C19.3277 69.681 19.3187 69.8615 19.365 70.0317L24.0883 87.1084C24.1847 87.4578 24.3924 87.7663 24.68 87.9871C24.9675 88.2078 25.3192 88.3288 25.6817 88.3317H46.3167C46.6794 88.3292 47.0315 88.2083 47.3193 87.9876C47.6072 87.7668 47.8152 87.4581 47.9117 87.1084L52.6333 70.0334C52.6796 69.8632 52.6706 69.6827 52.6077 69.5179C52.5449 69.3531 52.4313 69.2124 52.2835 69.1163C52.1356 69.0201 51.9611 68.9733 51.7849 68.9827C51.6088 68.9921 51.4402 69.0571 51.3033 69.1684L44.1767 75.275C43.987 75.4318 43.765 75.5446 43.5265 75.6053C43.2881 75.6661 43.0392 75.6733 42.7977 75.6265C42.5561 75.5796 42.3279 75.4799 42.1295 75.3344C41.9311 75.1889 41.7673 75.0013 41.65 74.785L36.73 65.4434Z" fill="#FEF08A"/>
<path d="M47.6667 95H24.3333H47.6667Z" fill="#FEF08A"/>
<path d="M47.6667 95H24.3333M36.73 65.4434C36.658 65.3127 36.5524 65.2038 36.424 65.1279C36.2956 65.052 36.1491 65.012 36 65.012C35.8508 65.012 35.7044 65.052 35.576 65.1279C35.4476 65.2038 35.3419 65.3127 35.27 65.4434L30.35 74.7834C30.2327 74.9996 30.0689 75.1873 29.8705 75.3327C29.672 75.4782 29.4439 75.578 29.2023 75.6248C28.9608 75.6716 28.7118 75.6644 28.4734 75.6037C28.235 75.5429 28.013 75.4301 27.8233 75.2734L20.695 69.1667C20.5581 69.0554 20.3895 68.9904 20.2134 68.981C20.0372 68.9717 19.8627 69.0184 19.7148 69.1146C19.567 69.2108 19.4534 69.3514 19.3906 69.5162C19.3277 69.681 19.3187 69.8615 19.365 70.0317L24.0883 87.1084C24.1847 87.4578 24.3924 87.7663 24.68 87.9871C24.9675 88.2078 25.3192 88.3288 25.6817 88.3317H46.3167C46.6794 88.3292 47.0315 88.2083 47.3193 87.9876C47.6072 87.7668 47.8152 87.4581 47.9117 87.1084L52.6333 70.0334C52.6796 69.8632 52.6706 69.6827 52.6077 69.5179C52.5449 69.3531 52.4313 69.2124 52.2835 69.1163C52.1356 69.0201 51.9611 68.9733 51.7849 68.9827C51.6088 68.9921 51.4402 69.0571 51.3033 69.1684L44.1767 75.275C43.987 75.4318 43.765 75.5446 43.5265 75.6053C43.2881 75.6661 43.0392 75.6733 42.7977 75.6265C42.5561 75.5796 42.3279 75.4799 42.1295 75.3344C41.9311 75.1889 41.7673 75.0013 41.65 74.785L36.73 65.4434Z" stroke="#FEF08A" stroke-width="4" stroke-linecap="round" stroke-linejoin="round"/>
<path d="M43.1977 224V258.008H37.1657V242.564H37.0097L24.8937 258.008H18.1857L28.6377 244.748L16.4177 224H23.0737L32.2777 240.016L37.1657 233.932V224H43.1977Z" fill="#FEF08A"/>
<path d="M172.8 246.917C173.198 248.283 173.273 249.723 173.019 251.123C172.764 252.523 172.187 253.845 171.333 254.983C170.479 256.122 169.372 257.046 168.099 257.682C166.827 258.319 165.423 258.65 164 258.65C162.577 258.65 161.173 258.319 159.901 257.682C158.628 257.046 157.521 256.122 156.667 254.983C155.813 253.845 155.236 252.523 154.981 251.123C154.727 249.723 154.802 248.283 155.2 246.917C153.697 246.701 152.271 246.114 151.05 245.211C149.829 244.307 148.852 243.114 148.207 241.739C147.561 240.364 147.267 238.851 147.352 237.334C147.436 235.818 147.896 234.346 148.69 233.051C149.484 231.756 150.587 230.679 151.901 229.917C153.214 229.154 154.696 228.729 156.214 228.681C157.732 228.633 159.239 228.963 160.598 229.641C161.957 230.319 163.126 231.325 164 232.567C164.872 231.321 166.04 230.312 167.399 229.631C168.758 228.949 170.265 228.616 171.785 228.662C173.305 228.708 174.789 229.131 176.104 229.893C177.42 230.656 178.525 231.733 179.321 233.029C180.116 234.324 180.577 235.797 180.661 237.315C180.746 238.833 180.451 240.349 179.805 241.724C179.158 243.1 178.179 244.294 176.956 245.197C175.733 246.101 174.305 246.686 172.8 246.9V246.917Z" fill="#FEF08A"/>
<path d="M164 232.567V225.333V232.567Z" fill="#FEF08A"/>
<path d="M164 232.567C163.126 231.325 161.957 230.319 160.598 229.641C159.239 228.963 157.732 228.633 156.214 228.681C154.696 228.729 153.214 229.154 151.901 229.917C150.587 230.679 149.484 231.756 148.69 233.051C147.896 234.346 147.436 235.818 147.352 237.334C147.267 238.851 147.561 240.364 148.207 241.739C148.852 243.114 149.829 244.307 151.05 245.211C152.271 246.114 153.697 246.701 155.2 246.917C154.802 248.283 154.727 249.723 154.981 251.123C155.236 252.523 155.813 253.845 156.667 254.983C157.521 256.122 158.628 257.046 159.901 257.682C161.173 258.319 162.577 258.65 164 258.65C165.423 258.65 166.827 258.319 168.099 257.682C169.372 257.046 170.479 256.122 171.333 254.983C172.187 253.845 172.764 252.523 173.019 251.123C173.273 249.723 173.198 248.283 172.8 246.917V246.9C174.305 246.686 175.733 246.101 176.956 245.197C178.179 244.294 179.158 243.1 179.805 241.724C180.451 240.349 180.746 238.833 180.661 237.315C180.577 235.797 180.116 234.324 179.321 233.029C178.525 231.733 177.42 230.656 176.104 229.893C174.789 229.131 173.305 228.708 171.785 228.662C170.265 228.616 168.758 228.949 167.399 229.631C166.04 230.312 164.872 231.321 164 232.567ZM164 232.567V225.333" stroke="#FEF08A" stroke-width="4" stroke-linecap="round" stroke-linejoin="round"/>
<path d="M163.27 212.557C163.342 212.687 163.448 212.796 163.576 212.872C163.704 212.948 163.851 212.988 164 212.988C164.149 212.988 164.296 212.948 164.424 212.872C164.552 212.796 164.658 212.687 164.73 212.557L169.65 203.217C169.767 203 169.931 202.813 170.13 202.667C170.328 202.522 170.556 202.422 170.798 202.375C171.039 202.328 171.288 202.336 171.527 202.396C171.765 202.457 171.987 202.57 172.177 202.727L179.305 208.833C179.442 208.945 179.61 209.01 179.787 209.019C179.963 209.028 180.137 208.982 180.285 208.885C180.433 208.789 180.547 208.649 180.609 208.484C180.672 208.319 180.681 208.139 180.635 207.968L175.912 190.892C175.815 190.542 175.608 190.234 175.32 190.013C175.033 189.792 174.681 189.671 174.318 189.668H153.683C153.321 189.671 152.969 189.792 152.681 190.012C152.393 190.233 152.185 190.542 152.088 190.892L147.367 207.967C147.32 208.137 147.329 208.317 147.392 208.482C147.455 208.647 147.569 208.788 147.717 208.884C147.864 208.98 148.039 209.027 148.215 209.017C148.391 209.008 148.56 208.943 148.697 208.832L155.823 202.725C156.013 202.568 156.235 202.455 156.473 202.395C156.712 202.334 156.961 202.327 157.202 202.374C157.444 202.42 157.672 202.52 157.871 202.666C158.069 202.811 158.233 202.999 158.35 203.215L163.27 212.557Z" fill="#FEF08A"/>
<path d="M152.333 183H175.667H152.333Z" fill="#FEF08A"/>
<path d="M152.333 183H175.667M163.27 212.557C163.342 212.687 163.448 212.796 163.576 212.872C163.704 212.948 163.851 212.988 164 212.988C164.149 212.988 164.296 212.948 164.424 212.872C164.552 212.796 164.658 212.687 164.73 212.557L169.65 203.217C169.767 203 169.931 202.813 170.13 202.667C170.328 202.522 170.556 202.422 170.798 202.375C171.039 202.328 171.288 202.336 171.527 202.396C171.765 202.457 171.987 202.57 172.177 202.727L179.305 208.833C179.442 208.945 179.61 209.01 179.787 209.019C179.963 209.028 180.137 208.982 180.285 208.885C180.433 208.789 180.547 208.649 180.609 208.484C180.672 208.319 180.681 208.139 180.635 207.968L175.912 190.892C175.815 190.542 175.608 190.234 175.32 190.013C175.033 189.792 174.681 189.671 174.318 189.668H153.683C153.321 189.671 152.969 189.792 152.681 190.012C152.393 190.233 152.185 190.542 152.088 190.892L147.367 207.967C147.32 208.137 147.329 208.317 147.392 208.482C147.455 208.647 147.569 208.788 147.717 208.884C147.864 208.98 148.039 209.027 148.215 209.017C148.391 209.008 148.56 208.943 148.697 208.832L155.823 202.725C156.013 202.568 156.235 202.455 156.473 202.395C156.712 202.334 156.961 202.327 157.202 202.374C157.444 202.42 157.672 202.52 157.871 202.666C158.069 202.811 158.233 202.999 158.35 203.215L163.27 212.557Z" stroke="#FEF08A" stroke-width="4" stroke-linecap="round" stroke-linejoin="round"/>
<g clip-path="url(#clip1_139_7796)">
<g clip-path="url(#clip2_139_7796)">
<g clip-path="url(#clip3_139_7796)">
<g clip-path="url(#clip4_139_7796)">
<g clip-path="url(#clip5_139_7796)">
<g clip-path="url(#clip6_139_7796)">
<g clip-path="url(#clip7_139_7796)">
<g clip-path="url(#clip8_139_7796)">
<g clip-path="url(#clip9_139_7796)">
<g clip-path="url(#clip10_139_7796)">
<g clip-path="url(#clip11_139_7796)">
<path d="M64.8914 144.448C64.2164 144.448 63.5811 144.345 62.9855 144.14C62.3899 143.936 61.8717 143.626 61.431 143.211C60.9883 142.797 60.6408 142.278 60.3887 141.655C60.1346 141.03 60.0075 140.302 60.0075 139.473C60.0075 138.654 60.1366 137.927 60.3946 137.291C60.6527 136.658 61.0031 136.124 61.4459 135.688C61.8866 135.254 62.3998 134.923 62.9855 134.693C63.5712 134.463 64.1866 134.348 64.8318 134.348C65.5466 134.348 66.165 134.475 66.6871 134.729C67.2073 134.985 67.6411 135.287 67.9885 135.637L66.6484 137.285C66.4102 137.076 66.16 136.903 65.898 136.767C65.6339 136.633 65.3083 136.566 64.9212 136.566C64.5936 136.566 64.2908 136.631 64.0129 136.761C63.735 136.891 63.4917 137.076 63.2833 137.315C63.0748 137.555 62.914 137.85 62.8009 138.2C62.6857 138.549 62.6281 138.944 62.6281 139.383C62.6281 140.302 62.8316 141.007 63.2386 141.496C63.6456 141.986 64.2859 142.231 65.1594 142.231C65.2984 142.231 65.4354 142.216 65.5704 142.186C65.7034 142.156 65.8146 142.111 65.9039 142.051V140.702H64.4745V138.604H68.1672V143.25C67.8198 143.579 67.3582 143.861 66.7824 144.095C66.2067 144.33 65.5763 144.448 64.8914 144.448ZM72.3959 139.533L72.2321 140.208H74.0189L73.8551 139.533C73.736 139.064 73.6169 138.554 73.4978 138.005C73.3787 137.455 73.2595 136.936 73.1404 136.446H73.0809C72.9717 136.946 72.8595 137.467 72.7443 138.011C72.6312 138.556 72.515 139.064 72.3959 139.533ZM71.2941 144.268H68.6734L71.6216 134.528H74.7187L77.667 144.268H74.957L74.4805 142.201H71.7705L71.2941 144.268ZM80.8832 144.268H78.5871V134.528H81.3299L82.7891 138.514C82.8784 138.784 82.9628 139.064 83.0422 139.353C83.1216 139.643 83.206 139.933 83.2953 140.223H83.3519C83.4432 139.933 83.5286 139.643 83.608 139.353C83.6855 139.064 83.7698 138.784 83.8612 138.514L85.2608 134.528H88.0006V144.268H85.6777V141.391C85.6777 141.142 85.6896 140.867 85.7135 140.567C85.7393 140.267 85.7671 139.96 85.7968 139.644C85.8266 139.33 85.8614 139.024 85.9011 138.724C85.9388 138.424 85.9735 138.155 86.0053 137.915H85.9457L85.1387 140.253L83.9475 143.474H82.5806L81.3894 140.253L80.6152 137.915H80.5556C80.5834 138.155 80.6181 138.424 80.6598 138.724C80.6995 139.024 80.7343 139.33 80.7641 139.644C80.7938 139.96 80.8206 140.267 80.8445 140.567C80.8703 140.867 80.8832 141.142 80.8832 141.391V144.268ZM96.5444 144.268H90.1417V134.528H96.3955V136.686H92.7028V138.215H95.8595V140.372H92.7028V142.111H96.5444V144.268ZM100.862 144.268H98.4205V134.528H101.041L103.185 138.874L104.108 141.062H104.168C104.138 140.802 104.104 140.517 104.064 140.208C104.024 139.898 103.989 139.58 103.96 139.254C103.93 138.931 103.903 138.606 103.879 138.28C103.853 137.957 103.84 137.645 103.84 137.345V134.528H106.282V144.268H103.662L101.518 139.908L100.594 137.735H100.535C100.594 138.294 100.664 138.904 100.743 139.563C100.823 140.223 100.862 140.852 100.862 141.451V144.268ZM110.988 144.268H108.427V134.528H110.988V144.268ZM117.599 144.448C116.924 144.448 116.288 144.345 115.693 144.14C115.097 143.936 114.578 143.626 114.135 143.211C113.695 142.797 113.347 142.278 113.093 141.655C112.841 141.03 112.715 140.302 112.715 139.473C112.715 138.654 112.844 137.927 113.102 137.291C113.36 136.658 113.709 136.124 114.15 135.688C114.593 135.254 115.107 134.923 115.693 134.693C116.278 134.463 116.894 134.348 117.539 134.348C118.254 134.348 118.871 134.475 119.391 134.729C119.914 134.985 120.348 135.287 120.696 135.637L119.356 137.285C119.118 137.076 118.866 136.903 118.602 136.767C118.34 136.633 118.016 136.566 117.629 136.566C117.301 136.566 116.998 136.631 116.72 136.761C116.442 136.891 116.199 137.076 115.991 137.315C115.782 137.555 115.62 137.85 115.505 138.2C115.392 138.549 115.335 138.944 115.335 139.383C115.335 140.302 115.539 141.007 115.946 141.496C116.353 141.986 116.993 142.231 117.867 142.231C118.006 142.231 118.142 142.216 118.275 142.186C118.41 142.156 118.522 142.111 118.611 142.051V140.702H117.182V138.604H120.875V143.25C120.527 143.579 120.065 143.861 119.49 144.095C118.914 144.33 118.284 144.448 117.599 144.448ZM125.309 144.268H122.748V134.528H125.309V138.155H128.197V134.528H130.758V144.268H128.197V140.402H125.309V144.268ZM137.31 144.268H134.749V136.686H132.188V134.528H139.871V136.686H137.31V144.268Z" fill="#475569"/>
</g>
</g>
</g>
</g>
</g>
</g>
</g>
<mask id="mask0_139_7796" style="mask-type:luminance" maskUnits="userSpaceOnUse" x="50" y="101" width="103" height="80">
<path d="M153 101H49.9999V181H153V101Z" fill="white"/>
<path d="M143.868 131.964H56.0111V146.833H143.868V131.964Z" fill="black"/>
</mask>
<g mask="url(#mask0_139_7796)">
<g clip-path="url(#clip12_139_7796)">
<path d="M113.541 154.678C111.348 153.115 111.167 152.288 111.167 151.096C111.167 149.905 110.801 148.797 109.888 147.878C108.979 146.96 107.513 144.016 107.513 136.569C107.513 129.121 109.707 124.619 109.707 124.619H114.914C114.914 124.619 116.373 111.93 117.652 108.437H110.894C110.894 108.437 110.438 111.748 110.438 113.587H107.697V108.254H101.577V113.496H98.2494V108.254H92.1269V113.587H89.3888C89.3888 111.748 88.9357 108.438 88.9357 108.438H82.172C83.4532 111.931 84.9133 124.62 84.9133 124.62H90.1204C90.1204 124.62 92.3145 129.123 92.3145 136.569C92.3145 144.016 90.8519 146.96 89.939 147.879C89.0261 148.798 88.6578 149.905 88.6578 151.097C88.6578 152.288 88.4765 153.116 86.2824 154.679C84.0944 156.242 81.8069 157.714 81.8069 160.196C81.8069 162.678 84.1854 162.866 85.1887 162.866H114.639C115.642 162.866 118.021 162.678 118.021 160.196C118.021 157.714 115.732 156.242 113.541 154.678Z" fill="#475569"/>
<path d="M82.0816 170.543C81.5007 170.543 80.9432 170.312 80.5319 169.899C80.1205 169.486 79.889 168.926 79.8882 168.341C79.8882 167.755 80.1192 167.194 80.5306 166.78C80.9419 166.366 81.4998 166.133 82.0816 166.133H117.797C118.085 166.132 118.37 166.189 118.637 166.3C118.903 166.411 119.145 166.573 119.349 166.779C119.553 166.984 119.714 167.227 119.824 167.495C119.935 167.763 119.991 168.051 119.991 168.341C119.991 168.63 119.934 168.917 119.823 169.185C119.713 169.452 119.551 169.695 119.347 169.9C119.144 170.104 118.902 170.266 118.636 170.377C118.369 170.487 118.084 170.543 117.797 170.543H82.0816Z" fill="#475569"/>
</g>
</g>
</g>
</g>
</g>
</g>
</g>
<rect x="2" y="2" width="196" height="274" rx="14" stroke="#475569" stroke-width="4"/>
<defs>
<clipPath id="clip0_139_7796">
<rect width="200" height="278" rx="16" fill="white"/>
</clipPath>
<clipPath id="clip1_139_7796">
<rect width="100" height="63" fill="white" transform="translate(50 108)"/>
</clipPath>
<clipPath id="clip2_139_7796">
<rect width="100" height="63" fill="white" transform="translate(49.9394 107.898)"/>
</clipPath>
<clipPath id="clip3_139_7796">
<rect width="99.8369" height="62.7968" fill="white" transform="translate(50.0209 108)"/>
</clipPath>
<clipPath id="clip4_139_7796">
<rect width="99.8369" height="62.7968" fill="white" transform="translate(50.0209 108)"/>
</clipPath>
<clipPath id="clip5_139_7796">
<rect width="79.8695" height="10.0999" fill="white" transform="translate(60.0046 134.348)"/>
</clipPath>
<clipPath id="clip6_139_7796">
<rect width="79.8695" height="10.0999" fill="white" transform="translate(60.0046 134.348)"/>
</clipPath>
<clipPath id="clip7_139_7796">
<rect width="79.8695" height="10.0999" fill="white" transform="translate(60.0046 134.348)"/>
</clipPath>
<clipPath id="clip8_139_7796">
<rect width="79.8695" height="10.0999" fill="white" transform="translate(60.0046 134.348)"/>
</clipPath>
<clipPath id="clip9_139_7796">
<rect width="79.8695" height="10.0999" fill="white" transform="translate(60.0046 134.348)"/>
</clipPath>
<clipPath id="clip10_139_7796">
<rect width="79.8695" height="10.0999" fill="white" transform="translate(60.0046 134.348)"/>
</clipPath>
<clipPath id="clip11_139_7796">
<rect width="79.8695" height="10.0999" fill="white" transform="translate(60.0046 134.348)"/>
</clipPath>
<clipPath id="clip12_139_7796">
<rect width="40.1025" height="62.2887" fill="white" transform="translate(79.8882 108.254)"/>
</clipPath>
</defs>
</svg>
