<svg width="200" height="278" viewBox="0 0 200 278" fill="none" xmlns="http://www.w3.org/2000/svg">
<g clip-path="url(#clip0_139_8133)">
<rect width="200" height="278" rx="16" fill="#334155"/>
<path d="M20.5 103.167C20.1266 103.54 19.8303 103.983 19.6282 104.47C19.4261 104.958 19.3221 105.48 19.3221 106.008C19.3221 106.536 19.4261 107.059 19.6282 107.546C19.8303 108.034 20.1266 108.477 20.5 108.85L33.15 121.5C33.523 121.873 33.966 122.17 34.4536 122.372C34.9412 122.574 35.4638 122.678 35.9917 122.678C36.5195 122.678 37.0421 122.574 37.5297 122.372C38.0173 122.17 38.4603 121.873 38.8333 121.5L51.4833 108.85C51.8567 108.477 52.153 108.034 52.3551 107.546C52.5572 107.059 52.6612 106.536 52.6612 106.008C52.6612 105.48 52.5572 104.958 52.3551 104.47C52.153 103.983 51.8567 103.54 51.4833 103.167L38.8333 90.5167C38.4603 90.1432 38.0173 89.847 37.5297 89.6449C37.0421 89.4428 36.5195 89.3387 35.9917 89.3387C35.4638 89.3387 34.9412 89.4428 34.4536 89.6449C33.966 89.847 33.523 90.1432 33.15 90.5167L20.5 103.167Z" fill="#38BDF8" stroke="#38BDF8" stroke-width="4" stroke-linecap="round" stroke-linejoin="round"/>
<path d="M84.5 103.167C84.1266 103.54 83.8303 103.983 83.6282 104.47C83.4261 104.958 83.3221 105.48 83.3221 106.008C83.3221 106.536 83.4261 107.059 83.6282 107.546C83.8303 108.034 84.1266 108.477 84.5 108.85L97.15 121.5C97.523 121.873 97.966 122.17 98.4536 122.372C98.9412 122.574 99.4638 122.678 99.9917 122.678C100.519 122.678 101.042 122.574 101.53 122.372C102.017 122.17 102.46 121.873 102.833 121.5L115.483 108.85C115.857 108.477 116.153 108.034 116.355 107.546C116.557 107.059 116.661 106.536 116.661 106.008C116.661 105.48 116.557 104.958 116.355 104.47C116.153 103.983 115.857 103.54 115.483 103.167L102.833 90.5167C102.46 90.1432 102.017 89.847 101.53 89.6449C101.042 89.4428 100.519 89.3387 99.9917 89.3387C99.4638 89.3387 98.9412 89.4428 98.4536 89.6449C97.966 89.847 97.523 90.1432 97.15 90.5167L84.5 103.167Z" fill="#38BDF8" stroke="#38BDF8" stroke-width="4" stroke-linecap="round" stroke-linejoin="round"/>
<path d="M148.5 103.167C148.127 103.54 147.83 103.983 147.628 104.47C147.426 104.958 147.322 105.48 147.322 106.008C147.322 106.536 147.426 107.059 147.628 107.546C147.83 108.034 148.127 108.477 148.5 108.85L161.15 121.5C161.523 121.873 161.966 122.17 162.454 122.372C162.941 122.574 163.464 122.678 163.992 122.678C164.519 122.678 165.042 122.574 165.53 122.372C166.017 122.17 166.46 121.873 166.833 121.5L179.483 108.85C179.857 108.477 180.153 108.034 180.355 107.546C180.557 107.059 180.661 106.536 180.661 106.008C180.661 105.48 180.557 104.958 180.355 104.47C180.153 103.983 179.857 103.54 179.483 103.167L166.833 90.5167C166.46 90.1432 166.017 89.847 165.53 89.6449C165.042 89.4428 164.519 89.3387 163.992 89.3387C163.464 89.3387 162.941 89.4428 162.454 89.6449C161.966 89.847 161.523 90.1432 161.15 90.5167L148.5 103.167Z" fill="#38BDF8" stroke="#38BDF8" stroke-width="4" stroke-linecap="round" stroke-linejoin="round"/>
<path d="M20.5 33.1667C20.1266 33.5397 19.8303 33.9827 19.6282 34.4703C19.4261 34.9579 19.3221 35.4805 19.3221 36.0083C19.3221 36.5361 19.4261 37.0588 19.6282 37.5464C19.8303 38.034 20.1266 38.477 20.5 38.85L33.15 51.5C33.523 51.8734 33.966 52.1696 34.4536 52.3718C34.9412 52.5739 35.4638 52.6779 35.9917 52.6779C36.5195 52.6779 37.0421 52.5739 37.5297 52.3718C38.0173 52.1696 38.4603 51.8734 38.8333 51.5L51.4833 38.85C51.8567 38.477 52.153 38.034 52.3551 37.5464C52.5572 37.0588 52.6612 36.5361 52.6612 36.0083C52.6612 35.4805 52.5572 34.9579 52.3551 34.4703C52.153 33.9827 51.8567 33.5397 51.4833 33.1667L38.8333 20.5167C38.4603 20.1432 38.0173 19.847 37.5297 19.6449C37.0421 19.4428 36.5195 19.3387 35.9917 19.3387C35.4638 19.3387 34.9412 19.4428 34.4536 19.6449C33.966 19.847 33.523 20.1432 33.15 20.5167L20.5 33.1667Z" fill="#38BDF8" stroke="#38BDF8" stroke-width="4" stroke-linecap="round" stroke-linejoin="round"/>
<path d="M148.5 33.1667C148.127 33.5397 147.83 33.9827 147.628 34.4703C147.426 34.9579 147.322 35.4805 147.322 36.0083C147.322 36.5361 147.426 37.0588 147.628 37.5464C147.83 38.034 148.127 38.477 148.5 38.85L161.15 51.5C161.523 51.8734 161.966 52.1696 162.454 52.3718C162.941 52.5739 163.464 52.6779 163.992 52.6779C164.519 52.6779 165.042 52.5739 165.53 52.3718C166.017 52.1696 166.46 51.8734 166.833 51.5L179.483 38.85C179.857 38.477 180.153 38.034 180.355 37.5464C180.557 37.0588 180.661 36.5361 180.661 36.0083C180.661 35.4805 180.557 34.9579 180.355 34.4703C180.153 33.9827 179.857 33.5397 179.483 33.1667L166.833 20.5167C166.46 20.1432 166.017 19.847 165.53 19.6449C165.042 19.4428 164.519 19.3387 163.992 19.3387C163.464 19.3387 162.941 19.4428 162.454 19.6449C161.966 19.847 161.523 20.1432 161.15 20.5167L148.5 33.1667Z" fill="#38BDF8" stroke="#38BDF8" stroke-width="4" stroke-linecap="round" stroke-linejoin="round"/>
<g clip-path="url(#clip1_139_8133)">
<g clip-path="url(#clip2_139_8133)">
<g clip-path="url(#clip3_139_8133)">
<g clip-path="url(#clip4_139_8133)">
<g clip-path="url(#clip5_139_8133)">
<g clip-path="url(#clip6_139_8133)">
<g clip-path="url(#clip7_139_8133)">
<g clip-path="url(#clip8_139_8133)">
<g clip-path="url(#clip9_139_8133)">
<g clip-path="url(#clip10_139_8133)">
<g clip-path="url(#clip11_139_8133)">
<path d="M77.4486 39.1418C77.0203 39.1418 76.6172 39.0764 76.2393 38.9458C75.8614 38.8164 75.5327 38.6198 75.253 38.3559C74.9721 38.0933 74.7517 37.7641 74.5917 37.3683C74.4305 36.9712 74.3499 36.5095 74.3499 35.983C74.3499 35.4629 74.4317 35.0011 74.5955 34.5977C74.7592 34.1956 74.9816 33.8563 75.2625 33.5797C75.5421 33.3044 75.8677 33.0938 76.2393 32.948C76.6109 32.8021 77.0014 32.7291 77.4108 32.7291C77.8643 32.7291 78.2567 32.8097 78.588 32.9708C78.918 33.1332 79.1932 33.3254 79.4137 33.5474L78.5634 34.5939C78.4122 34.4607 78.2535 34.351 78.0872 34.2647C77.9197 34.1797 77.7131 34.1372 77.4675 34.1372C77.2597 34.1372 77.0676 34.1785 76.8912 34.2609C76.7149 34.3434 76.5605 34.4607 76.4283 34.613C76.296 34.7652 76.194 34.9523 76.1222 35.1743C76.0491 35.3963 76.0126 35.6469 76.0126 35.9259C76.0126 36.5095 76.1417 36.9567 76.3999 37.2675C76.6582 37.5783 77.0644 37.7337 77.6187 37.7337C77.7068 37.7337 77.7937 37.7241 77.8794 37.7051C77.9638 37.6861 78.0343 37.6575 78.091 37.6195V36.7632H77.1841V35.4312H79.527V38.3806C79.3066 38.5899 79.0137 38.7688 78.6484 38.9172C78.2831 39.0669 77.8832 39.1418 77.4486 39.1418ZM82.2101 36.0211L82.1062 36.4492H83.2399L83.1359 36.0211C83.0604 35.723 82.9848 35.3995 82.9092 35.0506C82.8336 34.7018 82.758 34.3719 82.6825 34.0611H82.6447C82.5754 34.3783 82.5042 34.7094 82.4312 35.0544C82.3594 35.4007 82.2857 35.723 82.2101 36.0211ZM81.511 39.0276H79.8482L81.7188 32.8433H83.6839L85.5545 39.0276H83.835L83.5327 37.7146H81.8133L81.511 39.0276ZM87.5951 39.0276H86.1383V32.8433H87.8785L88.8044 35.3741C88.8611 35.5454 88.9146 35.723 88.965 35.9069C89.0154 36.0909 89.0689 36.2748 89.1256 36.4587H89.1615C89.2194 36.2748 89.2736 36.0909 89.324 35.9069C89.3731 35.723 89.4266 35.5454 89.4846 35.3741L90.3726 32.8433H92.111V39.0276H90.6372V37.2009C90.6372 37.0423 90.6447 36.8679 90.6598 36.6776C90.6762 36.4873 90.6938 36.2919 90.7127 36.0915C90.7316 35.8923 90.7537 35.6976 90.7789 35.5073C90.8028 35.317 90.8249 35.1458 90.845 34.9935H90.8072L90.2952 36.4778L89.5394 38.5233H88.6721L87.9163 36.4778L87.425 34.9935H87.3873C87.4049 35.1458 87.4269 35.317 87.4534 35.5073C87.4786 35.6976 87.5006 35.8923 87.5195 36.0915C87.5384 36.2919 87.5554 36.4873 87.5705 36.6776C87.5869 36.8679 87.5951 37.0423 87.5951 37.2009V39.0276ZM97.5319 39.0276H93.4695V32.8433H97.4374V34.2134H95.0944V35.1838H97.0973V36.5539H95.0944V37.6575H97.5319V39.0276ZM100.272 39.0276H98.7222V32.8433H100.385L101.745 35.6025L102.331 36.9915H102.369C102.35 36.8266 102.328 36.6459 102.303 36.4492C102.278 36.2526 102.256 36.0509 102.237 35.8441C102.218 35.6386 102.201 35.4325 102.186 35.2257C102.169 35.0202 102.161 34.8223 102.161 34.632V32.8433H103.71V39.0276H102.048L100.687 36.2589L100.102 34.8794H100.064C100.102 35.2346 100.146 35.6215 100.196 36.0401C100.246 36.4587 100.272 36.8583 100.272 37.2389V39.0276ZM106.696 39.0276H105.071V32.8433H106.696V39.0276ZM110.89 39.1418C110.462 39.1418 110.059 39.0764 109.681 38.9458C109.303 38.8164 108.974 38.6198 108.693 38.3559C108.413 38.0933 108.193 37.7641 108.032 37.3683C107.872 36.9712 107.792 36.5095 107.792 35.983C107.792 35.4629 107.874 35.0011 108.037 34.5977C108.201 34.1956 108.423 33.8563 108.702 33.5797C108.983 33.3044 109.31 33.0938 109.681 32.948C110.053 32.8021 110.443 32.7291 110.853 32.7291C111.306 32.7291 111.698 32.8097 112.028 32.9708C112.359 33.1332 112.635 33.3254 112.856 33.5474L112.005 34.5939C111.854 34.4607 111.695 34.351 111.527 34.2647C111.361 34.1797 111.155 34.1372 110.909 34.1372C110.702 34.1372 110.509 34.1785 110.333 34.2609C110.157 34.3434 110.002 34.4607 109.87 34.613C109.738 34.7652 109.635 34.9523 109.562 35.1743C109.49 35.3963 109.454 35.6469 109.454 35.9259C109.454 36.5095 109.584 36.9567 109.842 37.2675C110.1 37.5783 110.506 37.7337 111.061 37.7337C111.149 37.7337 111.235 37.7241 111.319 37.7051C111.405 37.6861 111.476 37.6575 111.533 37.6195V36.7632H110.626V35.4312H112.969V38.3806C112.748 38.5899 112.456 38.7688 112.09 38.9172C111.725 39.0669 111.325 39.1418 110.89 39.1418ZM115.782 39.0276H114.157V32.8433H115.782V35.1458H117.615V32.8433H119.24V39.0276H117.615V36.5729H115.782V39.0276ZM123.397 39.0276H121.772V34.2134H120.147V32.8433H125.022V34.2134H123.397V39.0276Z" fill="#475569"/>
</g>
</g>
</g>
</g>
</g>
</g>
</g>
<mask id="mask0_139_8133" style="mask-type:luminance" maskUnits="userSpaceOnUse" x="68" y="11" width="66" height="52">
<path d="M133.352 11.5555H68V62.3492H133.352V11.5555Z" fill="white"/>
<path d="M127.557 31.2153H71.814V40.6557H127.557V31.2153Z" fill="black"/>
</mask>
<g mask="url(#mask0_139_8133)">
<g clip-path="url(#clip12_139_8133)">
<path d="M108.316 45.6371C106.924 44.6444 106.809 44.1192 106.809 43.3626C106.809 42.6061 106.577 41.9029 105.998 41.3196C105.421 40.7362 104.491 38.8672 104.491 34.1388C104.491 29.4104 105.883 26.5518 105.883 26.5518H109.187C109.187 26.5518 110.113 18.4954 110.924 16.2775H106.636C106.636 16.2775 106.347 18.3795 106.347 19.547H104.608V16.1613H100.725V19.4893H98.6134V16.1613H94.7288V19.5474H92.9915C92.9915 18.3799 92.704 16.2779 92.704 16.2779H88.4126C89.2255 18.4958 90.1519 26.5522 90.1519 26.5522H93.4557C93.4557 26.5522 94.8478 29.4111 94.8478 34.1392C94.8478 38.8672 93.9199 40.7366 93.3406 41.32C92.7614 41.9033 92.5277 42.6061 92.5277 43.363C92.5277 44.1196 92.4127 44.6448 91.0205 45.6375C89.6323 46.6301 88.1809 47.5646 88.1809 49.1403C88.1809 50.7159 89.6901 50.8357 90.3266 50.8357H109.012C109.649 50.8357 111.158 50.7159 111.158 49.1403C111.158 47.5646 109.706 46.6297 108.316 45.6371Z" fill="#475569"/>
<path d="M88.3553 55.7096C87.9867 55.7101 87.633 55.563 87.372 55.3008C87.111 55.0387 86.9641 54.6828 86.9636 54.3116C86.9636 53.9398 87.1102 53.5833 87.3712 53.3204C87.6322 53.0575 87.9862 52.9097 88.3553 52.9096H111.016C111.199 52.9093 111.38 52.9454 111.549 53.0158C111.718 53.0862 111.871 53.1894 112.001 53.3197C112.13 53.4499 112.233 53.6046 112.302 53.7748C112.372 53.945 112.408 54.1274 112.408 54.3116C112.408 54.4955 112.372 54.6776 112.302 54.8475C112.232 55.0173 112.129 55.1716 112 55.3014C111.87 55.4313 111.717 55.5342 111.548 55.6042C111.379 55.6743 111.198 55.7101 111.016 55.7096H88.3553Z" fill="#475569"/>
</g>
</g>
</g>
</g>
</g>
</g>
<path d="M179.5 174.833C179.873 174.46 180.17 174.017 180.372 173.53C180.574 173.042 180.678 172.52 180.678 171.992C180.678 171.464 180.574 170.941 180.372 170.454C180.17 169.966 179.873 169.523 179.5 169.15L166.85 156.5C166.477 156.127 166.034 155.83 165.546 155.628C165.059 155.426 164.536 155.322 164.008 155.322C163.481 155.322 162.958 155.426 162.47 155.628C161.983 155.83 161.54 156.127 161.167 156.5L148.517 169.15C148.143 169.523 147.847 169.966 147.645 170.454C147.443 170.941 147.339 171.464 147.339 171.992C147.339 172.52 147.443 173.042 147.645 173.53C147.847 174.017 148.143 174.46 148.517 174.833L161.167 187.483C161.54 187.857 161.983 188.153 162.47 188.355C162.958 188.557 163.481 188.661 164.008 188.661C164.536 188.661 165.059 188.557 165.546 188.355C166.034 188.153 166.477 187.857 166.85 187.483L179.5 174.833Z" fill="#38BDF8" stroke="#38BDF8" stroke-width="4" stroke-linecap="round" stroke-linejoin="round"/>
<path d="M115.5 174.833C115.873 174.46 116.17 174.017 116.372 173.53C116.574 173.042 116.678 172.52 116.678 171.992C116.678 171.464 116.574 170.941 116.372 170.454C116.17 169.966 115.873 169.523 115.5 169.15L102.85 156.5C102.477 156.127 102.034 155.83 101.546 155.628C101.059 155.426 100.536 155.322 100.008 155.322C99.4805 155.322 98.9579 155.426 98.4703 155.628C97.9827 155.83 97.5397 156.127 97.1667 156.5L84.5167 169.15C84.1433 169.523 83.847 169.966 83.6449 170.454C83.4428 170.941 83.3388 171.464 83.3388 171.992C83.3388 172.52 83.4428 173.042 83.6449 173.53C83.847 174.017 84.1433 174.46 84.5167 174.833L97.1667 187.483C97.5397 187.857 97.9827 188.153 98.4703 188.355C98.9579 188.557 99.4805 188.661 100.008 188.661C100.536 188.661 101.059 188.557 101.546 188.355C102.034 188.153 102.477 187.857 102.85 187.483L115.5 174.833Z" fill="#38BDF8" stroke="#38BDF8" stroke-width="4" stroke-linecap="round" stroke-linejoin="round"/>
<path d="M51.5 174.833C51.8734 174.46 52.1697 174.017 52.3718 173.53C52.5739 173.042 52.6779 172.52 52.6779 171.992C52.6779 171.464 52.5739 170.941 52.3718 170.454C52.1697 169.966 51.8734 169.523 51.5 169.15L38.85 156.5C38.477 156.127 38.034 155.83 37.5464 155.628C37.0588 155.426 36.5362 155.322 36.0083 155.322C35.4805 155.322 34.9579 155.426 34.4703 155.628C33.9827 155.83 33.5397 156.127 33.1667 156.5L20.5167 169.15C20.1433 169.523 19.847 169.966 19.6449 170.454C19.4428 170.941 19.3388 171.464 19.3388 171.992C19.3388 172.52 19.4428 173.042 19.6449 173.53C19.847 174.017 20.1433 174.46 20.5167 174.833L33.1667 187.483C33.5397 187.857 33.9827 188.153 34.4703 188.355C34.9579 188.557 35.4805 188.661 36.0083 188.661C36.5362 188.661 37.0588 188.557 37.5464 188.355C38.034 188.153 38.477 187.857 38.85 187.483L51.5 174.833Z" fill="#38BDF8" stroke="#38BDF8" stroke-width="4" stroke-linecap="round" stroke-linejoin="round"/>
<path d="M179.5 244.833C179.873 244.46 180.17 244.017 180.372 243.53C180.574 243.042 180.678 242.52 180.678 241.992C180.678 241.464 180.574 240.941 180.372 240.454C180.17 239.966 179.873 239.523 179.5 239.15L166.85 226.5C166.477 226.127 166.034 225.83 165.546 225.628C165.059 225.426 164.536 225.322 164.008 225.322C163.481 225.322 162.958 225.426 162.47 225.628C161.983 225.83 161.54 226.127 161.167 226.5L148.517 239.15C148.143 239.523 147.847 239.966 147.645 240.454C147.443 240.941 147.339 241.464 147.339 241.992C147.339 242.52 147.443 243.042 147.645 243.53C147.847 244.017 148.143 244.46 148.517 244.833L161.167 257.483C161.54 257.857 161.983 258.153 162.47 258.355C162.958 258.557 163.481 258.661 164.008 258.661C164.536 258.661 165.059 258.557 165.546 258.355C166.034 258.153 166.477 257.857 166.85 257.483L179.5 244.833Z" fill="#38BDF8" stroke="#38BDF8" stroke-width="4" stroke-linecap="round" stroke-linejoin="round"/>
<path d="M51.5 244.833C51.8734 244.46 52.1697 244.017 52.3718 243.53C52.5739 243.042 52.6779 242.52 52.6779 241.992C52.6779 241.464 52.5739 240.941 52.3718 240.454C52.1697 239.966 51.8734 239.523 51.5 239.15L38.85 226.5C38.477 226.127 38.034 225.83 37.5464 225.628C37.0588 225.426 36.5362 225.322 36.0083 225.322C35.4805 225.322 34.9579 225.426 34.4703 225.628C33.9827 225.83 33.5397 226.127 33.1667 226.5L20.5167 239.15C20.1433 239.523 19.847 239.966 19.6449 240.454C19.4428 240.941 19.3388 241.464 19.3388 241.992C19.3388 242.52 19.4428 243.042 19.6449 243.53C19.847 244.017 20.1433 244.46 20.5167 244.833L33.1667 257.483C33.5397 257.857 33.9827 258.153 34.4703 258.355C34.9579 258.557 35.4805 258.661 36.0083 258.661C36.5362 258.661 37.0588 258.557 37.5464 258.355C38.034 258.153 38.477 257.857 38.85 257.483L51.5 244.833Z" fill="#38BDF8" stroke="#38BDF8" stroke-width="4" stroke-linecap="round" stroke-linejoin="round"/>
<g clip-path="url(#clip13_139_8133)">
<g clip-path="url(#clip14_139_8133)">
<g clip-path="url(#clip15_139_8133)">
<g clip-path="url(#clip16_139_8133)">
<g clip-path="url(#clip17_139_8133)">
<g clip-path="url(#clip18_139_8133)">
<g clip-path="url(#clip19_139_8133)">
<g clip-path="url(#clip20_139_8133)">
<g clip-path="url(#clip21_139_8133)">
<g clip-path="url(#clip22_139_8133)">
<g clip-path="url(#clip23_139_8133)">
<path d="M122.41 238.794C122.838 238.794 123.241 238.859 123.619 238.99C123.997 239.119 124.325 239.316 124.605 239.58C124.886 239.842 125.106 240.171 125.266 240.567C125.428 240.964 125.508 241.426 125.508 241.952C125.508 242.473 125.426 242.934 125.263 243.338C125.099 243.74 124.877 244.079 124.596 244.356C124.316 244.631 123.99 244.842 123.619 244.987C123.247 245.133 122.857 245.206 122.447 245.206C121.994 245.206 121.601 245.126 121.27 244.965C120.94 244.802 120.665 244.61 120.444 244.388L121.295 243.341C121.446 243.475 121.605 243.584 121.771 243.671C121.938 243.756 122.145 243.798 122.391 243.798C122.599 243.798 122.791 243.757 122.967 243.674C123.143 243.592 123.298 243.475 123.43 243.322C123.562 243.17 123.664 242.983 123.736 242.761C123.809 242.539 123.846 242.289 123.846 242.009C123.846 241.426 123.716 240.979 123.458 240.668C123.2 240.357 122.794 240.202 122.24 240.202C122.151 240.202 122.064 240.211 121.979 240.23C121.894 240.249 121.824 240.278 121.767 240.316V241.172H122.674V242.504H120.331V239.555C120.552 239.345 120.844 239.167 121.21 239.018C121.575 238.868 121.975 238.794 122.41 238.794ZM117.648 241.914L117.752 241.486H116.618L116.722 241.914C116.798 242.212 116.873 242.536 116.949 242.885C117.025 243.234 117.1 243.563 117.176 243.874H117.213C117.283 243.557 117.354 243.226 117.427 242.881C117.499 242.535 117.572 242.212 117.648 241.914ZM118.347 238.908H120.01L118.139 245.092H116.174L114.304 238.908H116.023L116.325 240.221H118.045L118.347 238.908ZM112.263 238.908H113.72V245.092H111.98L111.054 242.561C110.997 242.39 110.944 242.212 110.893 242.029C110.843 241.845 110.789 241.661 110.733 241.477H110.697C110.639 241.661 110.585 241.845 110.534 242.029C110.485 242.212 110.432 242.39 110.374 242.561L109.486 245.092H107.747V238.908H109.221V240.735C109.221 240.893 109.213 241.068 109.198 241.258C109.182 241.448 109.164 241.644 109.145 241.844C109.127 242.043 109.104 242.238 109.079 242.428C109.055 242.618 109.033 242.79 109.013 242.942H109.051L109.563 241.458L110.319 239.412H111.186L111.942 241.458L112.433 242.942H112.471C112.453 242.79 112.431 242.618 112.405 242.428C112.38 242.238 112.358 242.043 112.339 241.844C112.32 241.644 112.303 241.448 112.288 241.258C112.271 241.068 112.263 240.893 112.263 240.735V238.908ZM102.326 238.908H106.389V245.092H102.421V243.722H104.764V242.752H102.761V241.382H104.764V240.278H102.326V238.908ZM99.5865 238.908H101.136V245.092H99.4732L98.1127 242.333L97.527 240.944H97.4892C97.5081 241.109 97.5302 241.29 97.5553 241.486C97.5805 241.683 97.6026 241.885 97.6215 242.091C97.6404 242.297 97.6574 242.503 97.6725 242.71C97.6889 242.915 97.6971 243.113 97.6971 243.303V245.092H96.1477V238.908H97.8104L99.1709 241.676L99.7566 243.056H99.7944C99.7566 242.701 99.7125 242.314 99.6621 241.895C99.6117 241.477 99.5865 241.077 99.5865 240.697V238.908ZM93.1623 238.908H94.7873V245.092H93.1623V238.908ZM88.9677 238.794C89.3959 238.794 89.799 238.859 90.1769 238.99C90.5548 239.119 90.8842 239.316 91.1651 239.58C91.4448 239.842 91.6652 240.171 91.8264 240.567C91.9864 240.964 92.0664 241.426 92.0664 241.952C92.0664 242.473 91.9845 242.934 91.8208 243.338C91.657 243.74 91.4353 244.079 91.1557 244.356C90.8748 244.631 90.5485 244.842 90.1769 244.987C89.8053 245.133 89.4148 245.206 89.0055 245.206C88.552 245.206 88.1602 245.126 87.8302 244.965C87.4989 244.802 87.223 244.61 87.0026 244.388L87.8529 243.341C88.004 243.475 88.1634 243.584 88.3309 243.671C88.4972 243.756 88.7031 243.798 88.9488 243.798C89.1566 243.798 89.3487 243.757 89.5251 243.674C89.7014 243.592 89.8557 243.475 89.988 243.322C90.1202 243.17 90.2229 242.983 90.296 242.761C90.3678 242.539 90.4037 242.289 90.4037 242.009C90.4037 241.426 90.2746 240.979 90.0163 240.668C89.7581 240.357 89.3519 240.202 88.7976 240.202C88.7094 240.202 88.6231 240.211 88.5387 240.23C88.4531 240.249 88.3819 240.278 88.3252 240.316V241.172H89.2322V242.504H86.8892V239.555C87.1097 239.345 87.4025 239.167 87.7678 239.018C88.1331 238.868 88.5331 238.794 88.9677 238.794ZM84.0758 238.908H85.7008V245.092H84.0758V242.79H82.243V245.092H80.6181V238.908H82.243V241.363H84.0758V238.908ZM76.4612 238.908H78.0862V243.722H79.7111V245.092H74.8363V243.722H76.4612V238.908Z" fill="#475569"/>
</g>
</g>
</g>
</g>
</g>
</g>
</g>
<mask id="mask1_139_8133" style="mask-type:luminance" maskUnits="userSpaceOnUse" x="66" y="215" width="66" height="52">
<path d="M66.5064 266.38H131.858V215.586H66.5064V266.38Z" fill="white"/>
<path d="M72.3007 246.72H128.044V237.28H72.3007V246.72Z" fill="black"/>
</mask>
<g mask="url(#mask1_139_8133)">
<g clip-path="url(#clip24_139_8133)">
<path d="M91.5422 232.298C92.934 233.291 93.049 233.816 93.049 234.573C93.049 235.329 93.2811 236.033 93.86 236.616C94.4372 237.199 95.3672 239.068 95.3672 243.797C95.3672 248.525 93.975 251.384 93.975 251.384H90.6716C90.6716 251.384 89.7456 259.44 88.9343 261.658H93.2218C93.2218 261.658 93.5113 259.556 93.5113 258.388H95.2505V261.774H99.1336V258.446H101.245V261.774H105.129V258.388H106.867C106.867 259.556 107.154 261.658 107.154 261.658H111.446C110.633 259.44 109.706 251.383 109.706 251.383H106.402C106.402 251.383 105.01 248.524 105.01 243.796C105.01 239.068 105.938 237.199 106.518 236.616C107.097 236.032 107.33 235.329 107.33 234.572C107.33 233.816 107.445 233.291 108.838 232.298C110.226 231.305 111.677 230.371 111.677 228.795C111.677 227.22 110.168 227.1 109.532 227.1H90.846C90.2094 227.1 88.7003 227.22 88.7003 228.795C88.7003 230.371 90.1521 231.306 91.5422 232.298Z" fill="#475569"/>
<path d="M111.503 222.226C111.871 222.225 112.225 222.372 112.486 222.635C112.747 222.897 112.894 223.253 112.895 223.624C112.895 223.996 112.748 224.352 112.487 224.615C112.226 224.878 111.872 225.026 111.503 225.026H88.8424C88.6595 225.026 88.4784 224.99 88.3093 224.92C88.1403 224.849 87.9868 224.746 87.8574 224.616C87.7281 224.486 87.6256 224.331 87.5557 224.161C87.4858 223.99 87.45 223.808 87.4503 223.624C87.4503 223.44 87.4864 223.258 87.5564 223.088C87.6264 222.918 87.7291 222.764 87.8584 222.634C87.9877 222.504 88.1412 222.401 88.31 222.331C88.4789 222.261 88.6598 222.225 88.8424 222.226H111.503Z" fill="#475569"/>
</g>
</g>
</g>
</g>
</g>
</g>
</g>
<rect x="2" y="2" width="196" height="274" rx="14" stroke="#475569" stroke-width="4"/>
<defs>
<clipPath id="clip0_139_8133">
<rect width="200" height="278" rx="16" fill="white"/>
</clipPath>
<clipPath id="clip1_139_8133">
<rect width="63.4483" height="40" fill="white" transform="translate(68 16)"/>
</clipPath>
<clipPath id="clip2_139_8133">
<rect width="63.4483" height="40" fill="white" transform="translate(67.9615 15.9355)"/>
</clipPath>
<clipPath id="clip3_139_8133">
<rect width="63.3448" height="39.871" fill="white" transform="translate(68.0133 16)"/>
</clipPath>
<clipPath id="clip4_139_8133">
<rect width="63.3448" height="39.871" fill="white" transform="translate(68.0133 16)"/>
</clipPath>
<clipPath id="clip5_139_8133">
<rect width="50.6758" height="6.41265" fill="white" transform="translate(74.3478 32.7291)"/>
</clipPath>
<clipPath id="clip6_139_8133">
<rect width="50.6758" height="6.41265" fill="white" transform="translate(74.3478 32.7291)"/>
</clipPath>
<clipPath id="clip7_139_8133">
<rect width="50.6758" height="6.41265" fill="white" transform="translate(74.3478 32.7291)"/>
</clipPath>
<clipPath id="clip8_139_8133">
<rect width="50.6758" height="6.41265" fill="white" transform="translate(74.3478 32.7291)"/>
</clipPath>
<clipPath id="clip9_139_8133">
<rect width="50.6758" height="6.41265" fill="white" transform="translate(74.3478 32.7291)"/>
</clipPath>
<clipPath id="clip10_139_8133">
<rect width="50.6758" height="6.41265" fill="white" transform="translate(74.3478 32.7291)"/>
</clipPath>
<clipPath id="clip11_139_8133">
<rect width="50.6758" height="6.41265" fill="white" transform="translate(74.3478 32.7291)"/>
</clipPath>
<clipPath id="clip12_139_8133">
<rect width="25.4443" height="39.5484" fill="white" transform="translate(86.9636 16.1613)"/>
</clipPath>
<clipPath id="clip13_139_8133">
<rect width="63.4483" height="40" fill="white" transform="matrix(-1 0 0 -1 131.448 262)"/>
</clipPath>
<clipPath id="clip14_139_8133">
<rect width="63.4483" height="40" fill="white" transform="matrix(-1 0 0 -1 131.897 262)"/>
</clipPath>
<clipPath id="clip15_139_8133">
<rect width="63.3448" height="39.871" fill="white" transform="matrix(-1 0 0 -1 131.845 261.935)"/>
</clipPath>
<clipPath id="clip16_139_8133">
<rect width="63.3448" height="39.871" fill="white" transform="matrix(-1 0 0 -1 131.845 261.935)"/>
</clipPath>
<clipPath id="clip17_139_8133">
<rect width="50.6758" height="6.41265" fill="white" transform="matrix(-1 0 0 -1 125.51 245.206)"/>
</clipPath>
<clipPath id="clip18_139_8133">
<rect width="50.6758" height="6.41265" fill="white" transform="matrix(-1 0 0 -1 125.51 245.206)"/>
</clipPath>
<clipPath id="clip19_139_8133">
<rect width="50.6758" height="6.41265" fill="white" transform="matrix(-1 0 0 -1 125.51 245.206)"/>
</clipPath>
<clipPath id="clip20_139_8133">
<rect width="50.6758" height="6.41265" fill="white" transform="matrix(-1 0 0 -1 125.51 245.206)"/>
</clipPath>
<clipPath id="clip21_139_8133">
<rect width="50.6758" height="6.41265" fill="white" transform="matrix(-1 0 0 -1 125.51 245.206)"/>
</clipPath>
<clipPath id="clip22_139_8133">
<rect width="50.6758" height="6.41265" fill="white" transform="matrix(-1 0 0 -1 125.51 245.206)"/>
</clipPath>
<clipPath id="clip23_139_8133">
<rect width="50.6758" height="6.41265" fill="white" transform="matrix(-1 0 0 -1 125.51 245.206)"/>
</clipPath>
<clipPath id="clip24_139_8133">
<rect width="25.4443" height="39.5484" fill="white" transform="matrix(-1 0 0 -1 112.895 261.774)"/>
</clipPath>
</defs>
</svg>
