<svg width="200" height="278" viewBox="0 0 200 278" fill="none" xmlns="http://www.w3.org/2000/svg">
<g clip-path="url(#clip0_139_8232)">
<rect width="200" height="278" rx="16" fill="#334155"/>
<path d="M96.786 35.904L95.59 40.064H104.274L103.078 35.904C102.523 34.1013 101.986 32.2467 101.466 30.34C100.981 28.4333 100.495 26.544 100.01 24.672H99.802C99.3513 26.5787 98.866 28.4853 98.346 30.392C97.8606 32.264 97.3406 34.1013 96.786 35.904ZM85.398 54L96.474 19.992H103.546L114.622 54H108.278L105.626 44.796H94.186L91.534 54H85.398Z" fill="#38BDF8"/>
<g clip-path="url(#clip1_139_8232)">
<path d="M20.7549 39.9827C20.5741 40.4786 20.4928 41.0053 20.5157 41.5326C20.5386 42.0599 20.6652 42.5776 20.8883 43.0559C21.1113 43.5343 21.4265 43.964 21.8157 44.3205C22.205 44.677 22.6607 44.9533 23.1567 45.1336L39.9677 51.2522C40.4636 51.433 40.9902 51.5143 41.5175 51.4914C42.0449 51.4685 42.5625 51.3419 43.0409 51.1188C43.5193 50.8958 43.949 50.5806 44.3055 50.1914C44.662 49.8021 44.9382 49.3464 45.1185 48.8504L51.2372 32.0394C51.418 31.5435 51.4992 31.0169 51.4763 30.4896C51.4535 29.9622 51.3269 29.4446 51.1038 28.9662C50.8807 28.4878 50.5656 28.0581 50.1763 27.7016C49.7871 27.3451 49.3314 27.0689 48.8353 26.8886L32.0244 20.7699C31.5285 20.5891 31.0018 20.5079 30.4745 20.5308C29.9472 20.5536 29.4295 20.6802 28.9511 20.9033C28.4728 21.1264 28.0431 21.4415 27.6866 21.8308C27.3301 22.22 27.0538 22.6757 26.8735 23.1718L20.7549 39.9827Z" fill="#38BDF8" stroke="#38BDF8" stroke-width="4" stroke-linecap="round" stroke-linejoin="round"/>
</g>
<g clip-path="url(#clip2_139_8232)">
<path d="M151.15 26.8816C150.654 27.0619 150.198 27.3381 149.809 27.6946C149.419 28.0511 149.104 28.4808 148.881 28.9592C148.658 29.4376 148.531 29.9552 148.509 30.4825C148.486 31.0099 148.567 31.5365 148.748 32.0324L154.866 48.8434C155.047 49.3394 155.323 49.7951 155.679 50.1844C156.036 50.5736 156.466 50.8888 156.944 51.1118C157.422 51.3349 157.94 51.4615 158.467 51.4844C158.995 51.5073 159.521 51.426 160.017 51.2452L176.828 45.1266C177.324 44.9463 177.78 44.67 178.169 44.3135C178.558 43.957 178.874 43.5273 179.097 43.0489C179.32 42.5706 179.446 42.0529 179.469 41.5256C179.492 40.9983 179.411 40.4716 179.23 39.9757L173.111 23.1648C172.931 22.6687 172.655 22.213 172.298 21.8238C171.942 21.4345 171.512 21.1194 171.034 20.8963C170.555 20.6732 170.038 20.5466 169.51 20.5238C168.983 20.5009 168.456 20.5821 167.96 20.7629L151.15 26.8816Z" fill="#38BDF8" stroke="#38BDF8" stroke-width="4" stroke-linecap="round" stroke-linejoin="round"/>
</g>
<path d="M103.214 242.096L104.41 237.936H95.726L96.922 242.096C97.4767 243.899 98.014 245.753 98.534 247.66C99.0194 249.567 99.5047 251.456 99.99 253.328H100.198C100.649 251.421 101.134 249.515 101.654 247.608C102.139 245.736 102.659 243.899 103.214 242.096ZM114.602 224L103.526 258.008H96.454L85.378 224H91.722L94.374 233.204H105.814L108.466 224H114.602Z" fill="#38BDF8"/>
<g clip-path="url(#clip3_139_8232)">
<path d="M179.245 238.017C179.426 237.521 179.507 236.995 179.484 236.467C179.461 235.94 179.335 235.422 179.112 234.944C178.889 234.466 178.574 234.036 178.184 233.679C177.795 233.323 177.339 233.047 176.843 232.866L160.032 226.748C159.536 226.567 159.01 226.486 158.482 226.509C157.955 226.531 157.437 226.658 156.959 226.881C156.481 227.104 156.051 227.419 155.695 227.809C155.338 228.198 155.062 228.654 154.881 229.15L148.763 245.961C148.582 246.456 148.501 246.983 148.524 247.51C148.547 248.038 148.673 248.555 148.896 249.034C149.119 249.512 149.434 249.942 149.824 250.298C150.213 250.655 150.669 250.931 151.165 251.111L167.976 257.23C168.472 257.411 168.998 257.492 169.526 257.469C170.053 257.446 170.57 257.32 171.049 257.097C171.527 256.874 171.957 256.558 172.313 256.169C172.67 255.78 172.946 255.324 173.126 254.828L179.245 238.017Z" fill="#38BDF8" stroke="#38BDF8" stroke-width="4" stroke-linecap="round" stroke-linejoin="round"/>
</g>
<g clip-path="url(#clip4_139_8232)">
<path d="M48.8504 251.118C49.3465 250.938 49.8022 250.662 50.1914 250.305C50.5807 249.949 50.8958 249.519 51.1189 249.041C51.342 248.562 51.4686 248.045 51.4915 247.517C51.5143 246.99 51.4331 246.463 51.2523 245.968L45.1336 229.157C44.9534 228.661 44.6771 228.205 44.3206 227.816C43.9641 227.426 43.5344 227.111 43.056 226.888C42.5776 226.665 42.06 226.538 41.5327 226.516C41.0053 226.493 40.4787 226.574 39.9828 226.755L23.1719 232.873C22.6758 233.054 22.2201 233.33 21.8308 233.686C21.4416 234.043 21.1264 234.473 20.9034 234.951C20.6803 235.429 20.5537 235.947 20.5308 236.474C20.5079 237.002 20.5892 237.528 20.77 238.024L26.8887 254.835C27.0689 255.331 27.3452 255.787 27.7017 256.176C28.0582 256.565 28.4879 256.881 28.9663 257.104C29.4446 257.327 29.9623 257.453 30.4896 257.476C31.0169 257.499 31.5436 257.418 32.0395 257.237L48.8504 251.118Z" fill="#38BDF8" stroke="#38BDF8" stroke-width="4" stroke-linecap="round" stroke-linejoin="round"/>
</g>
<g clip-path="url(#clip5_139_8232)">
<g clip-path="url(#clip6_139_8232)">
<g clip-path="url(#clip7_139_8232)">
<g clip-path="url(#clip8_139_8232)">
<g clip-path="url(#clip9_139_8232)">
<g clip-path="url(#clip10_139_8232)">
<g clip-path="url(#clip11_139_8232)">
<g clip-path="url(#clip12_139_8232)">
<g clip-path="url(#clip13_139_8232)">
<g clip-path="url(#clip14_139_8232)">
<g clip-path="url(#clip15_139_8232)">
<path d="M64.8914 144.448C64.2164 144.448 63.5811 144.345 62.9855 144.14C62.3899 143.936 61.8717 143.626 61.431 143.211C60.9883 142.797 60.6408 142.279 60.3887 141.655C60.1346 141.03 60.0075 140.303 60.0075 139.473C60.0075 138.654 60.1366 137.927 60.3946 137.292C60.6527 136.658 61.0031 136.124 61.4459 135.688C61.8866 135.255 62.3998 134.923 62.9855 134.693C63.5712 134.463 64.1866 134.348 64.8318 134.348C65.5466 134.348 66.165 134.475 66.6871 134.729C67.2073 134.985 67.6411 135.288 67.9885 135.637L66.6484 137.286C66.4102 137.076 66.16 136.903 65.898 136.767C65.6339 136.633 65.3083 136.566 64.9212 136.566C64.5936 136.566 64.2908 136.631 64.0129 136.761C63.735 136.891 63.4917 137.076 63.2833 137.315C63.0748 137.555 62.914 137.85 62.8009 138.2C62.6857 138.549 62.6281 138.944 62.6281 139.383C62.6281 140.303 62.8316 141.007 63.2386 141.496C63.6456 141.986 64.2859 142.231 65.1594 142.231C65.2984 142.231 65.4354 142.216 65.5704 142.186C65.7034 142.156 65.8146 142.111 65.9039 142.051V140.702H64.4745V138.604H68.1672V143.25C67.8198 143.579 67.3582 143.861 66.7824 144.095C66.2067 144.33 65.5763 144.448 64.8914 144.448ZM72.3959 139.533L72.2321 140.208H74.0189L73.8551 139.533C73.736 139.064 73.6169 138.554 73.4978 138.005C73.3787 137.455 73.2595 136.936 73.1404 136.446H73.0809C72.9717 136.946 72.8595 137.467 72.7443 138.011C72.6312 138.556 72.515 139.064 72.3959 139.533ZM71.2941 144.269H68.6734L71.6216 134.528H74.7187L77.667 144.269H74.957L74.4805 142.201H71.7705L71.2941 144.269ZM80.8832 144.269H78.5871V134.528H81.3299L82.7891 138.514C82.8784 138.784 82.9628 139.064 83.0422 139.353C83.1216 139.643 83.206 139.933 83.2953 140.223H83.3519C83.4432 139.933 83.5286 139.643 83.608 139.353C83.6855 139.064 83.7698 138.784 83.8612 138.514L85.2608 134.528H88.0006V144.269H85.6777V141.391C85.6777 141.142 85.6896 140.867 85.7135 140.567C85.7393 140.268 85.7671 139.96 85.7968 139.644C85.8266 139.33 85.8614 139.024 85.9011 138.724C85.9388 138.424 85.9735 138.155 86.0053 137.915H85.9457L85.1387 140.253L83.9475 143.474H82.5806L81.3894 140.253L80.6152 137.915H80.5556C80.5834 138.155 80.6181 138.424 80.6598 138.724C80.6995 139.024 80.7343 139.33 80.7641 139.644C80.7938 139.96 80.8206 140.268 80.8445 140.567C80.8703 140.867 80.8832 141.142 80.8832 141.391V144.269ZM96.5444 144.269H90.1417V134.528H96.3955V136.686H92.7028V138.215H95.8595V140.372H92.7028V142.111H96.5444V144.269ZM100.862 144.269H98.4205V134.528H101.041L103.185 138.874L104.108 141.062H104.168C104.138 140.802 104.104 140.517 104.064 140.208C104.024 139.898 103.989 139.58 103.96 139.255C103.93 138.931 103.903 138.606 103.879 138.281C103.853 137.957 103.84 137.645 103.84 137.345V134.528H106.282V144.269H103.662L101.518 139.908L100.594 137.735H100.535C100.594 138.295 100.664 138.904 100.743 139.563C100.823 140.223 100.862 140.852 100.862 141.451V144.269ZM110.988 144.269H108.427V134.528H110.988V144.269ZM117.599 144.448C116.924 144.448 116.288 144.345 115.693 144.14C115.097 143.936 114.578 143.626 114.135 143.211C113.695 142.797 113.347 142.279 113.093 141.655C112.841 141.03 112.715 140.303 112.715 139.473C112.715 138.654 112.844 137.927 113.102 137.292C113.36 136.658 113.709 136.124 114.15 135.688C114.593 135.255 115.107 134.923 115.693 134.693C116.278 134.463 116.894 134.348 117.539 134.348C118.254 134.348 118.871 134.475 119.391 134.729C119.914 134.985 120.348 135.288 120.696 135.637L119.356 137.286C119.118 137.076 118.866 136.903 118.602 136.767C118.34 136.633 118.016 136.566 117.629 136.566C117.301 136.566 116.998 136.631 116.72 136.761C116.442 136.891 116.199 137.076 115.991 137.315C115.782 137.555 115.62 137.85 115.505 138.2C115.392 138.549 115.335 138.944 115.335 139.383C115.335 140.303 115.539 141.007 115.946 141.496C116.353 141.986 116.993 142.231 117.867 142.231C118.006 142.231 118.142 142.216 118.275 142.186C118.41 142.156 118.522 142.111 118.611 142.051V140.702H117.182V138.604H120.875V143.25C120.527 143.579 120.065 143.861 119.49 144.095C118.914 144.33 118.284 144.448 117.599 144.448ZM125.309 144.269H122.748V134.528H125.309V138.155H128.197V134.528H130.758V144.269H128.197V140.402H125.309V144.269ZM137.31 144.269H134.749V136.686H132.188V134.528H139.871V136.686H137.31V144.269Z" fill="#475569"/>
</g>
</g>
</g>
</g>
</g>
</g>
</g>
<mask id="mask0_139_8232" style="mask-type:luminance" maskUnits="userSpaceOnUse" x="50" y="101" width="103" height="80">
<path d="M153 101H49.9999V181H153V101Z" fill="white"/>
<path d="M143.868 131.964H56.0112V146.833H143.868V131.964Z" fill="black"/>
</mask>
<g mask="url(#mask0_139_8232)">
<g clip-path="url(#clip16_139_8232)">
<path d="M113.541 154.678C111.348 153.115 111.166 152.288 111.166 151.096C111.166 149.905 110.801 148.797 109.888 147.878C108.979 146.96 107.513 144.016 107.513 136.569C107.513 129.121 109.707 124.619 109.707 124.619H114.914C114.914 124.619 116.373 111.93 117.652 108.437H110.894C110.894 108.437 110.438 111.748 110.438 113.587H107.697V108.254H101.577V113.496H98.2494V108.254H92.1269V113.587H89.3887C89.3887 111.748 88.9357 108.438 88.9357 108.438H82.172C83.4532 111.931 84.9132 124.62 84.9132 124.62H90.1203C90.1203 124.62 92.3144 129.123 92.3144 136.569C92.3144 144.016 90.8519 146.96 89.939 147.879C89.026 148.798 88.6578 149.905 88.6578 151.097C88.6578 152.288 88.4764 153.116 86.2823 154.679C84.0944 156.242 81.8068 157.714 81.8068 160.196C81.8068 162.678 84.1854 162.866 85.1887 162.866H114.639C115.642 162.866 118.021 162.678 118.021 160.196C118.021 157.714 115.732 156.242 113.541 154.678Z" fill="#475569"/>
<path d="M82.0816 170.543C81.5006 170.543 80.9432 170.312 80.5318 169.899C80.1205 169.486 79.8889 168.926 79.8881 168.341C79.8881 167.755 80.1192 167.194 80.5305 166.78C80.9419 166.366 81.4998 166.133 82.0816 166.133H117.796C118.085 166.132 118.37 166.189 118.637 166.3C118.903 166.411 119.145 166.573 119.349 166.779C119.553 166.984 119.714 167.227 119.824 167.495C119.935 167.763 119.991 168.051 119.991 168.341C119.991 168.63 119.934 168.917 119.823 169.185C119.713 169.452 119.551 169.695 119.347 169.9C119.144 170.104 118.902 170.266 118.636 170.377C118.369 170.487 118.084 170.543 117.796 170.543H82.0816Z" fill="#475569"/>
</g>
</g>
</g>
</g>
</g>
</g>
</g>
<rect x="2" y="2" width="196" height="274" rx="14" stroke="#475569" stroke-width="4"/>
<defs>
<clipPath id="clip0_139_8232">
<rect width="200" height="278" rx="16" fill="white"/>
</clipPath>
<clipPath id="clip1_139_8232">
<rect width="40" height="40" fill="white" transform="translate(9.42151 26.3262) rotate(-25)"/>
</clipPath>
<clipPath id="clip2_139_8232">
<rect width="40" height="40" fill="white" transform="translate(154.326 9.42151) rotate(25)"/>
</clipPath>
<clipPath id="clip3_139_8232">
<rect width="40" height="40" fill="white" transform="translate(190.578 251.674) rotate(155)"/>
</clipPath>
<clipPath id="clip4_139_8232">
<rect width="40" height="40" fill="white" transform="translate(45.6738 268.578) rotate(-155)"/>
</clipPath>
<clipPath id="clip5_139_8232">
<rect width="100" height="63" fill="white" transform="translate(50 108)"/>
</clipPath>
<clipPath id="clip6_139_8232">
<rect width="100" height="63" fill="white" transform="translate(49.9394 107.898)"/>
</clipPath>
<clipPath id="clip7_139_8232">
<rect width="99.8369" height="62.7968" fill="white" transform="translate(50.0209 108)"/>
</clipPath>
<clipPath id="clip8_139_8232">
<rect width="99.8369" height="62.7968" fill="white" transform="translate(50.0209 108)"/>
</clipPath>
<clipPath id="clip9_139_8232">
<rect width="79.8695" height="10.0999" fill="white" transform="translate(60.0046 134.348)"/>
</clipPath>
<clipPath id="clip10_139_8232">
<rect width="79.8695" height="10.0999" fill="white" transform="translate(60.0046 134.348)"/>
</clipPath>
<clipPath id="clip11_139_8232">
<rect width="79.8695" height="10.0999" fill="white" transform="translate(60.0046 134.348)"/>
</clipPath>
<clipPath id="clip12_139_8232">
<rect width="79.8695" height="10.0999" fill="white" transform="translate(60.0046 134.348)"/>
</clipPath>
<clipPath id="clip13_139_8232">
<rect width="79.8695" height="10.0999" fill="white" transform="translate(60.0046 134.348)"/>
</clipPath>
<clipPath id="clip14_139_8232">
<rect width="79.8695" height="10.0999" fill="white" transform="translate(60.0046 134.348)"/>
</clipPath>
<clipPath id="clip15_139_8232">
<rect width="79.8695" height="10.0999" fill="white" transform="translate(60.0046 134.348)"/>
</clipPath>
<clipPath id="clip16_139_8232">
<rect width="40.1025" height="62.2887" fill="white" transform="translate(79.8881 108.254)"/>
</clipPath>
</defs>
</svg>
