<svg width="200" height="278" viewBox="0 0 200 278" fill="none" xmlns="http://www.w3.org/2000/svg">
<g clip-path="url(#clip0_139_8709)">
<rect width="200" height="278" rx="16" fill="#334155"/>
<path d="M47.6667 109.333C50.15 106.9 52.6667 103.983 52.6667 100.167C52.6667 97.7355 51.7009 95.4039 49.9818 93.6849C48.2627 91.9658 45.9312 91 43.5 91C40.5667 91 38.5 91.8333 36 94.3333C33.5 91.8333 31.4333 91 28.5 91C26.0689 91 23.7373 91.9658 22.0182 93.6849C20.2991 95.4039 19.3333 97.7355 19.3333 100.167C19.3333 104 21.8333 106.917 24.3333 109.333L36 121L47.6667 109.333Z" fill="#F87171" stroke="#F87171" stroke-width="4" stroke-linecap="round" stroke-linejoin="round"/>
<path d="M111.667 109.333C114.15 106.9 116.667 103.983 116.667 100.167C116.667 97.7355 115.701 95.4039 113.982 93.6849C112.263 91.9658 109.931 91 107.5 91C104.567 91 102.5 91.8333 100 94.3333C97.5 91.8333 95.4333 91 92.5 91C90.0688 91 87.7373 91.9658 86.0182 93.6849C84.2991 95.4039 83.3333 97.7355 83.3333 100.167C83.3333 104 85.8333 106.917 88.3333 109.333L100 121L111.667 109.333Z" fill="#F87171" stroke="#F87171" stroke-width="4" stroke-linecap="round" stroke-linejoin="round"/>
<path d="M175.667 109.333C178.15 106.9 180.667 103.983 180.667 100.167C180.667 97.7355 179.701 95.4039 177.982 93.6849C176.263 91.9658 173.931 91 171.5 91C168.567 91 166.5 91.8333 164 94.3333C161.5 91.8333 159.433 91 156.5 91C154.069 91 151.737 91.9658 150.018 93.6849C148.299 95.4039 147.333 97.7355 147.333 100.167C147.333 104 149.833 106.917 152.333 109.333L164 121L175.667 109.333Z" fill="#F87171" stroke="#F87171" stroke-width="4" stroke-linecap="round" stroke-linejoin="round"/>
<path d="M47.6667 39.3333C50.15 36.9 52.6667 33.9833 52.6667 30.1667C52.6667 27.7355 51.7009 25.4039 49.9818 23.6849C48.2627 21.9658 45.9312 21 43.5 21C40.5667 21 38.5 21.8333 36 24.3333C33.5 21.8333 31.4333 21 28.5 21C26.0689 21 23.7373 21.9658 22.0182 23.6849C20.2991 25.4039 19.3333 27.7355 19.3333 30.1667C19.3333 34 21.8333 36.9167 24.3333 39.3333L36 51L47.6667 39.3333Z" fill="#F87171" stroke="#F87171" stroke-width="4" stroke-linecap="round" stroke-linejoin="round"/>
<path d="M175.667 39.3333C178.15 36.9 180.667 33.9833 180.667 30.1667C180.667 27.7355 179.701 25.4039 177.982 23.6849C176.263 21.9658 173.931 21 171.5 21C168.567 21 166.5 21.8333 164 24.3333C161.5 21.8333 159.433 21 156.5 21C154.069 21 151.737 21.9658 150.018 23.6849C148.299 25.4039 147.333 27.7355 147.333 30.1667C147.333 34 149.833 36.9167 152.333 39.3333L164 51L175.667 39.3333Z" fill="#F87171" stroke="#F87171" stroke-width="4" stroke-linecap="round" stroke-linejoin="round"/>
<g clip-path="url(#clip1_139_8709)">
<g clip-path="url(#clip2_139_8709)">
<g clip-path="url(#clip3_139_8709)">
<g clip-path="url(#clip4_139_8709)">
<g clip-path="url(#clip5_139_8709)">
<g clip-path="url(#clip6_139_8709)">
<g clip-path="url(#clip7_139_8709)">
<g clip-path="url(#clip8_139_8709)">
<g clip-path="url(#clip9_139_8709)">
<g clip-path="url(#clip10_139_8709)">
<g clip-path="url(#clip11_139_8709)">
<path d="M77.4486 39.1418C77.0203 39.1418 76.6172 39.0765 76.2393 38.9458C75.8614 38.8164 75.5327 38.6198 75.253 38.3559C74.9721 38.0933 74.7517 37.7641 74.5917 37.3683C74.4305 36.9713 74.3499 36.5095 74.3499 35.9831C74.3499 35.4629 74.4317 35.0012 74.5955 34.5978C74.7592 34.1956 74.9816 33.8563 75.2625 33.5797C75.5421 33.3045 75.8677 33.0939 76.2393 32.948C76.6109 32.8021 77.0014 32.7292 77.4108 32.7292C77.8643 32.7292 78.2567 32.8097 78.588 32.9708C78.918 33.1332 79.1932 33.3254 79.4137 33.5474L78.5634 34.594C78.4122 34.4608 78.2535 34.351 78.0872 34.2648C77.9197 34.1798 77.7131 34.1373 77.4675 34.1373C77.2597 34.1373 77.0676 34.1785 76.8912 34.261C76.7149 34.3434 76.5605 34.4608 76.4283 34.613C76.296 34.7652 76.194 34.9523 76.1222 35.1743C76.0491 35.3963 76.0126 35.6469 76.0126 35.926C76.0126 36.5095 76.1417 36.9567 76.3999 37.2675C76.6582 37.5783 77.0644 37.7337 77.6187 37.7337C77.7068 37.7337 77.7937 37.7242 77.8794 37.7051C77.9638 37.6861 78.0343 37.6576 78.091 37.6195V36.7632H77.1841V35.4312H79.527V38.3807C79.3066 38.59 79.0137 38.7688 78.6484 38.9173C78.2831 39.067 77.8832 39.1418 77.4486 39.1418ZM82.2101 36.0211L82.1062 36.4493H83.2399L83.1359 36.0211C83.0604 35.723 82.9848 35.3995 82.9092 35.0507C82.8336 34.7018 82.758 34.372 82.6825 34.0612H82.6447C82.5754 34.3783 82.5042 34.7094 82.4312 35.0545C82.3594 35.4008 82.2857 35.723 82.2101 36.0211ZM81.511 39.0276H79.8482L81.7188 32.8433H83.6839L85.5545 39.0276H83.835L83.5327 37.7147H81.8133L81.511 39.0276ZM87.5951 39.0276H86.1383V32.8433H87.8785L88.8044 35.3741C88.8611 35.5454 88.9146 35.723 88.965 35.9069C89.0154 36.0909 89.0689 36.2748 89.1256 36.4588H89.1615C89.2194 36.2748 89.2736 36.0909 89.324 35.9069C89.3731 35.723 89.4266 35.5454 89.4846 35.3741L90.3726 32.8433H92.111V39.0276H90.6372V37.2009C90.6372 37.0423 90.6447 36.8679 90.6598 36.6776C90.6762 36.4873 90.6938 36.292 90.7127 36.0915C90.7316 35.8924 90.7537 35.6976 90.7789 35.5073C90.8028 35.3171 90.8249 35.1458 90.845 34.9936H90.8072L90.2952 36.4778L89.5394 38.5234H88.6721L87.9163 36.4778L87.425 34.9936H87.3873C87.4049 35.1458 87.4269 35.3171 87.4534 35.5073C87.4786 35.6976 87.5006 35.8924 87.5195 36.0915C87.5384 36.292 87.5554 36.4873 87.5705 36.6776C87.5869 36.8679 87.5951 37.0423 87.5951 37.2009V39.0276ZM97.5319 39.0276H93.4695V32.8433H97.4374V34.2134H95.0944V35.1839H97.0973V36.5539H95.0944V37.6576H97.5319V39.0276ZM100.272 39.0276H98.7222V32.8433H100.385L101.745 35.6025L102.331 36.9916H102.369C102.35 36.8267 102.328 36.6459 102.303 36.4493C102.278 36.2526 102.256 36.0509 102.237 35.8441C102.218 35.6386 102.201 35.4325 102.186 35.2257C102.169 35.0202 102.161 34.8223 102.161 34.632V32.8433H103.71V39.0276H102.048L100.687 36.259L100.102 34.8794H100.064C100.102 35.2346 100.146 35.6215 100.196 36.0401C100.246 36.4588 100.272 36.8584 100.272 37.2389V39.0276ZM106.696 39.0276H105.071V32.8433H106.696V39.0276ZM110.89 39.1418C110.462 39.1418 110.059 39.0765 109.681 38.9458C109.303 38.8164 108.974 38.6198 108.693 38.3559C108.413 38.0933 108.193 37.7641 108.032 37.3683C107.872 36.9713 107.792 36.5095 107.792 35.9831C107.792 35.4629 107.874 35.0012 108.037 34.5978C108.201 34.1956 108.423 33.8563 108.702 33.5797C108.983 33.3045 109.31 33.0939 109.681 32.948C110.053 32.8021 110.443 32.7292 110.853 32.7292C111.306 32.7292 111.698 32.8097 112.028 32.9708C112.359 33.1332 112.635 33.3254 112.856 33.5474L112.005 34.594C111.854 34.4608 111.695 34.351 111.527 34.2648C111.361 34.1798 111.155 34.1373 110.909 34.1373C110.702 34.1373 110.509 34.1785 110.333 34.261C110.157 34.3434 110.002 34.4608 109.87 34.613C109.738 34.7652 109.635 34.9523 109.562 35.1743C109.49 35.3963 109.454 35.6469 109.454 35.926C109.454 36.5095 109.584 36.9567 109.842 37.2675C110.1 37.5783 110.506 37.7337 111.061 37.7337C111.149 37.7337 111.235 37.7242 111.319 37.7051C111.405 37.6861 111.476 37.6576 111.533 37.6195V36.7632H110.626V35.4312H112.969V38.3807C112.748 38.59 112.456 38.7688 112.09 38.9173C111.725 39.067 111.325 39.1418 110.89 39.1418ZM115.782 39.0276H114.157V32.8433H115.782V35.1458H117.615V32.8433H119.24V39.0276H117.615V36.5729H115.782V39.0276ZM123.397 39.0276H121.772V34.2134H120.147V32.8433H125.022V34.2134H123.397V39.0276Z" fill="#475569"/>
</g>
</g>
</g>
</g>
</g>
</g>
</g>
<mask id="mask0_139_8709" style="mask-type:luminance" maskUnits="userSpaceOnUse" x="68" y="11" width="66" height="52">
<path d="M133.352 11.5556H68V62.3492H133.352V11.5556Z" fill="white"/>
<path d="M127.557 31.2153H71.814V40.6557H127.557V31.2153Z" fill="black"/>
</mask>
<g mask="url(#mask0_139_8709)">
<g clip-path="url(#clip12_139_8709)">
<path d="M108.316 45.6371C106.924 44.6444 106.809 44.1192 106.809 43.3627C106.809 42.6061 106.577 41.9029 105.998 41.3196C105.421 40.7363 104.491 38.8672 104.491 34.1388C104.491 29.4104 105.883 26.5518 105.883 26.5518H109.187C109.187 26.5518 110.113 18.4954 110.924 16.2776H106.636C106.636 16.2776 106.347 18.3796 106.347 19.547H104.608V16.1613H100.725V19.4893H98.6134V16.1613H94.7288V19.5474H92.9915C92.9915 18.38 92.704 16.278 92.704 16.278H88.4126C89.2255 18.4958 90.1519 26.5522 90.1519 26.5522H93.4557C93.4557 26.5522 94.8478 29.4112 94.8478 34.1392C94.8478 38.8672 93.9199 40.7367 93.3406 41.32C92.7614 41.9033 92.5277 42.6061 92.5277 43.3631C92.5277 44.1196 92.4127 44.6448 91.0205 45.6375C89.6323 46.6302 88.1809 47.5647 88.1809 49.1403C88.1809 50.7159 89.6901 50.8357 90.3266 50.8357H109.012C109.649 50.8357 111.158 50.7159 111.158 49.1403C111.158 47.5647 109.706 46.6298 108.316 45.6371Z" fill="#475569"/>
<path d="M88.3553 55.7097C87.9867 55.7101 87.633 55.563 87.372 55.3009C87.111 55.0387 86.9641 54.6829 86.9636 54.3116C86.9636 53.9399 87.1102 53.5833 87.3712 53.3204C87.6322 53.0575 87.9862 52.9098 88.3553 52.9096H111.016C111.199 52.9094 111.38 52.9455 111.549 53.0158C111.718 53.0862 111.871 53.1895 112.001 53.3197C112.13 53.4499 112.233 53.6046 112.302 53.7748C112.372 53.945 112.408 54.1275 112.408 54.3116C112.408 54.4955 112.372 54.6776 112.302 54.8475C112.232 55.0173 112.129 55.1716 112 55.3015C111.87 55.4313 111.717 55.5342 111.548 55.6043C111.379 55.6743 111.198 55.7101 111.016 55.7097H88.3553Z" fill="#475569"/>
</g>
</g>
</g>
</g>
</g>
</g>
<path d="M152.333 168.667C149.85 171.1 147.333 174.017 147.333 177.833C147.333 180.264 148.299 182.596 150.018 184.315C151.737 186.034 154.069 187 156.5 187C159.433 187 161.5 186.167 164 183.667C166.5 186.167 168.567 187 171.5 187C173.931 187 176.263 186.034 177.982 184.315C179.701 182.596 180.667 180.264 180.667 177.833C180.667 174 178.167 171.083 175.667 168.667L164 157L152.333 168.667Z" fill="#F87171" stroke="#F87171" stroke-width="4" stroke-linecap="round" stroke-linejoin="round"/>
<path d="M88.3334 168.667C85.85 171.1 83.3334 174.017 83.3334 177.833C83.3334 180.264 84.2991 182.596 86.0182 184.315C87.7373 186.034 90.0689 187 92.5 187C95.4334 187 97.5 186.167 100 183.667C102.5 186.167 104.567 187 107.5 187C109.931 187 112.263 186.034 113.982 184.315C115.701 182.596 116.667 180.264 116.667 177.833C116.667 174 114.167 171.083 111.667 168.667L100 157L88.3334 168.667Z" fill="#F87171" stroke="#F87171" stroke-width="4" stroke-linecap="round" stroke-linejoin="round"/>
<path d="M24.3333 168.667C21.85 171.1 19.3333 174.017 19.3333 177.833C19.3333 180.264 20.2991 182.596 22.0182 184.315C23.7373 186.034 26.0688 187 28.5 187C31.4333 187 33.5 186.167 36 183.667C38.5 186.167 40.5667 187 43.5 187C45.9311 187 48.2627 186.034 49.9818 184.315C51.7009 182.596 52.6667 180.264 52.6667 177.833C52.6667 174 50.1667 171.083 47.6667 168.667L36 157L24.3333 168.667Z" fill="#F87171" stroke="#F87171" stroke-width="4" stroke-linecap="round" stroke-linejoin="round"/>
<path d="M152.333 238.667C149.85 241.1 147.333 244.017 147.333 247.833C147.333 250.264 148.299 252.596 150.018 254.315C151.737 256.034 154.069 257 156.5 257C159.433 257 161.5 256.167 164 253.667C166.5 256.167 168.567 257 171.5 257C173.931 257 176.263 256.034 177.982 254.315C179.701 252.596 180.667 250.264 180.667 247.833C180.667 244 178.167 241.083 175.667 238.667L164 227L152.333 238.667Z" fill="#F87171" stroke="#F87171" stroke-width="4" stroke-linecap="round" stroke-linejoin="round"/>
<path d="M24.3333 238.667C21.85 241.1 19.3333 244.017 19.3333 247.833C19.3333 250.264 20.2991 252.596 22.0182 254.315C23.7373 256.034 26.0688 257 28.5 257C31.4333 257 33.5 256.167 36 253.667C38.5 256.167 40.5667 257 43.5 257C45.9311 257 48.2627 256.034 49.9818 254.315C51.7009 252.596 52.6667 250.264 52.6667 247.833C52.6667 244 50.1667 241.083 47.6667 238.667L36 227L24.3333 238.667Z" fill="#F87171" stroke="#F87171" stroke-width="4" stroke-linecap="round" stroke-linejoin="round"/>
<g clip-path="url(#clip13_139_8709)">
<g clip-path="url(#clip14_139_8709)">
<g clip-path="url(#clip15_139_8709)">
<g clip-path="url(#clip16_139_8709)">
<g clip-path="url(#clip17_139_8709)">
<g clip-path="url(#clip18_139_8709)">
<g clip-path="url(#clip19_139_8709)">
<g clip-path="url(#clip20_139_8709)">
<g clip-path="url(#clip21_139_8709)">
<g clip-path="url(#clip22_139_8709)">
<g clip-path="url(#clip23_139_8709)">
<path d="M122 238.858C122.428 238.858 122.831 238.924 123.209 239.054C123.587 239.184 123.916 239.38 124.195 239.644C124.476 239.907 124.697 240.236 124.857 240.632C125.018 241.029 125.098 241.49 125.098 242.017C125.098 242.537 125.017 242.999 124.853 243.402C124.689 243.804 124.467 244.144 124.186 244.42C123.906 244.696 123.581 244.906 123.209 245.052C122.837 245.198 122.447 245.271 122.037 245.271C121.584 245.271 121.192 245.19 120.86 245.029C120.53 244.867 120.255 244.675 120.035 244.453L120.885 243.406C121.036 243.539 121.195 243.649 121.361 243.735C121.529 243.82 121.735 243.863 121.981 243.863C122.189 243.863 122.381 243.821 122.557 243.739C122.733 243.657 122.888 243.539 123.02 243.387C123.152 243.235 123.254 243.048 123.326 242.826C123.399 242.604 123.436 242.353 123.436 242.074C123.436 241.49 123.307 241.043 123.048 240.733C122.79 240.422 122.384 240.266 121.83 240.266C121.741 240.266 121.655 240.276 121.569 240.295C121.485 240.314 121.414 240.342 121.357 240.38V241.237H122.264V242.569H119.921V239.619C120.142 239.41 120.435 239.231 120.8 239.083C121.165 238.933 121.565 238.858 122 238.858ZM117.238 241.979L117.342 241.551H116.208L116.312 241.979C116.388 242.277 116.464 242.6 116.539 242.949C116.615 243.298 116.69 243.628 116.766 243.939H116.804C116.873 243.622 116.944 243.291 117.017 242.946C117.089 242.599 117.163 242.277 117.238 241.979ZM117.937 238.972H119.6L117.729 245.157H115.764L113.894 238.972H115.613L115.916 240.285H117.635L117.937 238.972ZM111.853 238.972H113.31V245.157H111.57L110.644 242.626C110.587 242.455 110.534 242.277 110.483 242.093C110.433 241.909 110.379 241.725 110.323 241.541H110.287C110.229 241.725 110.175 241.909 110.124 242.093C110.075 242.277 110.022 242.455 109.964 242.626L109.076 245.157H107.337V238.972H108.811V240.799C108.811 240.958 108.804 241.132 108.788 241.322C108.772 241.513 108.754 241.708 108.736 241.908C108.717 242.108 108.695 242.302 108.669 242.493C108.645 242.683 108.623 242.854 108.603 243.006H108.641L109.153 241.522L109.909 239.477H110.776L111.532 241.522L112.023 243.006H112.061C112.043 242.854 112.021 242.683 111.995 242.493C111.97 242.302 111.948 242.108 111.929 241.908C111.91 241.708 111.893 241.513 111.878 241.322C111.861 241.132 111.853 240.958 111.853 240.799V238.972ZM101.916 238.972H105.979V245.157H102.011V243.787H104.354V242.816H102.351V241.446H104.354V240.342H101.916V238.972ZM99.1767 238.972H100.726V245.157H99.0633L97.7029 242.398L97.1172 241.008H97.0794C97.0983 241.173 97.1203 241.354 97.1455 241.551C97.1707 241.747 97.1927 241.949 97.2116 242.156C97.2305 242.361 97.2475 242.568 97.2626 242.774C97.279 242.98 97.2872 243.178 97.2872 243.368V245.157H95.7378V238.972H97.4006L98.761 241.741L99.3467 243.121H99.3845C99.3467 242.765 99.3026 242.378 99.2523 241.96C99.2019 241.541 99.1767 241.142 99.1767 240.761V238.972ZM92.7525 238.972H94.3774V245.157H92.7525V238.972ZM88.5578 238.858C88.9861 238.858 89.3892 238.924 89.7671 239.054C90.145 239.184 90.4744 239.38 90.7553 239.644C91.0349 239.907 91.2554 240.236 91.4166 240.632C91.5766 241.029 91.6566 241.49 91.6566 242.017C91.6566 242.537 91.5747 242.999 91.4109 243.402C91.2472 243.804 91.0255 244.144 90.7458 244.42C90.4649 244.696 90.1387 244.906 89.7671 245.052C89.3955 245.198 89.005 245.271 88.5956 245.271C88.1421 245.271 87.7504 245.19 87.4203 245.029C87.0891 244.867 86.8132 244.675 86.5928 244.453L87.443 243.406C87.5942 243.539 87.7535 243.649 87.9211 243.735C88.0873 243.82 88.2933 243.863 88.5389 243.863C88.7468 243.863 88.9389 243.821 89.1152 243.739C89.2916 243.657 89.4459 243.539 89.5781 243.387C89.7104 243.235 89.8131 243.048 89.8861 242.826C89.9579 242.604 89.9938 242.353 89.9938 242.074C89.9938 241.49 89.8647 241.043 89.6065 240.733C89.3482 240.422 88.942 240.266 88.3878 240.266C88.2996 240.266 88.2133 240.276 88.1289 240.295C88.0432 240.314 87.9721 240.342 87.9154 240.38V241.237H88.8223V242.569H86.4794V239.619C86.6998 239.41 86.9927 239.231 87.358 239.083C87.7233 238.933 88.1232 238.858 88.5578 238.858ZM83.666 238.972H85.2909V245.157H83.666V242.854H81.8332V245.157H80.2082V238.972H81.8332V241.427H83.666V238.972ZM76.0514 238.972H77.6763V243.787H79.3013V245.157H74.4264V243.787H76.0514V238.972Z" fill="#475569"/>
</g>
</g>
</g>
</g>
</g>
</g>
</g>
<mask id="mask1_139_8709" style="mask-type:luminance" maskUnits="userSpaceOnUse" x="66" y="215" width="66" height="52">
<path d="M66.0966 266.444H131.448V215.651H66.0966V266.444Z" fill="white"/>
<path d="M71.8909 246.785H127.634V237.344H71.8909V246.785Z" fill="black"/>
</mask>
<g mask="url(#mask1_139_8709)">
<g clip-path="url(#clip24_139_8709)">
<path d="M91.1324 232.363C92.5241 233.356 92.6392 233.881 92.6392 234.637C92.6392 235.394 92.8713 236.097 93.4501 236.68C94.0274 237.264 94.9573 239.133 94.9573 243.861C94.9573 248.59 93.5652 251.448 93.5652 251.448H90.2618C90.2618 251.448 89.3358 259.505 88.5245 261.722H92.812C92.812 261.722 93.1014 259.62 93.1014 258.453H94.8407V261.839H98.7237V258.511H100.835V261.839H104.719V258.453H106.457C106.457 259.62 106.744 261.722 106.744 261.722H111.036C110.223 259.504 109.296 251.448 109.296 251.448H105.993C105.993 251.448 104.6 248.589 104.6 243.861C104.6 239.133 105.528 237.263 106.108 236.68C106.687 236.097 106.921 235.394 106.921 234.637C106.921 233.88 107.036 233.355 108.428 232.363C109.816 231.37 111.267 230.435 111.267 228.86C111.267 227.284 109.758 227.164 109.122 227.164H90.4361C89.7996 227.164 88.2904 227.284 88.2904 228.86C88.2904 230.435 89.7422 231.37 91.1324 232.363Z" fill="#475569"/>
<path d="M111.093 222.29C111.462 222.29 111.815 222.437 112.076 222.699C112.337 222.961 112.484 223.317 112.485 223.688C112.485 224.06 112.338 224.417 112.077 224.68C111.816 224.943 111.462 225.09 111.093 225.09H88.4325C88.2497 225.091 88.0685 225.055 87.8995 224.984C87.7305 224.914 87.5769 224.811 87.4476 224.68C87.3183 224.55 87.2157 224.395 87.1459 224.225C87.076 224.055 87.0402 223.873 87.0404 223.688C87.0405 223.504 87.0765 223.322 87.1466 223.153C87.2166 222.983 87.3192 222.828 87.4485 222.699C87.5778 222.569 87.7313 222.466 87.9002 222.396C88.069 222.326 88.2499 222.29 88.4325 222.29H111.093Z" fill="#475569"/>
</g>
</g>
</g>
</g>
</g>
</g>
</g>
<rect x="2" y="2" width="196" height="274" rx="14" stroke="#475569" stroke-width="4"/>
<defs>
<clipPath id="clip0_139_8709">
<rect width="200" height="278" rx="16" fill="white"/>
</clipPath>
<clipPath id="clip1_139_8709">
<rect width="63.4483" height="40" fill="white" transform="translate(68 16)"/>
</clipPath>
<clipPath id="clip2_139_8709">
<rect width="63.4483" height="40" fill="white" transform="translate(67.9615 15.9355)"/>
</clipPath>
<clipPath id="clip3_139_8709">
<rect width="63.3448" height="39.871" fill="white" transform="translate(68.0133 16)"/>
</clipPath>
<clipPath id="clip4_139_8709">
<rect width="63.3448" height="39.871" fill="white" transform="translate(68.0133 16)"/>
</clipPath>
<clipPath id="clip5_139_8709">
<rect width="50.6758" height="6.41265" fill="white" transform="translate(74.3478 32.7292)"/>
</clipPath>
<clipPath id="clip6_139_8709">
<rect width="50.6758" height="6.41265" fill="white" transform="translate(74.3478 32.7292)"/>
</clipPath>
<clipPath id="clip7_139_8709">
<rect width="50.6758" height="6.41265" fill="white" transform="translate(74.3478 32.7292)"/>
</clipPath>
<clipPath id="clip8_139_8709">
<rect width="50.6758" height="6.41265" fill="white" transform="translate(74.3478 32.7292)"/>
</clipPath>
<clipPath id="clip9_139_8709">
<rect width="50.6758" height="6.41265" fill="white" transform="translate(74.3478 32.7292)"/>
</clipPath>
<clipPath id="clip10_139_8709">
<rect width="50.6758" height="6.41265" fill="white" transform="translate(74.3478 32.7292)"/>
</clipPath>
<clipPath id="clip11_139_8709">
<rect width="50.6758" height="6.41265" fill="white" transform="translate(74.3478 32.7292)"/>
</clipPath>
<clipPath id="clip12_139_8709">
<rect width="25.4443" height="39.5484" fill="white" transform="translate(86.9636 16.1613)"/>
</clipPath>
<clipPath id="clip13_139_8709">
<rect width="63.4483" height="40" fill="white" transform="matrix(-1 0 0 -1 131.448 262)"/>
</clipPath>
<clipPath id="clip14_139_8709">
<rect width="63.4483" height="40" fill="white" transform="matrix(-1 0 0 -1 131.487 262.065)"/>
</clipPath>
<clipPath id="clip15_139_8709">
<rect width="63.3448" height="39.871" fill="white" transform="matrix(-1 0 0 -1 131.435 262)"/>
</clipPath>
<clipPath id="clip16_139_8709">
<rect width="63.3448" height="39.871" fill="white" transform="matrix(-1 0 0 -1 131.435 262)"/>
</clipPath>
<clipPath id="clip17_139_8709">
<rect width="50.6758" height="6.41265" fill="white" transform="matrix(-1 0 0 -1 125.101 245.271)"/>
</clipPath>
<clipPath id="clip18_139_8709">
<rect width="50.6758" height="6.41265" fill="white" transform="matrix(-1 0 0 -1 125.101 245.271)"/>
</clipPath>
<clipPath id="clip19_139_8709">
<rect width="50.6758" height="6.41265" fill="white" transform="matrix(-1 0 0 -1 125.101 245.271)"/>
</clipPath>
<clipPath id="clip20_139_8709">
<rect width="50.6758" height="6.41265" fill="white" transform="matrix(-1 0 0 -1 125.101 245.271)"/>
</clipPath>
<clipPath id="clip21_139_8709">
<rect width="50.6758" height="6.41265" fill="white" transform="matrix(-1 0 0 -1 125.101 245.271)"/>
</clipPath>
<clipPath id="clip22_139_8709">
<rect width="50.6758" height="6.41265" fill="white" transform="matrix(-1 0 0 -1 125.101 245.271)"/>
</clipPath>
<clipPath id="clip23_139_8709">
<rect width="50.6758" height="6.41265" fill="white" transform="matrix(-1 0 0 -1 125.101 245.271)"/>
</clipPath>
<clipPath id="clip24_139_8709">
<rect width="25.4443" height="39.5484" fill="white" transform="matrix(-1 0 0 -1 112.485 261.839)"/>
</clipPath>
</defs>
</svg>
