<svg width="200" height="278" viewBox="0 0 200 278" fill="none" xmlns="http://www.w3.org/2000/svg">
<g clip-path="url(#clip0_139_8615)">
<rect width="200" height="278" rx="16" fill="#334155"/>
<path d="M156.066 54V19.992H165.166C170.366 19.992 174.422 21.396 177.334 24.204C180.246 27.012 181.702 31.224 181.702 36.84C181.702 42.4907 180.263 46.772 177.386 49.684C174.509 52.5613 170.539 54 165.478 54H156.066ZM162.098 49.112H164.75C168.182 49.112 170.834 48.124 172.706 46.148C174.578 44.1373 175.514 41.0347 175.514 36.84C175.514 32.68 174.578 29.6467 172.706 27.74C170.834 25.8333 168.182 24.88 164.75 24.88H162.098V49.112Z" fill="#F87171"/>
<path d="M24.3333 39.3333C21.85 36.9 19.3333 33.9833 19.3333 30.1667C19.3333 27.7355 20.2991 25.4039 22.0182 23.6849C23.7373 21.9658 26.0689 21 28.5 21C31.4333 21 33.5 21.8333 36 24.3333C38.5 21.8333 40.5667 21 43.5 21C45.9312 21 48.2627 21.9658 49.9818 23.6849C51.7009 25.4039 52.6667 27.7355 52.6667 30.1667C52.6667 34 50.1667 36.9167 47.6667 39.3333L36 51L24.3333 39.3333Z" fill="#F87171" stroke="#F87171" stroke-width="4" stroke-linecap="round" stroke-linejoin="round"/>
<path d="M43.934 224V258.008H34.834C29.634 258.008 25.578 256.604 22.666 253.796C19.754 250.988 18.298 246.776 18.298 241.16C18.298 235.509 19.7367 231.228 22.614 228.316C25.4913 225.439 29.4607 224 34.522 224H43.934ZM37.902 228.888H35.25C31.818 228.888 29.166 229.876 27.294 231.852C25.422 233.863 24.486 236.965 24.486 241.16C24.486 245.32 25.422 248.353 27.294 250.26C29.166 252.167 31.818 253.12 35.25 253.12H37.902V228.888Z" fill="#F87171"/>
<path d="M175.667 238.667C178.15 241.1 180.667 244.017 180.667 247.833C180.667 250.264 179.701 252.596 177.982 254.315C176.263 256.034 173.931 257 171.5 257C168.567 257 166.5 256.167 164 253.667C161.5 256.167 159.433 257 156.5 257C154.069 257 151.737 256.034 150.018 254.315C148.299 252.596 147.333 250.264 147.333 247.833C147.333 244 149.833 241.083 152.333 238.667L164 227L175.667 238.667Z" fill="#F87171" stroke="#F87171" stroke-width="4" stroke-linecap="round" stroke-linejoin="round"/>
<g clip-path="url(#clip1_139_8615)">
<g clip-path="url(#clip2_139_8615)">
<g clip-path="url(#clip3_139_8615)">
<g clip-path="url(#clip4_139_8615)">
<g clip-path="url(#clip5_139_8615)">
<g clip-path="url(#clip6_139_8615)">
<g clip-path="url(#clip7_139_8615)">
<g clip-path="url(#clip8_139_8615)">
<g clip-path="url(#clip9_139_8615)">
<g clip-path="url(#clip10_139_8615)">
<g clip-path="url(#clip11_139_8615)">
<path d="M64.8914 144.448C64.2164 144.448 63.5811 144.345 62.9855 144.14C62.3899 143.936 61.8717 143.626 61.431 143.211C60.9883 142.797 60.6408 142.279 60.3887 141.655C60.1346 141.03 60.0075 140.302 60.0075 139.473C60.0075 138.654 60.1365 137.927 60.3946 137.291C60.6527 136.658 61.0031 136.124 61.4459 135.688C61.8866 135.255 62.3998 134.923 62.9855 134.693C63.5712 134.463 64.1866 134.348 64.8318 134.348C65.5466 134.348 66.165 134.475 66.6871 134.729C67.2073 134.985 67.6411 135.287 67.9885 135.637L66.6484 137.285C66.4102 137.076 66.16 136.903 65.898 136.767C65.6339 136.633 65.3083 136.566 64.9212 136.566C64.5936 136.566 64.2908 136.631 64.0129 136.761C63.7349 136.891 63.4917 137.076 63.2833 137.315C63.0748 137.555 62.914 137.85 62.8009 138.2C62.6857 138.549 62.6281 138.944 62.6281 139.383C62.6281 140.302 62.8316 141.007 63.2386 141.496C63.6456 141.986 64.2859 142.231 65.1594 142.231C65.2984 142.231 65.4354 142.216 65.5704 142.186C65.7034 142.156 65.8146 142.111 65.9039 142.051V140.702H64.4745V138.604H68.1672V143.25C67.8197 143.579 67.3582 143.861 66.7824 144.095C66.2067 144.33 65.5763 144.448 64.8914 144.448ZM72.3959 139.533L72.2321 140.208H74.0189L73.8551 139.533C73.736 139.064 73.6169 138.554 73.4978 138.005C73.3786 137.455 73.2595 136.936 73.1404 136.446H73.0809C72.9717 136.946 72.8595 137.467 72.7443 138.011C72.6312 138.556 72.515 139.064 72.3959 139.533ZM71.2941 144.269H68.6734L71.6216 134.528H74.7187L77.6669 144.269H74.957L74.4805 142.201H71.7705L71.2941 144.269ZM80.8832 144.269H78.5871V134.528H81.3299L82.7891 138.514C82.8784 138.784 82.9628 139.064 83.0422 139.353C83.1216 139.643 83.206 139.933 83.2953 140.223H83.3519C83.4432 139.933 83.5286 139.643 83.608 139.353C83.6855 139.064 83.7698 138.784 83.8612 138.514L85.2608 134.528H88.0005V144.269H85.6777V141.391C85.6777 141.142 85.6896 140.867 85.7135 140.567C85.7393 140.268 85.7671 139.96 85.7968 139.644C85.8266 139.33 85.8614 139.024 85.9011 138.724C85.9388 138.424 85.9735 138.155 86.0053 137.915H85.9457L85.1387 140.253L83.9475 143.474H82.5806L81.3894 140.253L80.6152 137.915H80.5556C80.5834 138.155 80.6181 138.424 80.6598 138.724C80.6995 139.024 80.7343 139.33 80.7641 139.644C80.7938 139.96 80.8206 140.268 80.8445 140.567C80.8703 140.867 80.8832 141.142 80.8832 141.391V144.269ZM96.5444 144.269H90.1417V134.528H96.3955V136.686H92.7028V138.215H95.8594V140.372H92.7028V142.111H96.5444V144.269ZM100.862 144.269H98.4205V134.528H101.041L103.185 138.874L104.108 141.062H104.168C104.138 140.802 104.104 140.517 104.064 140.208C104.024 139.898 103.989 139.58 103.96 139.255C103.93 138.931 103.903 138.606 103.879 138.28C103.853 137.957 103.84 137.645 103.84 137.345V134.528H106.282V144.269H103.662L101.518 139.908L100.594 137.735H100.535C100.594 138.294 100.664 138.904 100.743 139.563C100.823 140.223 100.862 140.852 100.862 141.451V144.269ZM110.988 144.269H108.427V134.528H110.988V144.269ZM117.599 144.448C116.924 144.448 116.288 144.345 115.693 144.14C115.097 143.936 114.578 143.626 114.135 143.211C113.695 142.797 113.347 142.279 113.093 141.655C112.841 141.03 112.715 140.302 112.715 139.473C112.715 138.654 112.844 137.927 113.102 137.291C113.36 136.658 113.709 136.124 114.15 135.688C114.593 135.255 115.107 134.923 115.693 134.693C116.278 134.463 116.894 134.348 117.539 134.348C118.254 134.348 118.871 134.475 119.391 134.729C119.914 134.985 120.348 135.287 120.696 135.637L119.356 137.285C119.118 137.076 118.866 136.903 118.602 136.767C118.34 136.633 118.016 136.566 117.629 136.566C117.301 136.566 116.998 136.631 116.72 136.761C116.442 136.891 116.199 137.076 115.991 137.315C115.782 137.555 115.62 137.85 115.505 138.2C115.392 138.549 115.335 138.944 115.335 139.383C115.335 140.302 115.539 141.007 115.946 141.496C116.353 141.986 116.993 142.231 117.867 142.231C118.006 142.231 118.142 142.216 118.275 142.186C118.41 142.156 118.522 142.111 118.611 142.051V140.702H117.182V138.604H120.875V143.25C120.527 143.579 120.065 143.861 119.49 144.095C118.914 144.33 118.284 144.448 117.599 144.448ZM125.309 144.269H122.748V134.528H125.309V138.155H128.197V134.528H130.758V144.269H128.197V140.402H125.309V144.269ZM137.31 144.269H134.749V136.686H132.188V134.528H139.871V136.686H137.31V144.269Z" fill="#475569"/>
</g>
</g>
</g>
</g>
</g>
</g>
</g>
<mask id="mask0_139_8615" style="mask-type:luminance" maskUnits="userSpaceOnUse" x="50" y="101" width="103" height="80">
<path d="M153 101H49.9999V181H153V101Z" fill="white"/>
<path d="M143.868 131.964H56.0112V146.833H143.868V131.964Z" fill="black"/>
</mask>
<g mask="url(#mask0_139_8615)">
<g clip-path="url(#clip12_139_8615)">
<path d="M113.541 154.678C111.348 153.115 111.167 152.288 111.167 151.096C111.167 149.905 110.801 148.797 109.888 147.878C108.979 146.96 107.513 144.016 107.513 136.569C107.513 129.121 109.707 124.619 109.707 124.619H114.914C114.914 124.619 116.373 111.93 117.652 108.437H110.894C110.894 108.437 110.438 111.748 110.438 113.587H107.697V108.254H101.577V113.496H98.2494V108.254H92.1269V113.587H89.3888C89.3888 111.748 88.9357 108.438 88.9357 108.438H82.172C83.4532 111.931 84.9133 124.62 84.9133 124.62H90.1203C90.1203 124.62 92.3145 129.123 92.3145 136.569C92.3145 144.016 90.8519 146.96 89.939 147.879C89.0261 148.798 88.6578 149.905 88.6578 151.097C88.6578 152.288 88.4765 153.116 86.2823 154.679C84.0944 156.242 81.8068 157.714 81.8068 160.196C81.8068 162.678 84.1854 162.866 85.1887 162.866H114.639C115.642 162.866 118.021 162.678 118.021 160.196C118.021 157.714 115.732 156.242 113.541 154.678Z" fill="#475569"/>
<path d="M82.0816 170.543C81.5007 170.543 80.9432 170.312 80.5319 169.899C80.1205 169.486 79.889 168.926 79.8882 168.341C79.8882 167.755 80.1192 167.194 80.5306 166.78C80.9419 166.366 81.4998 166.133 82.0816 166.133H117.797C118.085 166.132 118.37 166.189 118.637 166.3C118.903 166.411 119.145 166.573 119.349 166.779C119.553 166.984 119.714 167.227 119.824 167.495C119.935 167.763 119.991 168.051 119.991 168.341C119.991 168.63 119.934 168.917 119.823 169.185C119.713 169.452 119.551 169.695 119.347 169.9C119.144 170.104 118.902 170.266 118.636 170.377C118.369 170.487 118.084 170.543 117.797 170.543H82.0816Z" fill="#475569"/>
</g>
</g>
</g>
</g>
</g>
</g>
</g>
<rect x="2" y="2" width="196" height="274" rx="14" stroke="#475569" stroke-width="4"/>
<defs>
<clipPath id="clip0_139_8615">
<rect width="200" height="278" rx="16" fill="white"/>
</clipPath>
<clipPath id="clip1_139_8615">
<rect width="100" height="63" fill="white" transform="translate(50 108)"/>
</clipPath>
<clipPath id="clip2_139_8615">
<rect width="100" height="63" fill="white" transform="translate(49.9394 107.898)"/>
</clipPath>
<clipPath id="clip3_139_8615">
<rect width="99.8369" height="62.7968" fill="white" transform="translate(50.0209 108)"/>
</clipPath>
<clipPath id="clip4_139_8615">
<rect width="99.8369" height="62.7968" fill="white" transform="translate(50.0209 108)"/>
</clipPath>
<clipPath id="clip5_139_8615">
<rect width="79.8695" height="10.0999" fill="white" transform="translate(60.0046 134.348)"/>
</clipPath>
<clipPath id="clip6_139_8615">
<rect width="79.8695" height="10.0999" fill="white" transform="translate(60.0046 134.348)"/>
</clipPath>
<clipPath id="clip7_139_8615">
<rect width="79.8695" height="10.0999" fill="white" transform="translate(60.0046 134.348)"/>
</clipPath>
<clipPath id="clip8_139_8615">
<rect width="79.8695" height="10.0999" fill="white" transform="translate(60.0046 134.348)"/>
</clipPath>
<clipPath id="clip9_139_8615">
<rect width="79.8695" height="10.0999" fill="white" transform="translate(60.0046 134.348)"/>
</clipPath>
<clipPath id="clip10_139_8615">
<rect width="79.8695" height="10.0999" fill="white" transform="translate(60.0046 134.348)"/>
</clipPath>
<clipPath id="clip11_139_8615">
<rect width="79.8695" height="10.0999" fill="white" transform="translate(60.0046 134.348)"/>
</clipPath>
<clipPath id="clip12_139_8615">
<rect width="40.1025" height="62.2887" fill="white" transform="translate(79.8882 108.254)"/>
</clipPath>
</defs>
</svg>
