<svg width="200" height="278" viewBox="0 0 200 278" fill="none" xmlns="http://www.w3.org/2000/svg">
<g clip-path="url(#clip0_139_7845)">
<rect width="200" height="278" rx="16" fill="#334155"/>
<path d="M44.8 101.083C45.1985 99.7172 45.2734 98.277 45.0188 96.8769C44.7642 95.4767 44.1872 94.1551 43.3333 93.0166C42.4795 91.8782 41.3723 90.9541 40.0995 90.3177C38.8266 89.6813 37.4231 89.35 36 89.35C34.5769 89.35 33.1734 89.6813 31.9005 90.3177C30.6277 90.9541 29.5205 91.8782 28.6667 93.0166C27.8128 94.1551 27.2358 95.4767 26.9812 96.8769C26.7266 98.277 26.8015 99.7172 27.2 101.083C25.6966 101.299 24.2705 101.886 23.0499 102.789C21.8292 103.693 20.8522 104.886 20.2067 106.261C19.5612 107.636 19.2674 109.149 19.3518 110.666C19.4362 112.182 19.896 113.654 20.69 114.949C21.484 116.244 22.5872 117.321 23.9006 118.083C25.214 118.846 26.6963 119.271 28.2144 119.319C29.7324 119.367 31.2386 119.037 32.5976 118.359C33.9566 117.681 35.1257 116.675 36 115.433C36.8721 116.679 38.0402 117.688 39.3992 118.369C40.7582 119.051 42.2653 119.384 43.785 119.338C45.3046 119.292 46.789 118.869 48.1044 118.107C49.4199 117.344 50.5251 116.267 51.3205 114.971C52.116 113.676 52.5767 112.203 52.6612 110.685C52.7457 109.167 52.4513 107.651 51.8045 106.276C51.1577 104.9 50.1789 103.706 48.9562 102.803C47.7334 101.899 46.3052 101.314 44.8 101.1V101.083Z" fill="#FEF08A"/>
<path d="M36 115.433V122.667V115.433Z" fill="#FEF08A"/>
<path d="M36 115.433C35.1257 116.675 33.9566 117.681 32.5976 118.359C31.2386 119.037 29.7324 119.367 28.2144 119.319C26.6963 119.271 25.214 118.846 23.9006 118.083C22.5872 117.321 21.484 116.244 20.69 114.949C19.896 113.654 19.4362 112.182 19.3518 110.666C19.2674 109.149 19.5612 107.636 20.2067 106.261C20.8522 104.886 21.8292 103.693 23.0499 102.789C24.2705 101.886 25.6966 101.299 27.2 101.083C26.8015 99.7172 26.7266 98.277 26.9812 96.8769C27.2358 95.4767 27.8128 94.1551 28.6667 93.0166C29.5205 91.8782 30.6277 90.9541 31.9005 90.3177C33.1734 89.6813 34.5769 89.35 36 89.35C37.4231 89.35 38.8266 89.6813 40.0995 90.3177C41.3723 90.9541 42.4795 91.8782 43.3333 93.0166C44.1872 94.1551 44.7642 95.4767 45.0188 96.8769C45.2734 98.277 45.1985 99.7172 44.8 101.083V101.1C46.3052 101.314 47.7334 101.899 48.9562 102.803C50.1789 103.706 51.1577 104.9 51.8045 106.276C52.4513 107.651 52.7457 109.167 52.6612 110.685C52.5767 112.203 52.116 113.676 51.3205 114.971C50.5251 116.267 49.4199 117.344 48.1044 118.107C46.789 118.869 45.3046 119.292 43.785 119.338C42.2653 119.384 40.7582 119.051 39.3992 118.369C38.0402 117.688 36.8721 116.679 36 115.433ZM36 115.433V122.667" stroke="#FEF08A" stroke-width="4" stroke-linecap="round" stroke-linejoin="round"/>
<path d="M108.8 101.083C109.198 99.7172 109.273 98.277 109.019 96.8769C108.764 95.4767 108.187 94.1551 107.333 93.0166C106.479 91.8782 105.372 90.9541 104.099 90.3177C102.827 89.6813 101.423 89.35 100 89.35C98.5769 89.35 97.1734 89.6813 95.9005 90.3177C94.6277 90.9541 93.5205 91.8782 92.6667 93.0166C91.8128 94.1551 91.2358 95.4767 90.9812 96.8769C90.7266 98.277 90.8015 99.7172 91.2 101.083C89.6966 101.299 88.2705 101.886 87.0499 102.789C85.8292 103.693 84.8522 104.886 84.2067 106.261C83.5612 107.636 83.2674 109.149 83.3518 110.666C83.4362 112.182 83.896 113.654 84.69 114.949C85.484 116.244 86.5872 117.321 87.9006 118.083C89.214 118.846 90.6963 119.271 92.2144 119.319C93.7324 119.367 95.2386 119.037 96.5976 118.359C97.9566 117.681 99.1257 116.675 100 115.433C100.872 116.679 102.04 117.688 103.399 118.369C104.758 119.051 106.265 119.384 107.785 119.338C109.305 119.292 110.789 118.869 112.104 118.107C113.42 117.344 114.525 116.267 115.321 114.971C116.116 113.676 116.577 112.203 116.661 110.685C116.746 109.167 116.451 107.651 115.805 106.276C115.158 104.9 114.179 103.706 112.956 102.803C111.733 101.899 110.305 101.314 108.8 101.1V101.083Z" fill="#FEF08A"/>
<path d="M100 115.433V122.667V115.433Z" fill="#FEF08A"/>
<path d="M100 115.433C99.1257 116.675 97.9566 117.681 96.5976 118.359C95.2386 119.037 93.7324 119.367 92.2144 119.319C90.6963 119.271 89.214 118.846 87.9006 118.083C86.5872 117.321 85.484 116.244 84.69 114.949C83.896 113.654 83.4362 112.182 83.3518 110.666C83.2674 109.149 83.5612 107.636 84.2067 106.261C84.8522 104.886 85.8292 103.693 87.0499 102.789C88.2705 101.886 89.6966 101.299 91.2 101.083C90.8015 99.7172 90.7266 98.277 90.9812 96.8769C91.2358 95.4767 91.8128 94.1551 92.6667 93.0166C93.5205 91.8782 94.6277 90.9541 95.9005 90.3177C97.1734 89.6813 98.5769 89.35 100 89.35C101.423 89.35 102.827 89.6813 104.099 90.3177C105.372 90.9541 106.479 91.8782 107.333 93.0166C108.187 94.1551 108.764 95.4767 109.019 96.8769C109.273 98.277 109.198 99.7172 108.8 101.083V101.1C110.305 101.314 111.733 101.899 112.956 102.803C114.179 103.706 115.158 104.9 115.805 106.276C116.451 107.651 116.746 109.167 116.661 110.685C116.577 112.203 116.116 113.676 115.321 114.971C114.525 116.267 113.42 117.344 112.104 118.107C110.789 118.869 109.305 119.292 107.785 119.338C106.265 119.384 104.758 119.051 103.399 118.369C102.04 117.688 100.872 116.679 100 115.433ZM100 115.433V122.667" stroke="#FEF08A" stroke-width="4" stroke-linecap="round" stroke-linejoin="round"/>
<path d="M172.8 101.083C173.198 99.7172 173.273 98.277 173.019 96.8769C172.764 95.4767 172.187 94.1551 171.333 93.0166C170.479 91.8782 169.372 90.9541 168.099 90.3177C166.827 89.6813 165.423 89.35 164 89.35C162.577 89.35 161.173 89.6813 159.901 90.3177C158.628 90.9541 157.521 91.8782 156.667 93.0166C155.813 94.1551 155.236 95.4767 154.981 96.8769C154.727 98.277 154.802 99.7172 155.2 101.083C153.697 101.299 152.271 101.886 151.05 102.789C149.829 103.693 148.852 104.886 148.207 106.261C147.561 107.636 147.267 109.149 147.352 110.666C147.436 112.182 147.896 113.654 148.69 114.949C149.484 116.244 150.587 117.321 151.901 118.083C153.214 118.846 154.696 119.271 156.214 119.319C157.732 119.367 159.239 119.037 160.598 118.359C161.957 117.681 163.126 116.675 164 115.433C164.872 116.679 166.04 117.688 167.399 118.369C168.758 119.051 170.265 119.384 171.785 119.338C173.305 119.292 174.789 118.869 176.104 118.107C177.42 117.344 178.525 116.267 179.321 114.971C180.116 113.676 180.577 112.203 180.661 110.685C180.746 109.167 180.451 107.651 179.805 106.276C179.158 104.9 178.179 103.706 176.956 102.803C175.733 101.899 174.305 101.314 172.8 101.1V101.083Z" fill="#FEF08A"/>
<path d="M164 115.433V122.667V115.433Z" fill="#FEF08A"/>
<path d="M164 115.433C163.126 116.675 161.957 117.681 160.598 118.359C159.239 119.037 157.732 119.367 156.214 119.319C154.696 119.271 153.214 118.846 151.901 118.083C150.587 117.321 149.484 116.244 148.69 114.949C147.896 113.654 147.436 112.182 147.352 110.666C147.267 109.149 147.561 107.636 148.207 106.261C148.852 104.886 149.829 103.693 151.05 102.789C152.271 101.886 153.697 101.299 155.2 101.083C154.802 99.7172 154.727 98.277 154.981 96.8769C155.236 95.4767 155.813 94.1551 156.667 93.0166C157.521 91.8782 158.628 90.9541 159.901 90.3177C161.173 89.6813 162.577 89.35 164 89.35C165.423 89.35 166.827 89.6813 168.099 90.3177C169.372 90.9541 170.479 91.8782 171.333 93.0166C172.187 94.1551 172.764 95.4767 173.019 96.8769C173.273 98.277 173.198 99.7172 172.8 101.083V101.1C174.305 101.314 175.733 101.899 176.956 102.803C178.179 103.706 179.158 104.9 179.805 106.276C180.451 107.651 180.746 109.167 180.661 110.685C180.577 112.203 180.116 113.676 179.321 114.971C178.525 116.267 177.42 117.344 176.104 118.107C174.789 118.869 173.305 119.292 171.785 119.338C170.265 119.384 168.758 119.051 167.399 118.369C166.04 117.688 164.872 116.679 164 115.433ZM164 115.433V122.667" stroke="#FEF08A" stroke-width="4" stroke-linecap="round" stroke-linejoin="round"/>
<path d="M44.8 31.0833C45.1985 29.7172 45.2734 28.277 45.0188 26.8769C44.7642 25.4767 44.1872 24.1551 43.3333 23.0166C42.4795 21.8782 41.3723 20.9541 40.0995 20.3177C38.8266 19.6813 37.4231 19.35 36 19.35C34.5769 19.35 33.1734 19.6813 31.9005 20.3177C30.6277 20.9541 29.5205 21.8782 28.6667 23.0166C27.8128 24.1551 27.2358 25.4767 26.9812 26.8769C26.7266 28.277 26.8015 29.7172 27.2 31.0833C25.6966 31.2994 24.2705 31.8857 23.0499 32.7894C21.8292 33.6932 20.8522 34.8861 20.2067 36.2609C19.5612 37.6357 19.2674 39.1494 19.3518 40.6658C19.4362 42.1823 19.896 43.654 20.69 44.9488C21.484 46.2435 22.5872 47.3207 23.9006 48.0835C25.214 48.8463 26.6963 49.2707 28.2144 49.3188C29.7324 49.3668 31.2386 49.0369 32.5976 48.3587C33.9566 47.6805 35.1257 46.6753 36 45.4333C36.8721 46.6786 38.0402 47.6875 39.3992 48.3691C40.7582 49.0507 42.2653 49.3836 43.785 49.3377C45.3046 49.2919 46.789 48.8688 48.1044 48.1066C49.4199 47.3444 50.5251 46.267 51.3205 44.9713C52.116 43.6757 52.5767 42.2026 52.6612 40.6846C52.7457 39.1666 52.4513 37.6515 51.8045 36.2756C51.1577 34.8997 50.1789 33.7063 48.9562 32.8028C47.7334 31.8993 46.3052 31.3141 44.8 31.1V31.0833Z" fill="#FEF08A"/>
<path d="M36 45.4333V52.6666V45.4333Z" fill="#FEF08A"/>
<path d="M36 45.4333C35.1257 46.6753 33.9566 47.6805 32.5976 48.3587C31.2386 49.0369 29.7324 49.3668 28.2144 49.3188C26.6963 49.2707 25.214 48.8463 23.9006 48.0835C22.5872 47.3207 21.484 46.2435 20.69 44.9488C19.896 43.654 19.4362 42.1823 19.3518 40.6658C19.2674 39.1494 19.5612 37.6357 20.2067 36.2609C20.8522 34.8861 21.8292 33.6932 23.0499 32.7894C24.2705 31.8857 25.6966 31.2994 27.2 31.0833C26.8015 29.7172 26.7266 28.277 26.9812 26.8769C27.2358 25.4767 27.8128 24.1551 28.6667 23.0166C29.5205 21.8782 30.6277 20.9541 31.9005 20.3177C33.1734 19.6813 34.5769 19.35 36 19.35C37.4231 19.35 38.8266 19.6813 40.0995 20.3177C41.3723 20.9541 42.4795 21.8782 43.3333 23.0166C44.1872 24.1551 44.7642 25.4767 45.0188 26.8769C45.2734 28.277 45.1985 29.7172 44.8 31.0833V31.1C46.3052 31.3141 47.7334 31.8993 48.9562 32.8028C50.1789 33.7063 51.1577 34.8997 51.8045 36.2756C52.4513 37.6515 52.7457 39.1666 52.6612 40.6846C52.5767 42.2026 52.116 43.6757 51.3205 44.9713C50.5251 46.267 49.4199 47.3444 48.1044 48.1066C46.789 48.8688 45.3046 49.2919 43.785 49.3377C42.2653 49.3836 40.7582 49.0507 39.3992 48.3691C38.0402 47.6875 36.8721 46.6787 36 45.4333ZM36 45.4333V52.6666" stroke="#FEF08A" stroke-width="4" stroke-linecap="round" stroke-linejoin="round"/>
<path d="M172.8 31.0833C173.198 29.7172 173.273 28.277 173.019 26.8769C172.764 25.4767 172.187 24.1551 171.333 23.0166C170.479 21.8782 169.372 20.9541 168.099 20.3177C166.827 19.6813 165.423 19.35 164 19.35C162.577 19.35 161.173 19.6813 159.901 20.3177C158.628 20.9541 157.521 21.8782 156.667 23.0166C155.813 24.1551 155.236 25.4767 154.981 26.8769C154.727 28.277 154.802 29.7172 155.2 31.0833C153.697 31.2994 152.271 31.8857 151.05 32.7894C149.829 33.6932 148.852 34.8861 148.207 36.2609C147.561 37.6357 147.267 39.1494 147.352 40.6658C147.436 42.1823 147.896 43.654 148.69 44.9488C149.484 46.2435 150.587 47.3207 151.901 48.0835C153.214 48.8463 154.696 49.2707 156.214 49.3188C157.732 49.3668 159.239 49.0369 160.598 48.3587C161.957 47.6805 163.126 46.6753 164 45.4333C164.872 46.6786 166.04 47.6875 167.399 48.3691C168.758 49.0507 170.265 49.3836 171.785 49.3377C173.305 49.2919 174.789 48.8688 176.104 48.1066C177.42 47.3444 178.525 46.267 179.321 44.9713C180.116 43.6757 180.577 42.2026 180.661 40.6846C180.746 39.1666 180.451 37.6515 179.805 36.2756C179.158 34.8997 178.179 33.7063 176.956 32.8028C175.733 31.8993 174.305 31.3141 172.8 31.1V31.0833Z" fill="#FEF08A"/>
<path d="M164 45.4333V52.6666V45.4333Z" fill="#FEF08A"/>
<path d="M164 45.4333C163.126 46.6753 161.957 47.6805 160.598 48.3587C159.239 49.0369 157.732 49.3668 156.214 49.3188C154.696 49.2707 153.214 48.8463 151.901 48.0835C150.587 47.3207 149.484 46.2435 148.69 44.9488C147.896 43.654 147.436 42.1823 147.352 40.6658C147.267 39.1494 147.561 37.6357 148.207 36.2609C148.852 34.8861 149.829 33.6932 151.05 32.7894C152.271 31.8857 153.697 31.2994 155.2 31.0833C154.802 29.7172 154.727 28.277 154.981 26.8769C155.236 25.4767 155.813 24.1551 156.667 23.0166C157.521 21.8782 158.628 20.9541 159.901 20.3177C161.173 19.6813 162.577 19.35 164 19.35C165.423 19.35 166.827 19.6813 168.099 20.3177C169.372 20.9541 170.479 21.8782 171.333 23.0166C172.187 24.1551 172.764 25.4767 173.019 26.8769C173.273 28.277 173.198 29.7172 172.8 31.0833V31.1C174.305 31.3141 175.733 31.8993 176.956 32.8028C178.179 33.7063 179.158 34.8997 179.805 36.2756C180.451 37.6515 180.746 39.1666 180.661 40.6846C180.577 42.2026 180.116 43.6757 179.321 44.9713C178.525 46.267 177.42 47.3444 176.104 48.1066C174.789 48.8688 173.305 49.2919 171.785 49.3377C170.265 49.3836 168.758 49.0507 167.399 48.3691C166.04 47.6875 164.872 46.6787 164 45.4333ZM164 45.4333V52.6666" stroke="#FEF08A" stroke-width="4" stroke-linecap="round" stroke-linejoin="round"/>
<g clip-path="url(#clip1_139_7845)">
<g clip-path="url(#clip2_139_7845)">
<g clip-path="url(#clip3_139_7845)">
<g clip-path="url(#clip4_139_7845)">
<g clip-path="url(#clip5_139_7845)">
<g clip-path="url(#clip6_139_7845)">
<g clip-path="url(#clip7_139_7845)">
<g clip-path="url(#clip8_139_7845)">
<g clip-path="url(#clip9_139_7845)">
<g clip-path="url(#clip10_139_7845)">
<g clip-path="url(#clip11_139_7845)">
<path d="M77.4486 39.1418C77.0203 39.1418 76.6172 39.0764 76.2393 38.9458C75.8614 38.8164 75.5327 38.6198 75.253 38.3559C74.9721 38.0933 74.7517 37.7641 74.5917 37.3683C74.4305 36.9712 74.3499 36.5095 74.3499 35.983C74.3499 35.4629 74.4317 35.0011 74.5955 34.5977C74.7592 34.1956 74.9816 33.8563 75.2625 33.5797C75.5421 33.3044 75.8677 33.0938 76.2393 32.948C76.6109 32.8021 77.0014 32.7291 77.4108 32.7291C77.8643 32.7291 78.2567 32.8097 78.588 32.9708C78.918 33.1332 79.1932 33.3254 79.4137 33.5474L78.5634 34.5939C78.4122 34.4607 78.2535 34.351 78.0872 34.2647C77.9197 34.1797 77.7131 34.1372 77.4675 34.1372C77.2597 34.1372 77.0676 34.1785 76.8912 34.2609C76.7149 34.3434 76.5605 34.4607 76.4283 34.613C76.296 34.7652 76.194 34.9523 76.1222 35.1743C76.0491 35.3963 76.0126 35.6469 76.0126 35.9259C76.0126 36.5095 76.1417 36.9567 76.3999 37.2675C76.6582 37.5783 77.0644 37.7337 77.6187 37.7337C77.7068 37.7337 77.7937 37.7241 77.8794 37.7051C77.9638 37.6861 78.0343 37.6575 78.091 37.6195V36.7632H77.1841V35.4312H79.527V38.3806C79.3066 38.5899 79.0137 38.7688 78.6484 38.9172C78.2831 39.0669 77.8832 39.1418 77.4486 39.1418ZM82.2101 36.0211L82.1062 36.4492H83.2399L83.1359 36.0211C83.0604 35.723 82.9848 35.3995 82.9092 35.0506C82.8336 34.7018 82.758 34.3719 82.6825 34.0611H82.6447C82.5754 34.3783 82.5042 34.7094 82.4312 35.0544C82.3594 35.4007 82.2857 35.723 82.2101 36.0211ZM81.511 39.0276H79.8482L81.7188 32.8433H83.6839L85.5545 39.0276H83.835L83.5327 37.7146H81.8133L81.511 39.0276ZM87.5951 39.0276H86.1383V32.8433H87.8785L88.8044 35.3741C88.8611 35.5454 88.9146 35.723 88.965 35.9069C89.0154 36.0909 89.0689 36.2748 89.1256 36.4587H89.1615C89.2194 36.2748 89.2736 36.0909 89.324 35.9069C89.3731 35.723 89.4266 35.5454 89.4846 35.3741L90.3726 32.8433H92.111V39.0276H90.6372V37.2009C90.6372 37.0423 90.6447 36.8679 90.6598 36.6776C90.6762 36.4873 90.6938 36.2919 90.7127 36.0915C90.7316 35.8923 90.7537 35.6976 90.7789 35.5073C90.8028 35.317 90.8249 35.1458 90.845 34.9935H90.8072L90.2952 36.4778L89.5394 38.5233H88.6721L87.9163 36.4778L87.425 34.9935H87.3873C87.4049 35.1458 87.4269 35.317 87.4534 35.5073C87.4786 35.6976 87.5006 35.8923 87.5195 36.0915C87.5384 36.2919 87.5554 36.4873 87.5705 36.6776C87.5869 36.8679 87.5951 37.0423 87.5951 37.2009V39.0276ZM97.5319 39.0276H93.4695V32.8433H97.4374V34.2134H95.0944V35.1838H97.0973V36.5539H95.0944V37.6575H97.5319V39.0276ZM100.272 39.0276H98.7222V32.8433H100.385L101.745 35.6025L102.331 36.9915H102.369C102.35 36.8266 102.328 36.6459 102.303 36.4492C102.278 36.2526 102.256 36.0509 102.237 35.8441C102.218 35.6386 102.201 35.4325 102.186 35.2257C102.169 35.0202 102.161 34.8223 102.161 34.632V32.8433H103.71V39.0276H102.048L100.687 36.2589L100.102 34.8794H100.064C100.102 35.2346 100.146 35.6215 100.196 36.0401C100.246 36.4587 100.272 36.8583 100.272 37.2389V39.0276ZM106.696 39.0276H105.071V32.8433H106.696V39.0276ZM110.89 39.1418C110.462 39.1418 110.059 39.0764 109.681 38.9458C109.303 38.8164 108.974 38.6198 108.693 38.3559C108.413 38.0933 108.193 37.7641 108.032 37.3683C107.872 36.9712 107.792 36.5095 107.792 35.983C107.792 35.4629 107.874 35.0011 108.037 34.5977C108.201 34.1956 108.423 33.8563 108.702 33.5797C108.983 33.3044 109.31 33.0938 109.681 32.948C110.053 32.8021 110.443 32.7291 110.853 32.7291C111.306 32.7291 111.698 32.8097 112.028 32.9708C112.359 33.1332 112.635 33.3254 112.856 33.5474L112.005 34.5939C111.854 34.4607 111.695 34.351 111.527 34.2647C111.361 34.1797 111.155 34.1372 110.909 34.1372C110.702 34.1372 110.509 34.1785 110.333 34.2609C110.157 34.3434 110.002 34.4607 109.87 34.613C109.738 34.7652 109.635 34.9523 109.562 35.1743C109.49 35.3963 109.454 35.6469 109.454 35.9259C109.454 36.5095 109.584 36.9567 109.842 37.2675C110.1 37.5783 110.506 37.7337 111.061 37.7337C111.149 37.7337 111.235 37.7241 111.319 37.7051C111.405 37.6861 111.476 37.6575 111.533 37.6195V36.7632H110.626V35.4312H112.969V38.3806C112.748 38.5899 112.456 38.7688 112.09 38.9172C111.725 39.0669 111.325 39.1418 110.89 39.1418ZM115.782 39.0276H114.157V32.8433H115.782V35.1458H117.615V32.8433H119.24V39.0276H117.615V36.5729H115.782V39.0276ZM123.397 39.0276H121.772V34.2134H120.147V32.8433H125.022V34.2134H123.397V39.0276Z" fill="#475569"/>
</g>
</g>
</g>
</g>
</g>
</g>
</g>
<mask id="mask0_139_7845" style="mask-type:luminance" maskUnits="userSpaceOnUse" x="68" y="11" width="66" height="52">
<path d="M133.352 11.5555H68V62.3492H133.352V11.5555Z" fill="white"/>
<path d="M127.557 31.2152H71.814V40.6556H127.557V31.2152Z" fill="black"/>
</mask>
<g mask="url(#mask0_139_7845)">
<g clip-path="url(#clip12_139_7845)">
<path d="M108.316 45.6371C106.924 44.6444 106.809 44.1192 106.809 43.3626C106.809 42.6061 106.577 41.9029 105.998 41.3196C105.421 40.7362 104.491 38.8672 104.491 34.1388C104.491 29.4104 105.883 26.5518 105.883 26.5518H109.187C109.187 26.5518 110.113 18.4954 110.924 16.2775H106.636C106.636 16.2775 106.347 18.3795 106.347 19.547H104.608V16.1613H100.725V19.4893H98.6134V16.1613H94.7288V19.5474H92.9915C92.9915 18.3799 92.704 16.2779 92.704 16.2779H88.4126C89.2255 18.4958 90.1519 26.5522 90.1519 26.5522H93.4557C93.4557 26.5522 94.8478 29.4111 94.8478 34.1392C94.8478 38.8672 93.9199 40.7366 93.3406 41.32C92.7614 41.9033 92.5277 42.6061 92.5277 43.363C92.5277 44.1196 92.4127 44.6448 91.0205 45.6375C89.6323 46.6301 88.1809 47.5646 88.1809 49.1403C88.1809 50.7159 89.6901 50.8357 90.3266 50.8357H109.012C109.649 50.8357 111.158 50.7159 111.158 49.1403C111.158 47.5646 109.706 46.6297 108.316 45.6371Z" fill="#475569"/>
<path d="M88.3553 55.7097C87.9867 55.7101 87.633 55.5631 87.372 55.3009C87.111 55.0387 86.9641 54.6829 86.9636 54.3117C86.9636 53.9399 87.1102 53.5834 87.3712 53.3204C87.6322 53.0575 87.9862 52.9098 88.3553 52.9097H111.016C111.199 52.9094 111.38 52.9455 111.549 53.0159C111.718 53.0862 111.871 53.1895 112.001 53.3197C112.13 53.45 112.233 53.6046 112.302 53.7748C112.372 53.945 112.408 54.1275 112.408 54.3117C112.408 54.4956 112.372 54.6777 112.302 54.8475C112.232 55.0174 112.129 55.1716 112 55.3015C111.87 55.4314 111.717 55.5343 111.548 55.6043C111.379 55.6744 111.198 55.7102 111.016 55.7097H88.3553Z" fill="#475569"/>
</g>
</g>
</g>
</g>
</g>
</g>
<path d="M155.2 176.917C154.802 178.283 154.727 179.723 154.981 181.123C155.236 182.523 155.813 183.845 156.667 184.983C157.521 186.122 158.628 187.046 159.901 187.682C161.173 188.319 162.577 188.65 164 188.65C165.423 188.65 166.827 188.319 168.099 187.682C169.372 187.046 170.479 186.122 171.333 184.983C172.187 183.845 172.764 182.523 173.019 181.123C173.273 179.723 173.198 178.283 172.8 176.917C174.303 176.701 175.729 176.114 176.95 175.211C178.171 174.307 179.148 173.114 179.793 171.739C180.439 170.364 180.733 168.851 180.648 167.334C180.564 165.818 180.104 164.346 179.31 163.051C178.516 161.756 177.413 160.679 176.099 159.917C174.786 159.154 173.304 158.729 171.786 158.681C170.268 158.633 168.761 158.963 167.402 159.641C166.043 160.319 164.874 161.325 164 162.567C163.128 161.321 161.96 160.312 160.601 159.631C159.242 158.949 157.735 158.616 156.215 158.662C154.695 158.708 153.211 159.131 151.896 159.893C150.58 160.656 149.475 161.733 148.679 163.029C147.884 164.324 147.423 165.797 147.339 167.315C147.254 168.833 147.549 170.349 148.195 171.724C148.842 173.1 149.821 174.294 151.044 175.197C152.267 176.101 153.695 176.686 155.2 176.9V176.917Z" fill="#FEF08A"/>
<path d="M164 162.567V155.333V162.567Z" fill="#FEF08A"/>
<path d="M164 162.567C164.874 161.325 166.043 160.319 167.402 159.641C168.761 158.963 170.268 158.633 171.786 158.681C173.304 158.729 174.786 159.154 176.099 159.917C177.413 160.679 178.516 161.756 179.31 163.051C180.104 164.346 180.564 165.818 180.648 167.334C180.733 168.851 180.439 170.364 179.793 171.739C179.148 173.114 178.171 174.307 176.95 175.211C175.729 176.114 174.303 176.701 172.8 176.917C173.198 178.283 173.273 179.723 173.019 181.123C172.764 182.523 172.187 183.845 171.333 184.983C170.479 186.122 169.372 187.046 168.099 187.682C166.827 188.319 165.423 188.65 164 188.65C162.577 188.65 161.173 188.319 159.901 187.682C158.628 187.046 157.521 186.122 156.667 184.983C155.813 183.845 155.236 182.523 154.981 181.123C154.727 179.723 154.802 178.283 155.2 176.917V176.9C153.695 176.686 152.267 176.101 151.044 175.197C149.821 174.294 148.842 173.1 148.195 171.724C147.549 170.349 147.254 168.833 147.339 167.315C147.423 165.797 147.884 164.324 148.679 163.029C149.475 161.733 150.58 160.656 151.896 159.893C153.211 159.131 154.695 158.708 156.215 158.662C157.735 158.616 159.242 158.949 160.601 159.631C161.96 160.312 163.128 161.321 164 162.567ZM164 162.567V155.333" stroke="#FEF08A" stroke-width="4" stroke-linecap="round" stroke-linejoin="round"/>
<path d="M91.2 176.917C90.8015 178.283 90.7266 179.723 90.9812 181.123C91.2358 182.523 91.8128 183.845 92.6667 184.983C93.5205 186.122 94.6277 187.046 95.9005 187.682C97.1734 188.319 98.5769 188.65 100 188.65C101.423 188.65 102.827 188.319 104.099 187.682C105.372 187.046 106.479 186.122 107.333 184.983C108.187 183.845 108.764 182.523 109.019 181.123C109.273 179.723 109.198 178.283 108.8 176.917C110.303 176.701 111.729 176.114 112.95 175.211C114.171 174.307 115.148 173.114 115.793 171.739C116.439 170.364 116.733 168.851 116.648 167.334C116.564 165.818 116.104 164.346 115.31 163.051C114.516 161.756 113.413 160.679 112.099 159.917C110.786 159.154 109.304 158.729 107.786 158.681C106.268 158.633 104.761 158.963 103.402 159.641C102.043 160.319 100.874 161.325 100 162.567C99.1279 161.321 97.9598 160.312 96.6008 159.631C95.2418 158.949 93.7347 158.616 92.215 158.662C90.6954 158.708 89.211 159.131 87.8956 159.893C86.5801 160.656 85.4749 161.733 84.6795 163.029C83.884 164.324 83.4233 165.797 83.3388 167.315C83.2543 168.833 83.5487 170.349 84.1955 171.724C84.8423 173.1 85.8211 174.294 87.0438 175.197C88.2666 176.101 89.6948 176.686 91.2 176.9V176.917Z" fill="#FEF08A"/>
<path d="M100 162.567V155.333V162.567Z" fill="#FEF08A"/>
<path d="M100 162.567C100.874 161.325 102.043 160.319 103.402 159.641C104.761 158.963 106.268 158.633 107.786 158.681C109.304 158.729 110.786 159.154 112.099 159.917C113.413 160.679 114.516 161.756 115.31 163.051C116.104 164.346 116.564 165.818 116.648 167.334C116.733 168.851 116.439 170.364 115.793 171.739C115.148 173.114 114.171 174.307 112.95 175.211C111.729 176.114 110.303 176.701 108.8 176.917C109.198 178.283 109.273 179.723 109.019 181.123C108.764 182.523 108.187 183.845 107.333 184.983C106.479 186.122 105.372 187.046 104.099 187.682C102.827 188.319 101.423 188.65 100 188.65C98.5769 188.65 97.1734 188.319 95.9005 187.682C94.6277 187.046 93.5205 186.122 92.6667 184.983C91.8128 183.845 91.2358 182.523 90.9812 181.123C90.7266 179.723 90.8015 178.283 91.2 176.917V176.9C89.6948 176.686 88.2666 176.101 87.0438 175.197C85.8211 174.294 84.8423 173.1 84.1955 171.724C83.5487 170.349 83.2543 168.833 83.3388 167.315C83.4233 165.797 83.884 164.324 84.6795 163.029C85.4749 161.733 86.5801 160.656 87.8956 159.893C89.211 159.131 90.6954 158.708 92.215 158.662C93.7347 158.616 95.2418 158.949 96.6008 159.631C97.9598 160.312 99.1279 161.321 100 162.567ZM100 162.567V155.333" stroke="#FEF08A" stroke-width="4" stroke-linecap="round" stroke-linejoin="round"/>
<path d="M27.2 176.917C26.8015 178.283 26.7266 179.723 26.9812 181.123C27.2358 182.523 27.8128 183.845 28.6667 184.983C29.5205 186.122 30.6277 187.046 31.9005 187.682C33.1734 188.319 34.5769 188.65 36 188.65C37.4231 188.65 38.8266 188.319 40.0995 187.682C41.3723 187.046 42.4795 186.122 43.3333 184.983C44.1872 183.845 44.7642 182.523 45.0188 181.123C45.2734 179.723 45.1985 178.283 44.8 176.917C46.3034 176.701 47.7295 176.114 48.9501 175.211C50.1708 174.307 51.1478 173.114 51.7933 171.739C52.4388 170.364 52.7326 168.851 52.6482 167.334C52.5638 165.818 52.104 164.346 51.31 163.051C50.516 161.756 49.4128 160.679 48.0994 159.917C46.786 159.154 45.3037 158.729 43.7856 158.681C42.2676 158.633 40.7614 158.963 39.4024 159.641C38.0434 160.319 36.8743 161.325 36 162.567C35.1279 161.321 33.9598 160.312 32.6008 159.631C31.2418 158.949 29.7347 158.616 28.215 158.662C26.6954 158.708 25.211 159.131 23.8956 159.893C22.5801 160.656 21.4749 161.733 20.6795 163.029C19.884 164.324 19.4233 165.797 19.3388 167.315C19.2543 168.833 19.5487 170.349 20.1955 171.724C20.8423 173.1 21.8211 174.294 23.0438 175.197C24.2666 176.101 25.6948 176.686 27.2 176.9V176.917Z" fill="#FEF08A"/>
<path d="M36 162.567V155.333V162.567Z" fill="#FEF08A"/>
<path d="M36 162.567C36.8743 161.325 38.0434 160.319 39.4024 159.641C40.7614 158.963 42.2676 158.633 43.7856 158.681C45.3037 158.729 46.786 159.154 48.0994 159.917C49.4128 160.679 50.516 161.756 51.31 163.051C52.104 164.346 52.5638 165.818 52.6482 167.334C52.7326 168.851 52.4388 170.364 51.7933 171.739C51.1478 173.114 50.1708 174.307 48.9501 175.211C47.7295 176.114 46.3034 176.701 44.8 176.917C45.1985 178.283 45.2734 179.723 45.0188 181.123C44.7642 182.523 44.1872 183.845 43.3333 184.983C42.4795 186.122 41.3723 187.046 40.0995 187.682C38.8266 188.319 37.4231 188.65 36 188.65C34.5769 188.65 33.1734 188.319 31.9005 187.682C30.6277 187.046 29.5205 186.122 28.6667 184.983C27.8128 183.845 27.2358 182.523 26.9812 181.123C26.7266 179.723 26.8015 178.283 27.2 176.917V176.9C25.6948 176.686 24.2666 176.101 23.0438 175.197C21.8211 174.294 20.8423 173.1 20.1955 171.724C19.5487 170.349 19.2543 168.833 19.3388 167.315C19.4233 165.797 19.884 164.324 20.6795 163.029C21.4749 161.733 22.5801 160.656 23.8956 159.893C25.211 159.131 26.6954 158.708 28.215 158.662C29.7347 158.616 31.2418 158.949 32.6008 159.631C33.9598 160.312 35.1279 161.321 36 162.567ZM36 162.567V155.333" stroke="#FEF08A" stroke-width="4" stroke-linecap="round" stroke-linejoin="round"/>
<path d="M155.2 246.917C154.802 248.283 154.727 249.723 154.981 251.123C155.236 252.523 155.813 253.845 156.667 254.983C157.521 256.122 158.628 257.046 159.901 257.682C161.173 258.319 162.577 258.65 164 258.65C165.423 258.65 166.827 258.319 168.099 257.682C169.372 257.046 170.479 256.122 171.333 254.983C172.187 253.845 172.764 252.523 173.019 251.123C173.273 249.723 173.198 248.283 172.8 246.917C174.303 246.701 175.729 246.114 176.95 245.211C178.171 244.307 179.148 243.114 179.793 241.739C180.439 240.364 180.733 238.851 180.648 237.334C180.564 235.818 180.104 234.346 179.31 233.051C178.516 231.756 177.413 230.679 176.099 229.917C174.786 229.154 173.304 228.729 171.786 228.681C170.268 228.633 168.761 228.963 167.402 229.641C166.043 230.319 164.874 231.325 164 232.567C163.128 231.321 161.96 230.312 160.601 229.631C159.242 228.949 157.735 228.616 156.215 228.662C154.695 228.708 153.211 229.131 151.896 229.893C150.58 230.656 149.475 231.733 148.679 233.029C147.884 234.324 147.423 235.797 147.339 237.315C147.254 238.833 147.549 240.349 148.195 241.724C148.842 243.1 149.821 244.294 151.044 245.197C152.267 246.101 153.695 246.686 155.2 246.9V246.917Z" fill="#FEF08A"/>
<path d="M164 232.567V225.333V232.567Z" fill="#FEF08A"/>
<path d="M164 232.567C164.874 231.325 166.043 230.319 167.402 229.641C168.761 228.963 170.268 228.633 171.786 228.681C173.304 228.729 174.786 229.154 176.099 229.917C177.413 230.679 178.516 231.756 179.31 233.051C180.104 234.346 180.564 235.818 180.648 237.334C180.733 238.851 180.439 240.364 179.793 241.739C179.148 243.114 178.171 244.307 176.95 245.211C175.729 246.114 174.303 246.701 172.8 246.917C173.198 248.283 173.273 249.723 173.019 251.123C172.764 252.523 172.187 253.845 171.333 254.983C170.479 256.122 169.372 257.046 168.099 257.682C166.827 258.319 165.423 258.65 164 258.65C162.577 258.65 161.173 258.319 159.901 257.682C158.628 257.046 157.521 256.122 156.667 254.983C155.813 253.845 155.236 252.523 154.981 251.123C154.727 249.723 154.802 248.283 155.2 246.917V246.9C153.695 246.686 152.267 246.101 151.044 245.197C149.821 244.294 148.842 243.1 148.195 241.724C147.549 240.349 147.254 238.833 147.339 237.315C147.423 235.797 147.884 234.324 148.679 233.029C149.475 231.733 150.58 230.656 151.896 229.893C153.211 229.131 154.695 228.708 156.215 228.662C157.735 228.616 159.242 228.949 160.601 229.631C161.96 230.312 163.128 231.321 164 232.567ZM164 232.567V225.333" stroke="#FEF08A" stroke-width="4" stroke-linecap="round" stroke-linejoin="round"/>
<path d="M27.2 246.917C26.8015 248.283 26.7266 249.723 26.9812 251.123C27.2358 252.523 27.8128 253.845 28.6667 254.983C29.5205 256.122 30.6277 257.046 31.9005 257.682C33.1734 258.319 34.5769 258.65 36 258.65C37.4231 258.65 38.8266 258.319 40.0995 257.682C41.3723 257.046 42.4795 256.122 43.3333 254.983C44.1872 253.845 44.7642 252.523 45.0188 251.123C45.2734 249.723 45.1985 248.283 44.8 246.917C46.3034 246.701 47.7295 246.114 48.9501 245.211C50.1708 244.307 51.1478 243.114 51.7933 241.739C52.4388 240.364 52.7326 238.851 52.6482 237.334C52.5638 235.818 52.104 234.346 51.31 233.051C50.516 231.756 49.4128 230.679 48.0994 229.917C46.786 229.154 45.3037 228.729 43.7856 228.681C42.2676 228.633 40.7614 228.963 39.4024 229.641C38.0434 230.319 36.8743 231.325 36 232.567C35.1279 231.321 33.9598 230.312 32.6008 229.631C31.2418 228.949 29.7347 228.616 28.215 228.662C26.6954 228.708 25.211 229.131 23.8956 229.893C22.5801 230.656 21.4749 231.733 20.6795 233.029C19.884 234.324 19.4233 235.797 19.3388 237.315C19.2543 238.833 19.5487 240.349 20.1955 241.724C20.8423 243.1 21.8211 244.294 23.0438 245.197C24.2666 246.101 25.6948 246.686 27.2 246.9V246.917Z" fill="#FEF08A"/>
<path d="M36 232.567V225.333V232.567Z" fill="#FEF08A"/>
<path d="M36 232.567C36.8743 231.325 38.0434 230.319 39.4024 229.641C40.7614 228.963 42.2676 228.633 43.7856 228.681C45.3037 228.729 46.786 229.154 48.0994 229.917C49.4128 230.679 50.516 231.756 51.31 233.051C52.104 234.346 52.5638 235.818 52.6482 237.334C52.7326 238.851 52.4388 240.364 51.7933 241.739C51.1478 243.114 50.1708 244.307 48.9501 245.211C47.7295 246.114 46.3034 246.701 44.8 246.917C45.1985 248.283 45.2734 249.723 45.0188 251.123C44.7642 252.523 44.1872 253.845 43.3333 254.983C42.4795 256.122 41.3723 257.046 40.0995 257.682C38.8266 258.319 37.4231 258.65 36 258.65C34.5769 258.65 33.1734 258.319 31.9005 257.682C30.6277 257.046 29.5205 256.122 28.6667 254.983C27.8128 253.845 27.2358 252.523 26.9812 251.123C26.7266 249.723 26.8015 248.283 27.2 246.917V246.9C25.6948 246.686 24.2666 246.101 23.0438 245.197C21.8211 244.294 20.8423 243.1 20.1955 241.724C19.5487 240.349 19.2543 238.833 19.3388 237.315C19.4233 235.797 19.884 234.324 20.6795 233.029C21.4749 231.733 22.5801 230.656 23.8956 229.893C25.211 229.131 26.6954 228.708 28.215 228.662C29.7347 228.616 31.2418 228.949 32.6008 229.631C33.9598 230.312 35.1279 231.321 36 232.567ZM36 232.567V225.333" stroke="#FEF08A" stroke-width="4" stroke-linecap="round" stroke-linejoin="round"/>
<g clip-path="url(#clip13_139_7845)">
<g clip-path="url(#clip14_139_7845)">
<g clip-path="url(#clip15_139_7845)">
<g clip-path="url(#clip16_139_7845)">
<g clip-path="url(#clip17_139_7845)">
<g clip-path="url(#clip18_139_7845)">
<g clip-path="url(#clip19_139_7845)">
<g clip-path="url(#clip20_139_7845)">
<g clip-path="url(#clip21_139_7845)">
<g clip-path="url(#clip22_139_7845)">
<g clip-path="url(#clip23_139_7845)">
<path d="M122.41 238.794C122.838 238.794 123.241 238.859 123.619 238.99C123.997 239.119 124.325 239.316 124.605 239.58C124.886 239.842 125.106 240.171 125.266 240.567C125.428 240.964 125.508 241.426 125.508 241.952C125.508 242.473 125.426 242.934 125.263 243.338C125.099 243.74 124.877 244.079 124.596 244.356C124.316 244.631 123.99 244.842 123.619 244.987C123.247 245.133 122.857 245.206 122.447 245.206C121.994 245.206 121.601 245.126 121.27 244.965C120.94 244.802 120.665 244.61 120.444 244.388L121.295 243.341C121.446 243.475 121.605 243.584 121.771 243.671C121.938 243.756 122.145 243.798 122.391 243.798C122.599 243.798 122.791 243.757 122.967 243.674C123.143 243.592 123.298 243.475 123.43 243.322C123.562 243.17 123.664 242.983 123.736 242.761C123.809 242.539 123.846 242.289 123.846 242.009C123.846 241.426 123.716 240.979 123.458 240.668C123.2 240.357 122.794 240.202 122.24 240.202C122.151 240.202 122.064 240.211 121.979 240.23C121.894 240.249 121.824 240.278 121.767 240.316V241.172H122.674V242.504H120.331V239.555C120.552 239.345 120.844 239.167 121.21 239.018C121.575 238.868 121.975 238.794 122.41 238.794ZM117.648 241.914L117.752 241.486H116.618L116.722 241.914C116.798 242.212 116.873 242.536 116.949 242.885C117.025 243.234 117.1 243.563 117.176 243.874H117.213C117.283 243.557 117.354 243.226 117.427 242.881C117.499 242.535 117.572 242.212 117.648 241.914ZM118.347 238.908H120.01L118.139 245.092H116.174L114.304 238.908H116.023L116.325 240.221H118.045L118.347 238.908ZM112.263 238.908H113.72V245.092H111.98L111.054 242.561C110.997 242.39 110.944 242.212 110.893 242.029C110.843 241.845 110.789 241.661 110.733 241.477H110.697C110.639 241.661 110.585 241.845 110.534 242.029C110.485 242.212 110.432 242.39 110.374 242.561L109.486 245.092H107.747V238.908H109.221V240.735C109.221 240.893 109.213 241.068 109.198 241.258C109.182 241.448 109.164 241.644 109.145 241.844C109.127 242.043 109.104 242.238 109.079 242.428C109.055 242.618 109.033 242.79 109.013 242.942H109.051L109.563 241.458L110.319 239.412H111.186L111.942 241.458L112.433 242.942H112.471C112.453 242.79 112.431 242.618 112.405 242.428C112.38 242.238 112.358 242.043 112.339 241.844C112.32 241.644 112.303 241.448 112.288 241.258C112.271 241.068 112.263 240.893 112.263 240.735V238.908ZM102.326 238.908H106.389V245.092H102.421V243.722H104.764V242.752H102.761V241.382H104.764V240.278H102.326V238.908ZM99.5865 238.908H101.136V245.092H99.4732L98.1127 242.333L97.527 240.944H97.4892C97.5081 241.109 97.5302 241.29 97.5553 241.486C97.5805 241.683 97.6026 241.885 97.6215 242.091C97.6404 242.297 97.6574 242.503 97.6725 242.71C97.6889 242.915 97.6971 243.113 97.6971 243.303V245.092H96.1477V238.908H97.8104L99.1709 241.676L99.7566 243.056H99.7944C99.7566 242.701 99.7125 242.314 99.6621 241.895C99.6117 241.477 99.5865 241.077 99.5865 240.697V238.908ZM93.1623 238.908H94.7873V245.092H93.1623V238.908ZM88.9677 238.794C89.3959 238.794 89.799 238.859 90.1769 238.99C90.5548 239.119 90.8842 239.316 91.1651 239.58C91.4448 239.842 91.6652 240.171 91.8264 240.567C91.9864 240.964 92.0664 241.426 92.0664 241.952C92.0664 242.473 91.9845 242.934 91.8208 243.338C91.657 243.74 91.4353 244.079 91.1557 244.356C90.8748 244.631 90.5485 244.842 90.1769 244.987C89.8053 245.133 89.4148 245.206 89.0055 245.206C88.552 245.206 88.1602 245.126 87.8302 244.965C87.4989 244.802 87.223 244.61 87.0026 244.388L87.8529 243.341C88.004 243.475 88.1634 243.584 88.3309 243.671C88.4972 243.756 88.7031 243.798 88.9488 243.798C89.1566 243.798 89.3487 243.757 89.5251 243.674C89.7014 243.592 89.8557 243.475 89.988 243.322C90.1202 243.17 90.2229 242.983 90.296 242.761C90.3678 242.539 90.4037 242.289 90.4037 242.009C90.4037 241.426 90.2746 240.979 90.0163 240.668C89.7581 240.357 89.3519 240.202 88.7976 240.202C88.7094 240.202 88.6231 240.211 88.5387 240.23C88.4531 240.249 88.3819 240.278 88.3252 240.316V241.172H89.2322V242.504H86.8892V239.555C87.1097 239.345 87.4025 239.167 87.7678 239.018C88.1331 238.868 88.5331 238.794 88.9677 238.794ZM84.0758 238.908H85.7008V245.092H84.0758V242.79H82.243V245.092H80.6181V238.908H82.243V241.363H84.0758V238.908ZM76.4612 238.908H78.0862V243.722H79.7111V245.092H74.8363V243.722H76.4612V238.908Z" fill="#475569"/>
</g>
</g>
</g>
</g>
</g>
</g>
</g>
<mask id="mask1_139_7845" style="mask-type:luminance" maskUnits="userSpaceOnUse" x="66" y="215" width="66" height="52">
<path d="M66.5064 266.38H131.858V215.586H66.5064V266.38Z" fill="white"/>
<path d="M72.3007 246.72H128.044V237.28H72.3007V246.72Z" fill="black"/>
</mask>
<g mask="url(#mask1_139_7845)">
<g clip-path="url(#clip24_139_7845)">
<path d="M91.5422 232.298C92.934 233.291 93.049 233.816 93.049 234.573C93.049 235.329 93.2811 236.033 93.86 236.616C94.4372 237.199 95.3672 239.068 95.3672 243.797C95.3672 248.525 93.975 251.384 93.975 251.384H90.6716C90.6716 251.384 89.7456 259.44 88.9343 261.658H93.2218C93.2218 261.658 93.5113 259.556 93.5113 258.388H95.2505V261.774H99.1336V258.446H101.245V261.774H105.129V258.388H106.867C106.867 259.556 107.154 261.658 107.154 261.658H111.446C110.633 259.44 109.706 251.383 109.706 251.383H106.402C106.402 251.383 105.01 248.524 105.01 243.796C105.01 239.068 105.938 237.199 106.518 236.615C107.097 236.032 107.33 235.329 107.33 234.572C107.33 233.816 107.445 233.291 108.838 232.298C110.226 231.305 111.677 230.371 111.677 228.795C111.677 227.22 110.168 227.1 109.532 227.1H90.846C90.2094 227.1 88.7003 227.22 88.7003 228.795C88.7003 230.371 90.1521 231.306 91.5422 232.298Z" fill="#475569"/>
<path d="M111.503 222.226C111.871 222.225 112.225 222.372 112.486 222.635C112.747 222.897 112.894 223.253 112.895 223.624C112.895 223.996 112.748 224.352 112.487 224.615C112.226 224.878 111.872 225.026 111.503 225.026H88.8424C88.6595 225.026 88.4784 224.99 88.3093 224.92C88.1403 224.849 87.9868 224.746 87.8574 224.616C87.7281 224.486 87.6256 224.331 87.5557 224.161C87.4858 223.99 87.45 223.808 87.4503 223.624C87.4503 223.44 87.4864 223.258 87.5564 223.088C87.6264 222.918 87.7291 222.764 87.8584 222.634C87.9877 222.504 88.1412 222.401 88.31 222.331C88.4789 222.261 88.6598 222.225 88.8424 222.226H111.503Z" fill="#475569"/>
</g>
</g>
</g>
</g>
</g>
</g>
</g>
<rect x="2" y="2" width="196" height="274" rx="14" stroke="#475569" stroke-width="4"/>
<defs>
<clipPath id="clip0_139_7845">
<rect width="200" height="278" rx="16" fill="white"/>
</clipPath>
<clipPath id="clip1_139_7845">
<rect width="63.4483" height="40" fill="white" transform="translate(68 16)"/>
</clipPath>
<clipPath id="clip2_139_7845">
<rect width="63.4483" height="40" fill="white" transform="translate(67.9615 15.9355)"/>
</clipPath>
<clipPath id="clip3_139_7845">
<rect width="63.3448" height="39.871" fill="white" transform="translate(68.0133 16)"/>
</clipPath>
<clipPath id="clip4_139_7845">
<rect width="63.3448" height="39.871" fill="white" transform="translate(68.0133 16)"/>
</clipPath>
<clipPath id="clip5_139_7845">
<rect width="50.6758" height="6.41265" fill="white" transform="translate(74.3478 32.7291)"/>
</clipPath>
<clipPath id="clip6_139_7845">
<rect width="50.6758" height="6.41265" fill="white" transform="translate(74.3478 32.7291)"/>
</clipPath>
<clipPath id="clip7_139_7845">
<rect width="50.6758" height="6.41265" fill="white" transform="translate(74.3478 32.7291)"/>
</clipPath>
<clipPath id="clip8_139_7845">
<rect width="50.6758" height="6.41265" fill="white" transform="translate(74.3478 32.7291)"/>
</clipPath>
<clipPath id="clip9_139_7845">
<rect width="50.6758" height="6.41265" fill="white" transform="translate(74.3478 32.7291)"/>
</clipPath>
<clipPath id="clip10_139_7845">
<rect width="50.6758" height="6.41265" fill="white" transform="translate(74.3478 32.7291)"/>
</clipPath>
<clipPath id="clip11_139_7845">
<rect width="50.6758" height="6.41265" fill="white" transform="translate(74.3478 32.7291)"/>
</clipPath>
<clipPath id="clip12_139_7845">
<rect width="25.4443" height="39.5484" fill="white" transform="translate(86.9636 16.1613)"/>
</clipPath>
<clipPath id="clip13_139_7845">
<rect width="63.4483" height="40" fill="white" transform="matrix(-1 0 0 -1 131.448 262)"/>
</clipPath>
<clipPath id="clip14_139_7845">
<rect width="63.4483" height="40" fill="white" transform="matrix(-1 0 0 -1 131.897 262)"/>
</clipPath>
<clipPath id="clip15_139_7845">
<rect width="63.3448" height="39.871" fill="white" transform="matrix(-1 0 0 -1 131.845 261.935)"/>
</clipPath>
<clipPath id="clip16_139_7845">
<rect width="63.3448" height="39.871" fill="white" transform="matrix(-1 0 0 -1 131.845 261.935)"/>
</clipPath>
<clipPath id="clip17_139_7845">
<rect width="50.6758" height="6.41265" fill="white" transform="matrix(-1 0 0 -1 125.51 245.206)"/>
</clipPath>
<clipPath id="clip18_139_7845">
<rect width="50.6758" height="6.41265" fill="white" transform="matrix(-1 0 0 -1 125.51 245.206)"/>
</clipPath>
<clipPath id="clip19_139_7845">
<rect width="50.6758" height="6.41265" fill="white" transform="matrix(-1 0 0 -1 125.51 245.206)"/>
</clipPath>
<clipPath id="clip20_139_7845">
<rect width="50.6758" height="6.41265" fill="white" transform="matrix(-1 0 0 -1 125.51 245.206)"/>
</clipPath>
<clipPath id="clip21_139_7845">
<rect width="50.6758" height="6.41265" fill="white" transform="matrix(-1 0 0 -1 125.51 245.206)"/>
</clipPath>
<clipPath id="clip22_139_7845">
<rect width="50.6758" height="6.41265" fill="white" transform="matrix(-1 0 0 -1 125.51 245.206)"/>
</clipPath>
<clipPath id="clip23_139_7845">
<rect width="50.6758" height="6.41265" fill="white" transform="matrix(-1 0 0 -1 125.51 245.206)"/>
</clipPath>
<clipPath id="clip24_139_7845">
<rect width="25.4443" height="39.5484" fill="white" transform="matrix(-1 0 0 -1 112.895 261.774)"/>
</clipPath>
</defs>
</svg>
