<svg width="200" height="278" viewBox="0 0 200 278" fill="none" xmlns="http://www.w3.org/2000/svg">
<g clip-path="url(#clip0_139_7944)">
<rect width="200" height="278" rx="16" fill="#334155"/>
<path d="M96.786 35.904L95.59 40.064H104.274L103.078 35.904C102.523 34.1013 101.986 32.2467 101.466 30.34C100.981 28.4333 100.495 26.544 100.01 24.672H99.802C99.3513 26.5787 98.866 28.4853 98.346 30.392C97.8606 32.264 97.3406 34.1013 96.786 35.904ZM85.398 54L96.474 19.992H103.546L114.622 54H108.278L105.626 44.796H94.186L91.534 54H85.398Z" fill="#FEF08A"/>
<g clip-path="url(#clip1_139_7944)">
<path d="M174.053 35.263C174.992 34.1933 175.668 32.9197 176.029 31.5432C176.39 30.1666 176.426 28.725 176.133 27.3323C175.841 25.9397 175.228 24.6343 174.343 23.5196C173.458 22.4048 172.326 21.5114 171.037 20.91C169.747 20.3086 168.335 20.0157 166.912 20.0546C165.49 20.0934 164.096 20.463 162.841 21.1339C161.586 21.8049 160.504 22.7588 159.682 23.9201C158.859 25.0815 158.319 26.4184 158.102 27.8249C156.649 27.3855 155.108 27.3141 153.62 27.6173C152.132 27.9205 150.742 28.5887 149.576 29.5619C148.41 30.5351 147.504 31.7828 146.94 33.1929C146.375 34.6029 146.17 36.1311 146.342 37.6401C146.515 39.1491 147.06 40.5916 147.928 41.8379C148.795 43.0843 149.96 44.0955 151.315 44.7806C152.671 45.4657 154.175 45.8032 155.693 45.7629C157.212 45.7226 158.696 45.3056 160.013 44.5495C160.277 46.0467 160.91 47.4548 161.853 48.6468C162.797 49.8389 164.022 50.7775 165.419 51.3782C166.815 51.9789 168.34 52.2228 169.854 52.0879C171.368 51.953 172.825 51.4436 174.094 50.6056C175.362 49.7675 176.402 48.6271 177.12 47.2871C177.838 45.947 178.212 44.4494 178.207 42.9291C178.203 41.4088 177.82 39.9135 177.093 38.5779C176.367 37.2423 175.32 36.1083 174.046 35.2781L174.053 35.263Z" fill="#FEF08A"/>
<path d="M160.013 44.5495L156.956 51.1051L160.013 44.5495Z" fill="#FEF08A"/>
<path d="M160.013 44.5495C158.696 45.3056 157.212 45.7226 155.693 45.7629C154.175 45.8032 152.671 45.4657 151.315 44.7806C149.96 44.0955 148.795 43.0843 147.928 41.8379C147.06 40.5916 146.515 39.1491 146.342 37.6401C146.17 36.1311 146.375 34.6029 146.94 33.1929C147.504 31.7828 148.41 30.5351 149.576 29.5619C150.742 28.5887 152.132 27.9205 153.62 27.6173C155.108 27.3141 156.649 27.3855 158.102 27.8249C158.319 26.4184 158.859 25.0815 159.682 23.9201C160.504 22.7588 161.586 21.8049 162.841 21.1339C164.096 20.463 165.49 20.0934 166.912 20.0546C168.335 20.0157 169.747 20.3086 171.037 20.91C172.326 21.5114 173.458 22.4048 174.343 23.5196C175.228 24.6343 175.841 25.9397 176.133 27.3323C176.426 28.725 176.39 30.1666 176.029 31.5432C175.668 32.9197 174.992 34.1933 174.053 35.263L174.046 35.2781C175.32 36.1083 176.367 37.2423 177.093 38.5779C177.82 39.9135 178.203 41.4088 178.207 42.9291C178.212 44.4494 177.838 45.947 177.12 47.2871C176.402 48.6271 175.362 49.7675 174.094 50.6056C172.825 51.4436 171.368 51.953 169.854 52.0879C168.34 52.2228 166.815 51.9789 165.419 51.3782C164.022 50.7775 162.797 49.8389 161.853 48.6468C160.91 47.4548 160.277 46.0467 160.013 44.5495ZM160.013 44.5495L156.956 51.1051" stroke="#FEF08A" stroke-width="4" stroke-linecap="round" stroke-linejoin="round"/>
</g>
<g clip-path="url(#clip2_139_7944)">
<path d="M41.8977 27.8249C41.6815 26.4184 41.1407 25.0815 40.3183 23.9201C39.4958 22.7588 38.4143 21.8048 37.1593 21.1339C35.9043 20.463 34.5104 20.0934 33.0878 20.0545C31.6653 20.0157 30.2532 20.3085 28.9635 20.91C27.6737 21.5114 26.5417 22.4048 25.6571 23.5196C24.7725 24.6343 24.1595 25.9396 23.8668 27.3323C23.5741 28.7249 23.6096 30.1666 23.9706 31.5432C24.3316 32.9197 25.0082 34.1933 25.9467 35.263C24.6755 36.0942 23.6308 37.2283 22.9064 38.5632C22.182 39.8982 21.8007 41.3922 21.7967 42.911C21.7927 44.4298 22.1662 45.9258 22.8835 47.2645C23.6009 48.6033 24.6396 49.7428 25.9064 50.5807C27.1732 51.4185 28.6283 51.9285 30.141 52.0648C31.6537 52.201 33.1765 51.9593 34.5726 51.3613C35.9688 50.7633 37.1944 49.8277 38.1394 48.6387C39.0845 47.4497 39.7193 46.0446 39.9868 44.5495C41.3034 45.3096 42.7885 45.7303 44.3082 45.7737C45.8279 45.8171 47.3345 45.4818 48.6924 44.798C50.0503 44.1143 51.2168 43.1035 52.0869 41.8568C52.957 40.6101 53.5033 39.1665 53.6766 37.6561C53.85 36.1457 53.645 34.6159 53.08 33.2044C52.5151 31.7929 51.6079 30.5442 50.4403 29.5705C49.2726 28.5969 47.8812 27.9289 46.3912 27.6269C44.9011 27.3248 43.3594 27.398 41.9047 27.84L41.8977 27.8249Z" fill="#FEF08A"/>
<path d="M39.9868 44.5495L43.0437 51.1051L39.9868 44.5495Z" fill="#FEF08A"/>
<path d="M39.9868 44.5495C39.7193 46.0446 39.0845 47.4497 38.1394 48.6387C37.1944 49.8277 35.9688 50.7633 34.5726 51.3613C33.1765 51.9593 31.6537 52.201 30.141 52.0648C28.6283 51.9285 27.1732 51.4185 25.9064 50.5807C24.6396 49.7428 23.6009 48.6033 22.8835 47.2645C22.1662 45.9258 21.7927 44.4298 21.7967 42.911C21.8007 41.3922 22.182 39.8982 22.9064 38.5632C23.6308 37.2283 24.6755 36.0942 25.9467 35.263C25.0082 34.1933 24.3316 32.9197 23.9706 31.5432C23.6096 30.1666 23.5741 28.7249 23.8668 27.3323C24.1595 25.9396 24.7725 24.6343 25.6571 23.5196C26.5417 22.4048 27.6737 21.5114 28.9635 20.91C30.2532 20.3085 31.6653 20.0157 33.0878 20.0545C34.5104 20.0934 35.9043 20.463 37.1593 21.1339C38.4143 21.8048 39.4958 22.7588 40.3183 23.9201C41.1407 25.0815 41.6815 26.4184 41.8977 27.8249L41.9047 27.84C43.3594 27.398 44.9011 27.3248 46.3911 27.6269C47.8812 27.9289 49.2726 28.5969 50.4403 29.5705C51.6079 30.5442 52.5151 31.7929 53.08 33.2044C53.645 34.6159 53.85 36.1457 53.6766 37.6561C53.5033 39.1665 52.957 40.6101 52.0869 41.8568C51.2168 43.1035 50.0503 44.1143 48.6924 44.798C47.3345 45.4818 45.8279 45.8171 44.3082 45.7737C42.7885 45.7303 41.3034 45.3096 39.9868 44.5495ZM39.9868 44.5495L43.0437 51.1051" stroke="#FEF08A" stroke-width="4" stroke-linecap="round" stroke-linejoin="round"/>
</g>
<path d="M103.214 242.096L104.41 237.936H95.726L96.922 242.096C97.4767 243.899 98.014 245.753 98.534 247.66C99.0194 249.567 99.5047 251.456 99.99 253.328H100.198C100.649 251.421 101.134 249.515 101.654 247.608C102.139 245.736 102.659 243.899 103.214 242.096ZM114.602 224L103.526 258.008H96.454L85.378 224H91.722L94.374 233.204H105.814L108.466 224H114.602Z" fill="#FEF08A"/>
<g clip-path="url(#clip3_139_7944)">
<path d="M25.9466 242.737C25.0081 243.807 24.3316 245.08 23.9706 246.457C23.6096 247.833 23.574 249.275 23.8668 250.668C24.1595 252.06 24.7724 253.366 25.657 254.48C26.5417 255.595 27.6737 256.489 28.9634 257.09C30.2532 257.691 31.6652 257.984 33.0878 257.945C34.5103 257.907 35.9043 257.537 37.1593 256.866C38.4143 256.195 39.4958 255.241 40.3182 254.08C41.1407 252.919 41.6814 251.582 41.8976 250.175C43.3515 250.615 44.8917 250.686 46.38 250.383C47.8682 250.08 49.2578 249.411 50.4239 248.438C51.5899 247.465 52.4958 246.217 53.0603 244.807C53.6247 243.397 53.8299 241.869 53.6575 240.36C53.4851 238.851 52.9404 237.408 52.0725 236.162C51.2045 234.916 50.0405 233.905 48.685 233.219C47.3295 232.534 45.825 232.197 44.3067 232.237C42.7884 232.277 41.3039 232.694 39.9867 233.45C39.7227 231.953 39.0903 230.545 38.1467 229.353C37.2031 228.161 35.9778 227.223 34.5812 226.622C33.1846 226.021 31.6605 225.777 30.1462 225.912C28.6318 226.047 27.1748 226.556 25.9064 227.394C24.6379 228.232 23.5978 229.373 22.8797 230.713C22.1616 232.053 21.7881 233.551 21.7927 235.071C21.7974 236.591 22.1802 238.087 22.9065 239.422C23.6329 240.758 24.68 241.892 25.9537 242.722L25.9466 242.737Z" fill="#FEF08A"/>
<path d="M39.9867 233.45L43.0437 226.895L39.9867 233.45Z" fill="#FEF08A"/>
<path d="M39.9867 233.45C41.3039 232.694 42.7884 232.277 44.3067 232.237C45.825 232.197 47.3295 232.534 48.685 233.219C50.0405 233.905 51.2045 234.916 52.0725 236.162C52.9404 237.408 53.4851 238.851 53.6575 240.36C53.8299 241.869 53.6247 243.397 53.0603 244.807C52.4958 246.217 51.5899 247.465 50.4239 248.438C49.2578 249.411 47.8682 250.08 46.38 250.383C44.8917 250.686 43.3515 250.615 41.8976 250.175C41.6814 251.582 41.1407 252.919 40.3182 254.08C39.4958 255.241 38.4143 256.195 37.1593 256.866C35.9043 257.537 34.5103 257.907 33.0878 257.945C31.6652 257.984 30.2532 257.691 28.9634 257.09C27.6737 256.489 26.5417 255.595 25.657 254.48C24.7724 253.366 24.1595 252.06 23.8668 250.668C23.574 249.275 23.6096 247.833 23.9706 246.457C24.3316 245.08 25.0081 243.807 25.9466 242.737L25.9537 242.722C24.68 241.892 23.6329 240.758 22.9065 239.422C22.1802 238.087 21.7974 236.591 21.7927 235.071C21.7881 233.551 22.1616 232.053 22.8797 230.713C23.5978 229.373 24.6379 228.232 25.9064 227.394C27.1748 226.556 28.6318 226.047 30.1462 225.912C31.6605 225.777 33.1846 226.021 34.5812 226.622C35.9778 227.223 37.2031 228.161 38.1467 229.353C39.0903 230.545 39.7227 231.953 39.9867 233.45ZM39.9867 233.45L43.0437 226.895" stroke="#FEF08A" stroke-width="4" stroke-linecap="round" stroke-linejoin="round"/>
</g>
<g clip-path="url(#clip4_139_7944)">
<path d="M158.102 250.175C158.319 251.582 158.859 252.919 159.682 254.08C160.504 255.241 161.586 256.195 162.841 256.866C164.096 257.537 165.49 257.907 166.912 257.945C168.335 257.984 169.747 257.691 171.037 257.09C172.326 256.489 173.458 255.595 174.343 254.48C175.228 253.366 175.84 252.06 176.133 250.668C176.426 249.275 176.39 247.833 176.029 246.457C175.668 245.08 174.992 243.807 174.053 242.737C175.324 241.906 176.369 240.772 177.094 239.437C177.818 238.102 178.199 236.608 178.203 235.089C178.207 233.57 177.834 232.074 177.116 230.735C176.399 229.397 175.36 228.257 174.094 227.419C172.827 226.581 171.372 226.071 169.859 225.935C168.346 225.799 166.823 226.041 165.427 226.639C164.031 227.237 162.806 228.172 161.861 229.361C160.916 230.55 160.281 231.955 160.013 233.451C158.697 232.69 157.212 232.27 155.692 232.226C154.172 232.183 152.665 232.518 151.308 233.202C149.95 233.886 148.783 234.896 147.913 236.143C147.043 237.39 146.497 238.834 146.323 240.344C146.15 241.854 146.355 243.384 146.92 244.796C147.485 246.207 148.392 247.456 149.56 248.429C150.727 249.403 152.119 250.071 153.609 250.373C155.099 250.675 156.641 250.602 158.095 250.16L158.102 250.175Z" fill="#FEF08A"/>
<path d="M160.013 233.451L156.956 226.895L160.013 233.451Z" fill="#FEF08A"/>
<path d="M160.013 233.451C160.281 231.955 160.916 230.55 161.861 229.361C162.806 228.172 164.031 227.237 165.427 226.639C166.823 226.041 168.346 225.799 169.859 225.935C171.372 226.071 172.827 226.581 174.094 227.419C175.36 228.257 176.399 229.397 177.116 230.735C177.834 232.074 178.207 233.57 178.203 235.089C178.199 236.608 177.818 238.102 177.094 239.437C176.369 240.772 175.324 241.906 174.053 242.737C174.992 243.807 175.668 245.08 176.029 246.457C176.39 247.833 176.426 249.275 176.133 250.668C175.84 252.06 175.228 253.366 174.343 254.48C173.458 255.595 172.326 256.489 171.037 257.09C169.747 257.691 168.335 257.984 166.912 257.945C165.49 257.907 164.096 257.537 162.841 256.866C161.586 256.195 160.504 255.241 159.682 254.08C158.859 252.919 158.319 251.582 158.102 250.175L158.095 250.16C156.641 250.602 155.099 250.675 153.609 250.373C152.119 250.071 150.727 249.403 149.56 248.429C148.392 247.456 147.485 246.207 146.92 244.796C146.355 243.384 146.15 241.854 146.323 240.344C146.497 238.834 147.043 237.39 147.913 236.143C148.783 234.896 149.95 233.886 151.308 233.202C152.665 232.518 154.172 232.183 155.692 232.226C157.212 232.27 158.697 232.69 160.013 233.451ZM160.013 233.451L156.956 226.895" stroke="#FEF08A" stroke-width="4" stroke-linecap="round" stroke-linejoin="round"/>
</g>
<g clip-path="url(#clip5_139_7944)">
<g clip-path="url(#clip6_139_7944)">
<g clip-path="url(#clip7_139_7944)">
<g clip-path="url(#clip8_139_7944)">
<g clip-path="url(#clip9_139_7944)">
<g clip-path="url(#clip10_139_7944)">
<g clip-path="url(#clip11_139_7944)">
<g clip-path="url(#clip12_139_7944)">
<g clip-path="url(#clip13_139_7944)">
<g clip-path="url(#clip14_139_7944)">
<g clip-path="url(#clip15_139_7944)">
<path d="M64.8914 144.448C64.2164 144.448 63.5811 144.345 62.9855 144.14C62.3899 143.936 61.8717 143.626 61.431 143.211C60.9883 142.797 60.6408 142.278 60.3887 141.655C60.1346 141.03 60.0075 140.302 60.0075 139.473C60.0075 138.654 60.1366 137.927 60.3946 137.291C60.6527 136.658 61.0031 136.124 61.4459 135.688C61.8866 135.254 62.3998 134.923 62.9855 134.693C63.5712 134.463 64.1866 134.348 64.8318 134.348C65.5466 134.348 66.165 134.475 66.6871 134.729C67.2073 134.985 67.6411 135.287 67.9885 135.637L66.6484 137.285C66.4102 137.076 66.16 136.903 65.898 136.767C65.6339 136.633 65.3083 136.566 64.9212 136.566C64.5936 136.566 64.2908 136.631 64.0129 136.761C63.735 136.891 63.4917 137.076 63.2833 137.315C63.0748 137.555 62.914 137.85 62.8009 138.2C62.6857 138.549 62.6281 138.944 62.6281 139.383C62.6281 140.302 62.8316 141.007 63.2386 141.496C63.6456 141.986 64.2859 142.231 65.1594 142.231C65.2984 142.231 65.4354 142.216 65.5704 142.186C65.7034 142.156 65.8146 142.111 65.9039 142.051V140.702H64.4745V138.604H68.1672V143.25C67.8198 143.579 67.3582 143.861 66.7824 144.095C66.2067 144.33 65.5763 144.448 64.8914 144.448ZM72.3959 139.533L72.2321 140.208H74.0189L73.8551 139.533C73.736 139.064 73.6169 138.554 73.4978 138.005C73.3787 137.455 73.2595 136.936 73.1404 136.446H73.0809C72.9717 136.946 72.8595 137.467 72.7443 138.011C72.6312 138.556 72.515 139.064 72.3959 139.533ZM71.2941 144.268H68.6734L71.6216 134.528H74.7187L77.667 144.268H74.957L74.4805 142.201H71.7705L71.2941 144.268ZM80.8832 144.268H78.5871V134.528H81.3299L82.7891 138.514C82.8784 138.784 82.9628 139.064 83.0422 139.353C83.1216 139.643 83.206 139.933 83.2953 140.223H83.3519C83.4432 139.933 83.5286 139.643 83.608 139.353C83.6855 139.064 83.7698 138.784 83.8612 138.514L85.2608 134.528H88.0006V144.268H85.6777V141.391C85.6777 141.142 85.6896 140.867 85.7135 140.567C85.7393 140.267 85.7671 139.96 85.7968 139.644C85.8266 139.33 85.8614 139.024 85.9011 138.724C85.9388 138.424 85.9735 138.155 86.0053 137.915H85.9457L85.1387 140.253L83.9475 143.474H82.5806L81.3894 140.253L80.6152 137.915H80.5556C80.5834 138.155 80.6181 138.424 80.6598 138.724C80.6995 139.024 80.7343 139.33 80.7641 139.644C80.7938 139.96 80.8206 140.267 80.8445 140.567C80.8703 140.867 80.8832 141.142 80.8832 141.391V144.268ZM96.5444 144.268H90.1417V134.528H96.3955V136.686H92.7028V138.215H95.8595V140.372H92.7028V142.111H96.5444V144.268ZM100.862 144.268H98.4205V134.528H101.041L103.185 138.874L104.108 141.062H104.168C104.138 140.802 104.104 140.517 104.064 140.208C104.024 139.898 103.989 139.58 103.96 139.254C103.93 138.931 103.903 138.606 103.879 138.28C103.853 137.957 103.84 137.645 103.84 137.345V134.528H106.282V144.268H103.662L101.518 139.908L100.594 137.735H100.535C100.594 138.294 100.664 138.904 100.743 139.563C100.823 140.223 100.862 140.852 100.862 141.451V144.268ZM110.988 144.268H108.427V134.528H110.988V144.268ZM117.599 144.448C116.924 144.448 116.288 144.345 115.693 144.14C115.097 143.936 114.578 143.626 114.135 143.211C113.695 142.797 113.347 142.278 113.093 141.655C112.841 141.03 112.715 140.302 112.715 139.473C112.715 138.654 112.844 137.927 113.102 137.291C113.36 136.658 113.709 136.124 114.15 135.688C114.593 135.254 115.107 134.923 115.693 134.693C116.278 134.463 116.894 134.348 117.539 134.348C118.254 134.348 118.871 134.475 119.391 134.729C119.914 134.985 120.348 135.287 120.696 135.637L119.356 137.285C119.118 137.076 118.866 136.903 118.602 136.767C118.34 136.633 118.016 136.566 117.629 136.566C117.301 136.566 116.998 136.631 116.72 136.761C116.442 136.891 116.199 137.076 115.991 137.315C115.782 137.555 115.62 137.85 115.505 138.2C115.392 138.549 115.335 138.944 115.335 139.383C115.335 140.302 115.539 141.007 115.946 141.496C116.353 141.986 116.993 142.231 117.867 142.231C118.006 142.231 118.142 142.216 118.275 142.186C118.41 142.156 118.522 142.111 118.611 142.051V140.702H117.182V138.604H120.875V143.25C120.527 143.579 120.065 143.861 119.49 144.095C118.914 144.33 118.284 144.448 117.599 144.448ZM125.309 144.268H122.748V134.528H125.309V138.155H128.197V134.528H130.758V144.268H128.197V140.402H125.309V144.268ZM137.31 144.268H134.749V136.686H132.188V134.528H139.871V136.686H137.31V144.268Z" fill="#475569"/>
</g>
</g>
</g>
</g>
</g>
</g>
</g>
<mask id="mask0_139_7944" style="mask-type:luminance" maskUnits="userSpaceOnUse" x="50" y="101" width="103" height="80">
<path d="M153 101H49.9999V181H153V101Z" fill="white"/>
<path d="M143.868 131.964H56.0112V146.833H143.868V131.964Z" fill="black"/>
</mask>
<g mask="url(#mask0_139_7944)">
<g clip-path="url(#clip16_139_7944)">
<path d="M113.541 154.678C111.348 153.115 111.166 152.288 111.166 151.096C111.166 149.905 110.801 148.797 109.888 147.878C108.979 146.96 107.513 144.016 107.513 136.569C107.513 129.121 109.707 124.619 109.707 124.619H114.914C114.914 124.619 116.373 111.93 117.652 108.437H110.894C110.894 108.437 110.438 111.748 110.438 113.587H107.697V108.254H101.577V113.496H98.2494V108.254H92.1269V113.587H89.3887C89.3887 111.748 88.9357 108.438 88.9357 108.438H82.172C83.4532 111.931 84.9132 124.62 84.9132 124.62H90.1203C90.1203 124.62 92.3144 129.123 92.3144 136.569C92.3144 144.016 90.8519 146.96 89.939 147.879C89.026 148.798 88.6578 149.905 88.6578 151.097C88.6578 152.288 88.4764 153.116 86.2823 154.679C84.0944 156.242 81.8068 157.714 81.8068 160.196C81.8068 162.678 84.1854 162.866 85.1887 162.866H114.639C115.642 162.866 118.021 162.678 118.021 160.196C118.021 157.714 115.732 156.242 113.541 154.678Z" fill="#475569"/>
<path d="M82.0816 170.543C81.5006 170.543 80.9432 170.312 80.5318 169.899C80.1205 169.486 79.8889 168.926 79.8881 168.341C79.8881 167.755 80.1192 167.194 80.5305 166.78C80.9419 166.366 81.4998 166.133 82.0816 166.133H117.796C118.085 166.132 118.37 166.189 118.637 166.3C118.903 166.411 119.145 166.573 119.349 166.779C119.553 166.984 119.714 167.227 119.824 167.495C119.935 167.763 119.991 168.051 119.991 168.341C119.991 168.63 119.934 168.917 119.823 169.185C119.713 169.452 119.551 169.695 119.347 169.9C119.144 170.104 118.902 170.266 118.636 170.377C118.369 170.487 118.084 170.543 117.796 170.543H82.0816Z" fill="#475569"/>
</g>
</g>
</g>
</g>
</g>
</g>
</g>
<rect x="2" y="2" width="196" height="274" rx="14" stroke="#475569" stroke-width="4"/>
<defs>
<clipPath id="clip0_139_7944">
<rect width="200" height="278" rx="16" fill="white"/>
</clipPath>
<clipPath id="clip1_139_7944">
<rect width="40" height="40" fill="white" transform="translate(154.326 9.42151) rotate(25)"/>
</clipPath>
<clipPath id="clip2_139_7944">
<rect width="40" height="40" fill="white" transform="translate(9.42151 26.3262) rotate(-25)"/>
</clipPath>
<clipPath id="clip3_139_7944">
<rect width="40" height="40" fill="white" transform="translate(45.6738 268.578) rotate(-155)"/>
</clipPath>
<clipPath id="clip4_139_7944">
<rect width="40" height="40" fill="white" transform="translate(190.578 251.674) rotate(155)"/>
</clipPath>
<clipPath id="clip5_139_7944">
<rect width="100" height="63" fill="white" transform="translate(50 108)"/>
</clipPath>
<clipPath id="clip6_139_7944">
<rect width="100" height="63" fill="white" transform="translate(49.9394 107.898)"/>
</clipPath>
<clipPath id="clip7_139_7944">
<rect width="99.8369" height="62.7968" fill="white" transform="translate(50.0209 108)"/>
</clipPath>
<clipPath id="clip8_139_7944">
<rect width="99.8369" height="62.7968" fill="white" transform="translate(50.0209 108)"/>
</clipPath>
<clipPath id="clip9_139_7944">
<rect width="79.8695" height="10.0999" fill="white" transform="translate(60.0046 134.348)"/>
</clipPath>
<clipPath id="clip10_139_7944">
<rect width="79.8695" height="10.0999" fill="white" transform="translate(60.0046 134.348)"/>
</clipPath>
<clipPath id="clip11_139_7944">
<rect width="79.8695" height="10.0999" fill="white" transform="translate(60.0046 134.348)"/>
</clipPath>
<clipPath id="clip12_139_7944">
<rect width="79.8695" height="10.0999" fill="white" transform="translate(60.0046 134.348)"/>
</clipPath>
<clipPath id="clip13_139_7944">
<rect width="79.8695" height="10.0999" fill="white" transform="translate(60.0046 134.348)"/>
</clipPath>
<clipPath id="clip14_139_7944">
<rect width="79.8695" height="10.0999" fill="white" transform="translate(60.0046 134.348)"/>
</clipPath>
<clipPath id="clip15_139_7944">
<rect width="79.8695" height="10.0999" fill="white" transform="translate(60.0046 134.348)"/>
</clipPath>
<clipPath id="clip16_139_7944">
<rect width="40.1025" height="62.2887" fill="white" transform="translate(79.8881 108.254)"/>
</clipPath>
</defs>
</svg>
